<svg width="61" height="63" viewBox="0 0 61 63" fill="none" xmlns="http://www.w3.org/2000/svg">
<path d="M33.076 24.0674V36.196H39.9197C41.5567 36.196 42.524 34.8399 42.8719 33.242L44.2261 27.0214C44.574 25.4216 42.9091 24.0674 41.274 24.0674H33.076ZM17.679 24.0674C16.042 24.0674 14.7268 25.3844 14.7268 27.0214V33.242C14.7268 34.879 16.0438 36.1941 17.679 36.1941H23.5015V24.0674H17.679Z" fill="#00A1FF"/>
<path d="M22.1084 11.1429V58.1078C22.1084 59.7448 23.4254 61.0618 25.0624 61.0618H31.283C32.92 61.0618 34.2352 59.7448 34.2352 58.1078V20.057C34.2352 15.6353 35.2322 14.095 39.5368 14.095H40.798C42.435 14.095 43.7502 12.778 43.7502 11.1429V4.92229C43.7502 3.2853 42.4331 1.96826 40.798 1.96826H31.283C25.0234 1.96826 22.1084 5.79101 22.1084 11.1429Z" fill="#00A1FF"/>
</svg>
