<svg width="62" height="62" viewBox="0 0 62 62" fill="none" xmlns="http://www.w3.org/2000/svg">
<g clip-path="url(#clip0_109_5386)">
<g clip-path="url(#clip1_109_5386)">
<mask id="mask0_109_5386" style="mask-type:luminance" maskUnits="userSpaceOnUse" x="0" y="0" width="63" height="62">
<path d="M15.7255 61.7807C12.0383 61.613 10.0354 60.9994 8.70311 60.4798C6.93784 59.7925 5.6793 58.9744 4.35443 57.6513C3.0314 56.3283 2.20957 55.0698 1.52594 53.3045C1.00631 51.9722 0.392708 49.9693 0.225026 46.2821C0.0407595 42.2964 0.00390625 41.1005 0.00390625 31.0028C0.00390625 20.905 0.0444448 19.7109 0.223183 15.7216C0.390865 12.0344 1.00816 10.0351 1.5241 8.6992C2.21141 6.93393 3.0314 5.6754 4.35259 4.34868C5.67562 3.02565 6.93415 2.20382 8.70126 1.5202C10.0335 1.00056 12.0365 0.386959 15.7236 0.219277C19.7112 0.0368532 20.9089 0 31.003 0C41.1008 0 42.2948 0.0405385 46.2842 0.219277C49.9713 0.386959 51.9706 1.00425 53.3065 1.5202C55.0718 2.20382 56.3304 3.02565 57.6552 4.34868C58.9783 5.67171 59.7964 6.93209 60.4837 8.69736C61.0033 10.0296 61.617 12.0326 61.7846 15.7197C61.9671 19.7091 62.0039 20.9031 62.0039 31.0009C62.0039 41.095 61.9671 42.2927 61.7846 46.2821C61.617 49.9693 60.9997 51.9722 60.4837 53.3045C59.7964 55.0698 58.9783 56.3283 57.6552 57.6513C56.3322 58.9744 55.0718 59.7925 53.3065 60.4798C51.9743 60.9994 49.9713 61.613 46.2842 61.7807C42.2985 61.9632 41.1008 62 31.003 62C20.9089 62 19.7112 61.965 15.7255 61.7807Z" fill="white"/>
</mask>
<g mask="url(#mask0_109_5386)">
<mask id="mask1_109_5386" style="mask-type:luminance" maskUnits="userSpaceOnUse" x="-102" y="-102" width="266" height="266">
<path d="M-101.722 -101.724H163.857V163.726H-101.722V-101.724Z" fill="white"/>
</mask>
<g mask="url(#mask1_109_5386)">
<mask id="mask2_109_5386" style="mask-type:luminance" maskUnits="userSpaceOnUse" x="-102" y="-102" width="266" height="266">
<path d="M-101.722 -101.724H163.857V163.726H-101.722V-101.724Z" fill="white"/>
</mask>
<g mask="url(#mask2_109_5386)">
<path d="M-101.722 -101.724H163.728V163.726H-101.722V-101.724Z" fill="#00A1FF"/>
</g>
</g>
</g>
<path d="M23.4 31.0011C23.4 26.8017 26.8034 23.3964 31.0028 23.3964C35.2022 23.3964 38.6075 26.8017 38.6075 31.0011C38.6075 35.2005 35.2022 38.6058 31.0028 38.6058C26.8034 38.6058 23.4 35.2005 23.4 31.0011ZM19.289 31.0011C19.289 37.4707 24.5332 42.7149 31.0028 42.7149C37.4724 42.7149 42.7166 37.4707 42.7166 31.0011C42.7166 24.5315 37.4724 19.2873 31.0028 19.2873C24.5332 19.2873 19.289 24.5315 19.289 31.0011ZM40.4428 18.823C40.4428 20.3339 41.6681 21.5612 43.181 21.5612C44.6919 21.5612 45.9192 20.3339 45.9192 18.823C45.9192 17.312 44.6938 16.0866 43.181 16.0866C41.6681 16.0866 40.4428 17.312 40.4428 18.823ZM21.7858 49.5696C19.5617 49.4682 18.3529 49.0979 17.5495 48.7846C16.4845 48.37 15.7253 47.8762 14.9256 47.0783C14.1277 46.2804 13.6321 45.5213 13.2193 44.4562C12.906 43.6528 12.5357 42.444 12.4343 40.2199C12.3238 37.8153 12.3017 37.0929 12.3017 31.0011C12.3017 24.9093 12.3256 24.1888 12.4343 21.7823C12.5357 19.5582 12.9079 18.3512 13.2193 17.546C13.6339 16.4809 14.1277 15.7218 14.9256 14.922C15.7235 14.1242 16.4826 13.6285 17.5495 13.2157C18.3529 12.9025 19.5617 12.5321 21.7858 12.4308C24.1905 12.3202 24.9128 12.2981 31.0028 12.2981C37.0946 12.2981 37.8151 12.3221 40.2216 12.4308C42.4457 12.5321 43.6527 12.9043 44.4579 13.2157C45.523 13.6285 46.2822 14.1242 47.0819 14.922C47.8797 15.7199 48.3736 16.4809 48.7882 17.546C49.1014 18.3494 49.4718 19.5582 49.5731 21.7823C49.6837 24.1888 49.7058 24.9093 49.7058 31.0011C49.7058 37.0911 49.6837 37.8134 49.5731 40.2199C49.4718 42.444 49.0996 43.6528 48.7882 44.4562C48.3736 45.5213 47.8797 46.2804 47.0819 47.0783C46.284 47.8762 45.523 48.37 44.4579 48.7846C43.6545 49.0979 42.4457 49.4682 40.2216 49.5696C37.817 49.6802 37.0946 49.7023 31.0028 49.7023C24.9128 49.7023 24.1905 49.6802 21.7858 49.5696ZM21.5979 8.32716C19.1692 8.43772 17.5109 8.82284 16.0607 9.38669C14.5608 9.96897 13.2893 10.7503 12.0197 12.018C10.752 13.2858 9.97068 14.5572 9.3884 16.059C8.82455 17.5091 8.43943 19.1675 8.32887 21.5962C8.21647 24.0285 8.19067 24.8061 8.19067 31.0011C8.19067 37.1961 8.21647 37.9737 8.32887 40.406C8.43943 42.8347 8.82455 44.4931 9.3884 45.9432C9.97068 47.4432 10.7501 48.7164 12.0197 49.9842C13.2875 51.2519 14.5589 52.0314 16.0607 52.6155C17.5127 53.1794 19.1692 53.5645 21.5979 53.675C24.032 53.7856 24.8078 53.8132 31.0028 53.8132C37.1997 53.8132 37.9754 53.7874 40.4077 53.675C42.8364 53.5645 44.4948 53.1794 45.9449 52.6155C47.4449 52.0314 48.7163 51.2519 49.9859 49.9842C51.2537 48.7164 52.0331 47.4432 52.6172 45.9432C53.1811 44.4931 53.568 42.8347 53.6768 40.406C53.7873 37.9719 53.8131 37.1961 53.8131 31.0011C53.8131 24.8061 53.7873 24.0285 53.6768 21.5962C53.5662 19.1675 53.1811 17.5091 52.6172 16.059C52.0331 14.559 51.2537 13.2876 49.9859 12.018C48.7182 10.7503 47.4449 9.96897 45.9468 9.38669C44.4948 8.82284 42.8364 8.43588 40.4096 8.32716C37.9773 8.2166 37.1997 8.18896 31.0047 8.18896C24.8078 8.18896 24.032 8.21476 21.5979 8.32716Z" fill="white"/>
</g>
</g>
<defs>
<clipPath id="clip0_109_5386">
<rect width="62" height="62" fill="white"/>
</clipPath>
<clipPath id="clip1_109_5386">
<rect width="62" height="62" fill="white"/>
</clipPath>
</defs>
</svg>
