<svg width="63" height="63" viewBox="0 0 63 63" fill="none" xmlns="http://www.w3.org/2000/svg">
<path d="M43.3302 3.86914L33.8077 3.87286V43.183C33.8108 44.8321 33.323 46.4448 32.4063 47.8156C31.4897 49.1865 30.1857 50.2534 28.6605 50.8806C27.139 51.5147 25.4631 51.6815 23.8465 51.3599C22.2298 51.0382 20.7455 50.2425 19.5826 49.0743C18.4136 47.9108 17.6173 46.4256 17.2953 44.8079C16.9733 43.1903 17.1401 41.5134 17.7745 39.9908C18.4021 38.4664 19.4693 37.1633 20.8402 36.2476C22.211 35.332 23.8235 34.8451 25.4721 34.8492H28.5526V25.3249H25.4721C21.9414 25.3293 18.491 26.3786 15.5557 28.3406C12.6204 30.3027 10.3315 33.0897 8.97751 36.3504C7.63006 39.6132 7.27846 43.2018 7.96701 46.6641C8.65556 50.1264 10.3535 53.3074 12.8468 55.8064C15.346 58.3006 18.5276 59.9991 21.9906 60.688C25.4536 61.3769 29.043 61.0253 32.3065 59.6775C35.5673 58.3233 38.3542 56.0341 40.316 53.0984C42.2778 50.1627 43.3265 46.712 43.3302 43.1811V21.3868C45.9214 22.9308 48.9852 24.0655 52.7503 24.0655H57.5106V14.5375H52.7503C47.3966 14.5375 45.9438 12.3592 44.6732 9.59489C43.4027 6.83247 43.3302 3.86914 43.3302 3.86914Z" fill="#00A1FF"/>
<path d="M41.4254 1.96631L31.903 1.96817V41.2783C31.9061 42.9274 31.4182 44.5401 30.5016 45.9109C29.5849 47.2818 28.2809 48.3487 26.7557 48.9759C25.2342 49.61 23.5584 49.7769 21.9417 49.4552C20.3251 49.1335 18.8408 48.3379 17.6779 47.1696C15.2838 44.7774 13.6226 41.2132 14.9173 38.0862C16.212 34.961 20.2375 31.7912 23.5673 32.3902L26.6478 32.9445V23.4202H23.5673C20.0367 23.4246 16.5863 24.4739 13.651 26.436C10.7157 28.398 8.4268 31.185 7.07278 34.4457C5.72493 37.7088 5.37311 41.2978 6.06167 44.7604C6.75023 48.2231 8.44835 51.4044 10.942 53.9036C16.039 59.0006 22.786 59.4024 29.4456 56.6437C36.1052 53.885 39.5317 47.7835 39.8591 40.5826L40.9027 17.568C43.4958 19.1119 47.0823 21.0094 50.8158 21.5135L55.6059 22.159L54.0991 17.4415L55.6059 15.5868V12.6347H50.8456C45.4919 12.6347 44.039 10.4563 42.7685 7.69206C41.498 4.9315 41.4254 1.96631 41.4254 1.96631Z" fill="#A8D0FF"/>
<path d="M41.8464 4.91992L34.856 4.92189V44.232C34.856 47.6157 32.8361 50.6347 29.7093 51.9297C28.1875 52.564 26.5114 52.7308 24.8944 52.409C23.2775 52.0871 21.793 51.2911 20.6301 50.1224C20.1331 49.6233 19.701 49.0636 19.3441 48.4564C18.7365 48.0992 18.1764 47.6668 17.6771 47.1693C16.5083 46.0057 15.7122 44.5205 15.3904 42.903C15.0685 41.2854 15.2354 39.6086 15.8698 38.0862C16.4973 36.5617 17.5646 35.2586 18.9355 34.3429C20.3064 33.4272 21.9188 32.9404 23.5674 32.9444H26.647V26.3749H26.521C19.3121 26.3749 12.7843 30.739 10.0252 37.3986C7.53626 43.4081 8.5403 50.2641 12.5043 55.2912C17.5319 59.2577 24.3908 60.2637 30.4018 57.7743C37.0614 55.0156 41.4246 48.4869 41.4246 41.2785V19.4815C44.0169 21.0259 47.0787 22.1594 50.8448 22.1594H55.6042V15.5874H53.7979C49.2266 15.5874 47.5015 13.9976 46.303 11.8133C44.4377 10.9343 43.5665 9.42924 42.7677 7.69235C42.3326 6.74737 42.0457 5.78566 41.8464 4.91992Z" fill="#00A1FF"/>
</svg>
