<svg width="66" height="76" viewBox="0 0 66 76" fill="none" xmlns="http://www.w3.org/2000/svg">
<path d="M26.3926 18.1229L26.1259 18.3451V17.9511C26.1259 17.5417 25.7942 17.21 25.3848 17.21H17.9735C17.5641 17.21 17.2324 17.5417 17.2324 17.9511V25.3623C17.2324 25.7717 17.5641 26.1034 17.9735 26.1034H25.3848C25.7942 26.1034 26.1259 25.7717 26.1259 25.3623V20.2745L27.3415 19.2615C27.6559 18.9995 27.6984 18.5323 27.4364 18.2177C27.1744 17.9034 26.7069 17.8607 26.3926 18.1229ZM24.6437 19.5802L22.4658 21.3951L21.4622 20.3915C21.173 20.102 20.7034 20.102 20.4142 20.3915C20.1247 20.6808 20.1247 21.1501 20.4142 21.4394L21.8965 22.9217C22.0405 23.0657 22.2303 23.1388 22.4206 23.1388C22.8835 23.1388 22.9573 22.8465 24.6438 21.5097V24.6212H18.7148V18.6922H24.6438V19.5802H24.6437ZM29.8315 22.3978H37.2428C37.6522 22.3978 37.9839 22.0661 37.9839 21.6567C37.9839 21.2473 37.6522 20.9156 37.2428 20.9156H29.8315C29.4221 20.9156 29.0904 21.2473 29.0904 21.6567C29.0904 22.0661 29.4221 22.3978 29.8315 22.3978ZM29.8315 26.1034H48.3596C48.769 26.1034 49.1007 25.7717 49.1007 25.3623C49.1007 24.9529 48.769 24.6212 48.3596 24.6212H29.8315C29.4221 24.6212 29.0904 24.9529 29.0904 25.3623C29.0904 25.7717 29.4221 26.1034 29.8315 26.1034ZM26.3926 29.9809L26.1259 30.203V29.8091C26.1259 29.3997 25.7942 29.0679 25.3848 29.0679H17.9735C17.5641 29.0679 17.2324 29.3997 17.2324 29.8091V37.2203C17.2324 37.6297 17.5641 37.9614 17.9735 37.9614H25.3848C25.7942 37.9614 26.1259 37.6297 26.1259 37.2203V32.1325L27.3415 31.1195C27.6559 30.8575 27.6984 30.3902 27.4364 30.0757C27.1744 29.7613 26.7069 29.7186 26.3926 29.9809ZM24.6437 31.4382L22.4658 33.2531L21.4622 32.2494C21.173 31.96 20.7034 31.96 20.4142 32.2494C20.1247 32.5388 20.1247 33.008 20.4142 33.2974L21.8965 34.7796C22.1679 35.051 22.601 35.0701 22.8949 34.825L24.6438 33.3676V36.4792H18.7148V30.5502H24.6438V31.4382H24.6437ZM29.8315 34.2558H37.2428C37.6522 34.2558 37.9839 33.9241 37.9839 33.5147C37.9839 33.1053 37.6522 32.7736 37.2428 32.7736H29.8315C29.4221 32.7736 29.0904 33.1053 29.0904 33.5147C29.0904 33.9241 29.4221 34.2558 29.8315 34.2558ZM29.8315 37.9614H48.3596C48.769 37.9614 49.1007 37.6297 49.1007 37.2203C49.1007 36.8109 48.769 36.4792 48.3596 36.4792H29.8315C29.4221 36.4792 29.0904 36.8109 29.0904 37.2203C29.0904 37.6297 29.4221 37.9614 29.8315 37.9614ZM26.3926 41.8388L26.1259 42.061V41.667C26.1259 41.2576 25.7942 40.9259 25.3848 40.9259H17.9735C17.5641 40.9259 17.2324 41.2576 17.2324 41.667V49.0783C17.2324 49.4877 17.5641 49.8194 17.9735 49.8194H25.3848C25.7942 49.8194 26.1259 49.4877 26.1259 49.0783V43.9905L27.3415 42.9775C27.6559 42.7154 27.6984 42.2482 27.4364 41.9337C27.1744 41.6193 26.7069 41.5766 26.3926 41.8388ZM24.6437 43.2962L22.4658 45.111L21.4622 44.1074C21.173 43.8179 20.7034 43.8179 20.4142 44.1074C20.1247 44.3967 20.1247 44.866 20.4142 45.1554L21.8965 46.6376C22.1679 46.909 22.601 46.9281 22.8949 46.683L24.6438 45.2256V48.3372H18.7148V42.4082H24.6438V43.2962H24.6437ZM29.8315 46.1138H37.2428C37.6522 46.1138 37.9839 45.7821 37.9839 45.3727C37.9839 44.9633 37.6522 44.6315 37.2428 44.6315H29.8315C29.4221 44.6315 29.0904 44.9633 29.0904 45.3727C29.0904 45.7821 29.4221 46.1138 29.8315 46.1138ZM49.1007 49.0783C49.1007 48.6689 48.769 48.3372 48.3596 48.3372H29.8315C29.4221 48.3372 29.0904 48.6689 29.0904 49.0783C29.0904 49.4877 29.4221 49.8194 29.8315 49.8194H48.3596C48.769 49.8194 49.1007 49.4877 49.1007 49.0783Z" fill="black"/>
<path d="M64.6644 0.164062H18.7147C18.3053 0.164062 17.9736 0.495789 17.9736 0.905186V5.35193H14.268C13.8586 5.35193 13.5268 5.68365 13.5268 6.09305V10.5398H12.0446C11.6352 10.5398 11.3035 10.8715 11.3035 11.2809V53.5524C5.51811 53.9354 0.927734 58.7611 0.927734 64.6418C0.927734 70.7716 5.91475 75.7587 12.0446 75.7587H54.2886C54.698 75.7587 55.0297 75.4269 55.0297 75.0175V72.7942H59.4765C59.8859 72.7942 60.2176 72.4624 60.2176 72.053V68.3474H64.6644C65.0738 68.3474 65.4055 68.0157 65.4055 67.6063V0.905186C65.4055 0.495789 65.0738 0.164062 64.6644 0.164062ZM11.1391 69.9349C10.8505 70.2238 10.3812 70.225 10.0911 69.9351L4.85065 64.6944C4.56161 64.4057 4.56087 63.9363 4.85065 63.6463L6.94699 61.5501C7.23618 61.261 7.70575 61.2608 7.99494 61.5503L10.6153 64.1705L15.8557 58.9301C16.1449 58.6406 16.6145 58.6406 16.9037 58.9301L19 61.0265C19.2891 61.3152 19.2898 61.7849 19 62.0744L11.1391 69.9349ZM53.5475 74.2764H17.5799C20.9121 72.3545 23.1614 68.7571 23.1614 64.6418C23.1614 58.7611 18.5711 53.9354 12.7857 53.5524V12.022C14.7458 12.022 39.6763 12.022 40.9632 12.022C42.5897 12.022 43.9129 13.3454 43.9129 14.9717V20.1744C43.9129 20.5838 44.2446 20.9155 44.654 20.9155H50.5978C52.2243 20.9155 53.5475 22.2389 53.5475 23.8652C53.5475 26.2549 53.5475 72.0399 53.5475 74.2764ZM63.9232 66.8652H60.2176V6.09305C60.2176 5.68365 59.8859 5.35193 59.4765 5.35193H19.4558V1.64631H63.9232V66.8652Z" fill="black"/>
<path d="M11.1402 65.7419C10.851 66.0314 10.3814 66.0314 10.0922 65.7419L7.47192 63.1218L6.42383 64.1697L10.6162 68.3623L17.4289 61.5495L16.3808 60.5015L11.1402 65.7419ZM48.9501 61.6158C48.0083 61.8125 47.2794 61.7248 46.785 61.3543C46.1037 60.8439 46.0231 59.9124 46.0228 59.9084C45.9785 59.215 45.0848 58.9581 44.68 59.5246L43.9585 60.5348C43.4366 60.1799 42.9277 59.8939 42.434 59.6669C42.4647 58.5106 42.127 57.6051 41.4259 56.9684C39.8232 55.5126 36.9537 56.2022 36.8321 56.232C36.4353 56.3303 36.1937 56.7311 36.2914 57.128C36.3888 57.525 36.7891 57.7676 37.1873 57.6711C37.8036 57.5208 39.5887 57.2989 40.4313 58.0673C40.7054 58.3172 40.8718 58.6752 40.93 59.1372C38.9639 58.6547 37.3069 59.072 36.1 59.6524C33.479 60.9123 34.0333 64.8354 36.8968 65.3029C39.8144 65.7787 41.5802 64.1115 42.2222 61.214C43.6348 61.9624 43.6866 62.3879 44.2363 62.3062C44.6937 62.2386 44.8001 61.8507 45.0427 61.5673C45.745 62.786 47.1164 63.5144 49.2538 63.0665C49.6543 62.9827 49.9113 62.5899 49.8273 62.1893C49.7434 61.7888 49.3519 61.5316 48.9501 61.6158ZM37.1355 63.8401C35.7006 63.6057 35.4284 61.62 36.7423 60.9882C38.0636 60.3532 39.4295 60.2364 40.8272 60.6415C40.3968 62.8988 39.3527 64.2017 37.1355 63.8401Z" fill="black"/>
</svg>
