<svg width="70" height="71" viewBox="0 0 70 71" fill="none" xmlns="http://www.w3.org/2000/svg">
<path d="M54.2472 0.436523C45.5575 0.436523 38.4878 7.50617 38.4878 16.1959C38.4878 16.7077 38.5132 17.2193 38.5622 17.7271L26.0953 10.8004C25.8881 10.6856 25.6365 10.6856 25.4297 10.8004L0.469649 24.6683C0.248059 24.7924 0.117188 25.0278 0.117188 25.2671V55.7738C0.117188 56.0225 0.252033 56.2519 0.469649 56.3728L25.4299 70.2395C25.6458 70.3599 25.9012 70.3477 26.0952 70.2395L51.0553 56.3731C51.2729 56.2522 51.4078 56.0228 51.4078 55.7741V31.6984C52.341 31.8685 53.2924 31.9552 54.2472 31.9552C62.9369 31.9552 70.0065 24.8856 70.0065 16.1959C70.0065 7.50617 62.9369 0.436523 54.2472 0.436523ZM25.7626 12.1833L49.3118 25.2672L41.3631 29.6836L17.8129 16.6L25.7626 12.1833ZM25.0774 63.5688L1.48757 50.4636V26.4317L25.0774 39.537V63.5688ZM25.7625 38.3498L2.21332 25.2671L10.1622 20.8507L33.7115 33.9337L25.7625 38.3498ZM50.0374 50.5173L26.4477 63.6228V39.5369L34.4372 35.0982C34.4377 38.0234 34.4356 51.1943 34.4401 51.296C34.466 51.92 35.2474 52.1853 35.6478 51.7069L38.8112 47.9277L41.2119 48.4689C41.6493 48.5594 42.0478 48.2325 42.0478 47.8004V30.871L50.0375 26.4317V50.5173H50.0374ZM54.2472 30.5849C53.2908 30.5849 52.3382 30.4894 51.4078 30.3028V25.2672C51.4078 25.0288 51.2769 24.7917 51.0554 24.6683L40.0513 18.5544C39.9231 17.7803 39.8582 16.9884 39.8582 16.1959C39.8582 8.2618 46.3131 1.8069 54.2472 1.8069C62.1813 1.8069 68.6362 8.2618 68.6362 16.1959C68.6362 24.13 62.1813 30.5849 54.2472 30.5849Z" fill="black"/>
<path d="M61.2996 9.26127C61.0323 8.99364 60.5982 8.99364 60.3308 9.26127L53.5619 16.03L50.219 12.6872C49.9517 12.4196 49.5175 12.4196 49.2502 12.6872L47.3121 14.6254C47.0444 14.8928 47.0444 15.3267 47.3121 15.5942L53.0774 21.3595C53.3447 21.6272 53.7789 21.6272 54.0462 21.3595L63.2375 12.1683C63.5051 11.9008 63.5051 11.4669 63.2375 11.1994L61.2996 9.26127Z" fill="black"/>
</svg>
