<svg width="100" height="97" viewBox="0 0 100 97" fill="none" xmlns="http://www.w3.org/2000/svg">
<path d="M75.8903 90.7106H23.9143C22.7343 90.7093 21.603 90.2401 20.7685 89.4058C19.934 88.5715 19.4645 87.4402 19.4629 86.2602V18.9953C19.4645 17.8153 19.934 16.6841 20.7685 15.8498C21.603 15.0155 22.7343 14.5462 23.9143 14.5449H36.6525C37.0221 14.5449 37.3764 14.6917 37.6377 14.953C37.899 15.2143 38.0458 15.5687 38.0458 15.9382V22.0535C38.0458 22.2365 38.0098 22.4177 37.9397 22.5867C37.8697 22.7557 37.7671 22.9093 37.6377 23.0387C37.5083 23.1681 37.3548 23.2707 37.1857 23.3407C37.0167 23.4107 36.8355 23.4468 36.6525 23.4468H28.3647V81.8088H71.4399V23.4468H63.1511C62.7816 23.4468 62.4272 23.3 62.1659 23.0387C61.9046 22.7774 61.7578 22.423 61.7578 22.0535V15.9382C61.7578 15.5687 61.9046 15.2143 62.1659 14.953C62.4272 14.6917 62.7816 14.5449 63.1511 14.5449H75.8893C77.0693 14.5462 78.2006 15.0155 79.0351 15.8498C79.8696 16.6841 80.3392 17.8153 80.3407 18.9953V86.2602C80.3392 87.4401 79.8698 88.5711 79.0355 89.4054C78.2012 90.2397 77.0702 90.7091 75.8903 90.7106ZM23.9143 17.3314C23.473 17.3317 23.0498 17.507 22.7377 17.819C22.4255 18.131 22.2499 18.554 22.2494 18.9953V86.2602C22.2499 86.7015 22.4255 87.1246 22.7377 87.4366C23.0498 87.7485 23.473 87.9239 23.9143 87.9242H75.8903C76.3316 87.9239 76.7548 87.7485 77.067 87.4366C77.3791 87.1246 77.5547 86.7015 77.5552 86.2602V18.9953C77.5547 18.554 77.3791 18.131 77.067 17.819C76.7548 17.507 76.3316 17.3317 75.8903 17.3314H64.5453V20.6603H72.8341C73.2036 20.6603 73.558 20.8071 73.8193 21.0683C74.0806 21.3296 74.2274 21.684 74.2274 22.0535V83.2021C74.2274 83.5716 74.0806 83.9259 73.8193 84.1872C73.558 84.4485 73.2036 84.5953 72.8341 84.5953H26.9715C26.602 84.5953 26.2476 84.4485 25.9863 84.1872C25.725 83.9259 25.5782 83.5716 25.5782 83.2021V22.0535C25.5782 21.684 25.725 21.3296 25.9863 21.0683C26.2476 20.8071 26.602 20.6603 26.9715 20.6603H35.2603V17.3314H23.9143Z" fill="black"/>
<path d="M63.1519 26.5056H36.6543C36.2848 26.5056 35.9304 26.3588 35.6692 26.0975C35.4079 25.8362 35.2611 25.4819 35.2611 25.1124V12.8827C35.2611 12.5131 35.4079 12.1588 35.6692 11.8975C35.9304 11.6362 36.2848 11.4894 36.6543 11.4894H41.885V11.3541C41.885 9.22752 42.7297 7.18808 44.2334 5.68439C45.7371 4.1807 47.7765 3.33594 49.9031 3.33594C52.0296 3.33594 54.0691 4.1807 55.5728 5.68439C57.0765 7.18808 57.9212 9.22752 57.9212 11.3541V11.4894H63.1519C63.5214 11.4894 63.8757 11.6362 64.137 11.8975C64.3983 12.1588 64.5451 12.5131 64.5451 12.8827V25.1124C64.5451 25.4819 64.3983 25.8362 64.137 26.0975C63.8757 26.3588 63.5214 26.5056 63.1519 26.5056ZM38.0476 23.7191H61.7586V14.2759H56.528C56.1585 14.2759 55.8041 14.1291 55.5428 13.8678C55.2815 13.6065 55.1347 13.2522 55.1347 12.8827V11.3541C55.1347 9.96655 54.5835 8.63586 53.6024 7.65474C52.6213 6.67362 51.2906 6.12243 49.9031 6.12243C48.5156 6.12243 47.1849 6.67362 46.2038 7.65474C45.2226 8.63586 44.6715 9.96655 44.6715 11.3541V12.8827C44.6715 13.2522 44.5247 13.6065 44.2634 13.8678C44.0021 14.1291 43.6477 14.2759 43.2782 14.2759H38.0476V23.7191ZM66.8211 36.1877H44.4714C44.1019 36.1877 43.7475 36.0409 43.4862 35.7796C43.225 35.5183 43.0782 35.1639 43.0782 34.7944C43.0782 34.4249 43.225 34.0705 43.4862 33.8092C43.7475 33.548 44.1019 33.4012 44.4714 33.4012H66.8211C67.1906 33.4012 67.545 33.548 67.8062 33.8092C68.0675 34.0705 68.2143 34.4249 68.2143 34.7944C68.2143 35.1639 68.0675 35.5183 67.8062 35.7796C67.545 36.0409 67.1906 36.1877 66.8211 36.1877ZM66.8211 45.8697H44.4714C44.1019 45.8697 43.7475 45.7229 43.4862 45.4616C43.225 45.2004 43.0782 44.846 43.0782 44.4765C43.0782 44.107 43.225 43.7526 43.4862 43.4913C43.7475 43.23 44.1019 43.0832 44.4714 43.0832H66.8211C67.1906 43.0832 67.545 43.23 67.8062 43.4913C68.0675 43.7526 68.2143 44.107 68.2143 44.4765C68.2143 44.846 68.0675 45.2004 67.8062 45.4616C67.545 45.7229 67.1906 45.8697 66.8211 45.8697ZM66.8211 55.5518H44.4714C44.1019 55.5518 43.7475 55.405 43.4862 55.1437C43.225 54.8824 43.0782 54.528 43.0782 54.1585C43.0782 53.789 43.225 53.4346 43.4862 53.1734C43.7475 52.9121 44.1019 52.7653 44.4714 52.7653H66.8211C67.1906 52.7653 67.545 52.9121 67.8062 53.1734C68.0675 53.4346 68.2143 53.789 68.2143 54.1585C68.2143 54.528 68.0675 54.8824 67.8062 55.1437C67.545 55.405 67.1906 55.5518 66.8211 55.5518ZM66.8211 65.2358H44.4714C44.1019 65.2358 43.7475 65.089 43.4862 64.8277C43.225 64.5665 43.0782 64.2121 43.0782 63.8426C43.0782 63.4731 43.225 63.1187 43.4862 62.8574C43.7475 62.5961 44.1019 62.4493 44.4714 62.4493H66.8211C67.1906 62.4493 67.545 62.5961 67.8062 62.8574C68.0675 63.1187 68.2143 63.4731 68.2143 63.8426C68.2143 64.2121 68.0675 64.5665 67.8062 64.8277C67.545 65.089 67.1906 65.2358 66.8211 65.2358ZM66.8211 74.9159H44.4714C44.1019 74.9159 43.7475 74.7691 43.4862 74.5078C43.225 74.2465 43.0782 73.8922 43.0782 73.5226C43.0782 73.1531 43.225 72.7988 43.4862 72.5375C43.7475 72.2762 44.1019 72.1294 44.4714 72.1294H66.8211C67.1906 72.1294 67.545 72.2762 67.8062 72.5375C68.0675 72.7988 68.2143 73.1531 68.2143 73.5226C68.2143 73.8922 68.0675 74.2465 67.8062 74.5078C67.545 74.7691 67.1906 74.9159 66.8211 74.9159ZM35.1287 38.599C34.9458 38.599 34.7646 38.563 34.5955 38.4929C34.4265 38.4229 34.2729 38.3203 34.1435 38.1909L31.9999 36.0473C31.8705 35.918 31.7679 35.7644 31.6979 35.5953C31.6278 35.4263 31.5918 35.2451 31.5918 35.0621C31.5918 34.8791 31.6278 34.698 31.6979 34.5289C31.7679 34.3599 31.8705 34.2063 31.9999 34.0769C32.1293 33.9475 32.2829 33.8449 32.4519 33.7749C32.621 33.7048 32.8021 33.6688 32.9851 33.6688C33.1681 33.6688 33.3493 33.7048 33.5183 33.7749C33.6874 33.8449 33.841 33.9475 33.9703 34.0769L35.1287 35.2353L38.9661 31.3999C39.2274 31.1386 39.5818 30.9918 39.9513 30.9918C40.3209 30.9918 40.6753 31.1386 40.9366 31.3999C41.1979 31.6612 41.3447 32.0156 41.3447 32.3851C41.3447 32.7546 41.1979 33.109 40.9366 33.3703L36.1139 38.1929C35.8523 38.4535 35.498 38.5995 35.1287 38.599ZM35.1287 48.281C34.9458 48.281 34.7646 48.245 34.5955 48.175C34.4265 48.105 34.2729 48.0024 34.1435 47.873L31.9999 45.7304C31.8705 45.601 31.7679 45.4474 31.6979 45.2784C31.6278 45.1093 31.5918 44.9281 31.5918 44.7452C31.5918 44.5622 31.6278 44.381 31.6979 44.212C31.7679 44.0429 31.8705 43.8893 31.9999 43.7599C32.1293 43.6306 32.2829 43.5279 32.4519 43.4579C32.621 43.3879 32.8021 43.3519 32.9851 43.3519C33.1681 43.3519 33.3493 43.3879 33.5183 43.4579C33.6874 43.5279 33.841 43.6306 33.9703 43.7599L35.1287 44.9183L38.9661 41.0809C39.0955 40.9516 39.2491 40.8489 39.4181 40.7789C39.5872 40.7089 39.7684 40.6728 39.9513 40.6728C40.1343 40.6728 40.3155 40.7089 40.4845 40.7789C40.6536 40.8489 40.8072 40.9516 40.9366 41.0809C41.0659 41.2103 41.1686 41.3639 41.2386 41.533C41.3086 41.702 41.3447 41.8832 41.3447 42.0662C41.3447 42.2491 41.3086 42.4303 41.2386 42.5994C41.1686 42.7684 41.0659 42.922 40.9366 43.0514L36.1139 47.874C35.8525 48.1349 35.4981 48.2813 35.1287 48.281ZM35.1287 57.9631C34.9458 57.9631 34.7646 57.9271 34.5955 57.8571C34.4265 57.7871 34.2729 57.6844 34.1435 57.5551L31.9999 55.4115C31.7386 55.1502 31.5918 54.7958 31.5918 54.4262C31.5918 54.0567 31.7386 53.7023 31.9999 53.441C32.2612 53.1797 32.6156 53.0329 32.9851 53.0329C33.3546 53.0329 33.709 53.1797 33.9703 53.441L35.1287 54.5994L38.9661 50.762C39.2274 50.5007 39.5818 50.3539 39.9513 50.3539C40.3209 50.3539 40.6753 50.5007 40.9366 50.762C41.1979 51.0233 41.3447 51.3777 41.3447 51.7472C41.3447 52.1168 41.1979 52.4711 40.9366 52.7324L36.1139 57.5551C35.9846 57.6844 35.831 57.7871 35.6619 57.8571C35.4929 57.9271 35.3117 57.9631 35.1287 57.9631ZM33.9803 77.4038C33.7047 77.4039 33.4353 77.3221 33.2062 77.1691C32.9771 77.016 32.7985 76.7984 32.693 76.5438C32.5875 76.2892 32.5599 76.009 32.6137 75.7387C32.6675 75.4685 32.8002 75.2202 32.9951 75.0254L37.9709 70.0495C38.2339 69.7968 38.5854 69.6572 38.95 69.6608C39.3147 69.6644 39.6634 69.8108 39.9213 70.0686C40.1792 70.3264 40.3258 70.675 40.3296 71.0397C40.3333 71.4043 40.1939 71.7559 39.9414 72.0189L34.9655 76.9948C34.8364 77.1246 34.6829 77.2276 34.5138 77.2978C34.3447 77.368 34.1634 77.404 33.9803 77.4038Z" fill="black"/>
<path d="M38.9571 77.4034C38.774 77.4037 38.5927 77.3676 38.4236 77.2974C38.2545 77.2272 38.101 77.1242 37.9719 76.9944L32.996 72.0185C32.7435 71.7555 32.6041 71.4039 32.6078 71.0393C32.6116 70.6746 32.7582 70.326 33.0161 70.0682C33.274 69.8104 33.6227 69.664 33.9874 69.6604C34.352 69.6569 34.7035 69.7964 34.9665 70.0491L39.9423 75.025C40.1372 75.2198 40.2699 75.4681 40.3237 75.7384C40.3775 76.0086 40.3499 76.2888 40.2444 76.5434C40.1389 76.798 39.9603 77.0156 39.7312 77.1687C39.5021 77.3218 39.2327 77.4035 38.9571 77.4034ZM33.9812 67.7234C33.7057 67.7234 33.4363 67.6417 33.2071 67.4886C32.978 67.3355 32.7994 67.1179 32.694 66.8633C32.5885 66.6087 32.5609 66.3286 32.6147 66.0583C32.6684 65.788 32.8011 65.5398 32.996 65.3449L37.9719 60.369C38.2332 60.1077 38.5876 59.9609 38.9571 59.9609C39.3266 59.9609 39.681 60.1077 39.9423 60.369C40.2036 60.6303 40.3504 60.9847 40.3504 61.3543C40.3504 61.7238 40.2036 62.0782 39.9423 62.3395L34.9665 67.3154C34.8371 67.4447 34.6835 67.5473 34.5144 67.6174C34.3454 67.6874 34.1642 67.7234 33.9812 67.7234Z" fill="black"/>
<path d="M38.9571 67.7234C38.7741 67.7234 38.5929 67.6874 38.4239 67.6174C38.2548 67.5473 38.1012 67.4447 37.9719 67.3154L32.996 62.3395C32.7347 62.0782 32.5879 61.7238 32.5879 61.3543C32.5879 60.9847 32.7347 60.6303 32.996 60.369C33.2573 60.1077 33.6117 59.9609 33.9812 59.9609C34.3507 59.9609 34.7051 60.1077 34.9664 60.369L39.9423 65.3449C40.1372 65.5398 40.2699 65.788 40.3237 66.0583C40.3774 66.3286 40.3498 66.6087 40.2444 66.8633C40.1389 67.1179 39.9603 67.3355 39.7312 67.4886C39.502 67.6417 39.2327 67.7234 38.9571 67.7234Z" fill="black"/>
</svg>
