<svg width="59" height="80" viewBox="0 0 59 80" fill="none" xmlns="http://www.w3.org/2000/svg">
<path d="M51.1992 0.123047H7.16803C3.28448 0.123047 0.123047 3.28448 0.123047 7.16803V63.5279C0.123047 67.4114 3.28448 70.5728 7.16803 70.5728H35.3479V72.3341C35.3479 76.2176 38.5094 79.3791 42.3929 79.3791C46.2765 79.3791 49.4379 76.2176 49.4379 72.3341V70.5728H51.1992C55.0827 70.5728 58.2441 67.4114 58.2441 63.5279V7.16803C58.2441 3.28448 55.0827 0.123047 51.1992 0.123047ZM23.0192 3.64554H35.3479V8.92927H23.0192V3.64554ZM45.9154 72.3341C45.9154 74.2803 44.3391 75.8566 42.3929 75.8566C40.4468 75.8566 38.8704 74.2803 38.8704 72.3341V65.2891H45.9154V72.3341ZM45.9154 61.7666H38.8704V42.3929H45.9154V61.7666ZM45.9154 38.8704H38.8704V37.4702L42.3929 29.254L45.9154 37.4702V38.8704ZM54.7216 63.5279C54.7216 65.474 53.1453 67.0504 51.1992 67.0504H49.4379V37.1092C49.4379 36.8714 49.3939 36.6337 49.297 36.4135L44.0133 24.0848C43.7315 23.4419 43.0974 23.0192 42.3929 23.0192C41.6884 23.0192 41.0544 23.4419 40.7726 24.0848L35.4888 36.4135C35.392 36.6337 35.3479 36.8714 35.3479 37.1092V67.0504H7.16803C5.22185 67.0504 3.64554 65.474 3.64554 63.5279V7.16803C3.64554 5.22185 5.22185 3.64554 7.16803 3.64554H19.4967V10.6905C19.4967 11.6592 20.2893 12.4518 21.258 12.4518H37.1092C38.0779 12.4518 38.8704 11.6592 38.8704 10.6905V3.64554H51.1992C53.1453 3.64554 54.7216 5.22185 54.7216 7.16803V63.5279ZM15.9743 19.4967C15.9743 20.4654 15.1817 21.258 14.213 21.258H10.6905C9.72183 21.258 8.92927 20.4654 8.92927 19.4967C8.92927 18.5281 9.72183 17.7355 10.6905 17.7355H14.213C15.1817 17.7355 15.9743 18.5281 15.9743 19.4967ZM49.4379 19.4967C49.4379 20.4654 48.6454 21.258 47.6767 21.258H23.0192C22.0505 21.258 21.258 20.4654 21.258 19.4967C21.258 18.5281 22.0505 17.7355 23.0192 17.7355H47.6767C48.6454 17.7355 49.4379 18.5281 49.4379 19.4967ZM15.9743 28.303C15.9743 29.2717 15.1817 30.0642 14.213 30.0642H10.6905C9.72183 30.0642 8.92927 29.2717 8.92927 28.303C8.92927 27.3343 9.72183 26.5417 10.6905 26.5417H14.213C15.1817 26.5417 15.9743 27.3343 15.9743 28.303ZM33.5867 28.303C33.5867 29.2717 32.7941 30.0642 31.8255 30.0642H23.0192C22.0505 30.0642 21.258 29.2717 21.258 28.303C21.258 27.3343 22.0505 26.5417 23.0192 26.5417H31.8255C32.7941 26.5417 33.5867 27.3343 33.5867 28.303ZM15.9743 37.1092C15.9743 38.0779 15.1817 38.8704 14.213 38.8704H10.6905C9.72183 38.8704 8.92927 38.0779 8.92927 37.1092C8.92927 36.1405 9.72183 35.3479 10.6905 35.3479H14.213C15.1817 35.3479 15.9743 36.1405 15.9743 37.1092ZM30.0642 37.1092C30.0642 38.0779 29.2717 38.8704 28.303 38.8704H23.0192C22.0505 38.8704 21.258 38.0779 21.258 37.1092C21.258 36.1405 22.0505 35.3479 23.0192 35.3479H28.303C29.2717 35.3479 30.0642 36.1405 30.0642 37.1092ZM15.9743 45.9154C15.9743 46.8841 15.1817 47.6767 14.213 47.6767H10.6905C9.72183 47.6767 8.92927 46.8841 8.92927 45.9154C8.92927 44.9467 9.72183 44.1542 10.6905 44.1542H14.213C15.1817 44.1542 15.9743 44.9467 15.9743 45.9154ZM30.0642 45.9154C30.0642 46.8841 29.2717 47.6767 28.303 47.6767H23.0192C22.0505 47.6767 21.258 46.8841 21.258 45.9154C21.258 44.9467 22.0505 44.1542 23.0192 44.1542H28.303C29.2717 44.1542 30.0642 44.9467 30.0642 45.9154Z" fill="black"/>
</svg>
