<svg width="89" height="89" viewBox="0 0 89 89" fill="none" xmlns="http://www.w3.org/2000/svg">
<path d="M70.0837 28.1366H59.2273C57.8238 28.1366 56.5991 28.6732 55.5534 29.4438V25.8662C55.5534 22.3162 52.6639 19.4404 49.1276 19.4404H12.6231C9.07305 19.4404 6.19727 22.33 6.19727 25.8662V57.6374C6.19727 58.1398 6.29621 58.6372 6.48844 59.1013C6.68068 59.5654 6.96244 59.9871 7.31764 60.3423C7.67285 60.6975 8.09453 60.9792 8.55863 61.1715C9.02272 61.3637 9.52014 61.4626 10.0225 61.4626H15.5539C15.9392 65.9483 19.668 69.4846 24.25 69.4846C28.832 69.4846 32.5609 65.9483 32.9462 61.4626H59.3098C59.6951 65.9483 63.424 69.4846 68.006 69.4846C72.5879 69.4846 76.3168 65.9483 76.7021 61.4626H78.9725C81.3254 61.4626 83.238 59.55 83.238 57.1971V41.3046C83.238 34.0395 77.3351 28.1366 70.0699 28.1366H70.0837ZM59.2273 30.8885H63.2864V41.6899C63.2864 45.2674 66.2034 48.1845 69.781 48.1845H80.5136V51.9409H55.5534V34.5624C55.5534 32.5397 57.2046 30.8885 59.2273 30.8885ZM12.6231 22.1786H49.1139C51.1365 22.1786 52.7877 23.8298 52.7877 25.8525V51.9409H16.6822V47.5516C16.6822 45.5289 15.031 43.8777 13.0083 43.8777H8.94921V25.8525C8.94921 23.8298 10.6004 22.1786 12.6231 22.1786ZM8.94921 51.9547V46.6434H13.0083C13.5174 46.6434 13.9302 47.0562 13.9302 47.5653V51.9547H8.94921ZM8.94921 57.6374V54.7066H17.9068C16.8611 55.8074 16.1043 57.1834 15.7328 58.7245H10.0225C9.41704 58.7245 8.94921 58.2566 8.94921 57.6512V57.6374ZM24.2638 66.7464C20.9477 66.7464 18.237 64.0495 18.237 60.7196C18.237 57.3898 20.9339 54.6929 24.2638 54.6929C27.5936 54.6929 30.2905 57.3898 30.2905 60.7196C30.2905 64.0495 27.5936 66.7464 24.2638 66.7464ZM32.7811 58.7245C32.4271 57.2155 31.6766 55.8284 30.607 54.7066H52.7877V58.7245H32.7811ZM55.5396 54.7066H61.6765C60.6307 55.8074 59.8602 57.1834 59.5025 58.7245H55.5396V54.7066ZM68.0197 66.7464C64.7036 66.7464 61.993 64.0495 61.993 60.7196C61.993 57.3898 64.6899 54.6929 68.0197 54.6929C71.3496 54.6929 74.0465 57.3898 74.0465 60.7196C74.0465 64.0495 71.3496 66.7464 68.0197 66.7464ZM78.9862 58.7245H76.537C76.1831 57.2155 75.4325 55.8284 74.363 54.7066H80.4998V57.2109C80.4998 58.0502 79.8256 58.7245 78.9862 58.7245ZM80.4998 45.4463H69.7672C67.7032 45.4463 66.0246 43.7676 66.0246 41.7037V30.9023H70.0699C75.8215 30.9023 80.486 35.5806 80.486 41.3184V45.4463H80.4998Z" fill="black"/>
<path d="M24.2646 57.8027C23.5079 57.8027 22.8887 58.4219 22.8887 59.1787V62.2471C22.8887 63.0039 23.5079 63.6231 24.2646 63.6231C25.0214 63.6231 25.6406 63.0039 25.6406 62.2471V59.1787C25.6406 58.4219 25.0214 57.8027 24.2646 57.8027ZM68.0206 57.8027C67.2638 57.8027 66.6446 58.4219 66.6446 59.1787V62.2471C66.6446 63.0039 67.2638 63.6231 68.0206 63.6231C68.7774 63.6231 69.3966 63.0039 69.3966 62.2471V59.1787C69.3966 58.4219 68.7774 57.8027 68.0206 57.8027Z" fill="black"/>
<path d="M17.9326 28.0537C18.6925 28.0537 19.3086 27.4377 19.3086 26.6777C19.3086 25.9178 18.6925 25.3018 17.9326 25.3018C17.1727 25.3018 16.5566 25.9178 16.5566 26.6777C16.5566 27.4377 17.1727 28.0537 17.9326 28.0537Z" fill="black"/>
<path d="M13.3232 28.0537C14.0832 28.0537 14.6992 27.4377 14.6992 26.6777C14.6992 25.9178 14.0832 25.3018 13.3232 25.3018C12.5633 25.3018 11.9473 25.9178 11.9473 26.6777C11.9473 27.4377 12.5633 28.0537 13.3232 28.0537Z" fill="black"/>
<path d="M22.5283 28.0537C23.2882 28.0537 23.9043 27.4377 23.9043 26.6777C23.9043 25.9178 23.2882 25.3018 22.5283 25.3018C21.7684 25.3018 21.1523 25.9178 21.1523 26.6777C21.1523 27.4377 21.7684 28.0537 22.5283 28.0537Z" fill="black"/>
</svg>
