<svg width="40" height="41" viewBox="0 0 40 41" fill="none" xmlns="http://www.w3.org/2000/svg">
<g clip-path="url(#clip0_79_1602)">
<path d="M39.7888 21.1912C39.7888 19.5575 39.6563 18.3653 39.3694 17.1289H20.7134V24.5029H31.664C31.4433 26.3354 30.2511 29.0952 27.6017 30.9496L27.5646 31.1965L33.4632 35.7661L33.8719 35.8069C37.6251 32.3406 39.7888 27.2406 39.7888 21.1912Z" fill="#4285F4"/>
<path d="M20.7134 40.6181C26.0783 40.6181 30.5821 38.8517 33.8719 35.8051L27.6017 30.9478C25.9238 32.1179 23.6718 32.9348 20.7134 32.9348C15.4589 32.9348 10.9991 29.4687 9.40935 24.6777L9.17633 24.6975L3.04281 29.4443L2.9626 29.6673C6.23012 36.1582 12.9419 40.6181 20.7134 40.6181Z" fill="#34A853"/>
<path d="M9.40929 24.6805C8.98981 23.4442 8.74705 22.1194 8.74705 20.7506C8.74705 19.3817 8.98981 18.0571 9.38722 16.8207L9.37611 16.5574L3.16573 11.7344L2.96253 11.831C1.61583 14.5246 0.843094 17.5493 0.843094 20.7506C0.843094 23.9519 1.61583 26.9765 2.96253 29.6701L9.40929 24.6805Z" fill="#FBBC05"/>
<path d="M20.7134 8.56201C24.4445 8.56201 26.9614 10.1737 28.3965 11.5206L34.0043 6.04517C30.5602 2.84386 26.0783 0.878906 20.7134 0.878906C12.9419 0.878906 6.23012 5.33864 2.9626 11.8295L9.38728 16.8192C10.9991 12.0283 15.4589 8.56201 20.7134 8.56201Z" fill="#EB4335"/>
</g>
<defs>
<clipPath id="clip0_79_1602">
<rect width="38.9682" height="39.8774" fill="white" transform="translate(0.841064 0.878906)"/>
</clipPath>
</defs>
</svg>
