<svg width="29" height="29" viewBox="0 0 29 29" fill="none" xmlns="http://www.w3.org/2000/svg">
<path d="M5.96672 19.1387C5.81289 19.1387 5.66537 19.1998 5.5566 19.3086C5.44783 19.4173 5.38672 19.5648 5.38672 19.7187V23.2758C5.38672 23.4296 5.44783 23.5772 5.5566 23.6859C5.66537 23.7947 5.81289 23.8558 5.96672 23.8558H22.2067C22.3605 23.8558 22.5081 23.7947 22.6168 23.6859C22.7256 23.5772 22.7867 23.4296 22.7867 23.2758V19.7187C22.7867 19.5648 22.7256 19.4173 22.6168 19.3086C22.5081 19.1998 22.3605 19.1387 22.2067 19.1387C22.0529 19.1387 21.9054 19.1998 21.7966 19.3086C21.6878 19.4173 21.6267 19.5648 21.6267 19.7187V22.6958H6.54672V19.7187C6.54672 19.5648 6.48561 19.4173 6.37684 19.3086C6.26807 19.1998 6.12054 19.1387 5.96672 19.1387Z" fill="#231F20"/>
<path d="M14.1129 20.2978C14.2667 20.2978 14.4142 20.2367 14.523 20.1279C14.6318 20.0191 14.6929 19.8716 14.6929 19.7178V7.24198L18.3718 10.7956C18.4264 10.8488 18.491 10.8906 18.5618 10.9186C18.6326 10.9467 18.7083 10.9605 18.7845 10.9592C18.8607 10.9579 18.9358 10.9416 19.0056 10.9111C19.0755 10.8806 19.1386 10.8367 19.1914 10.7817C19.2983 10.6711 19.3569 10.5226 19.3542 10.3688C19.3516 10.215 19.288 10.0685 19.1774 9.9616L14.5241 5.46602L14.5229 5.46486L14.5154 5.4579C14.4945 5.4376 14.4684 5.4289 14.4458 5.41266C14.4087 5.38598 14.3745 5.3564 14.3321 5.339C14.2662 5.31249 14.1961 5.29833 14.1251 5.29724C14.121 5.29724 14.1169 5.29492 14.1129 5.29492C14.1088 5.29492 14.1048 5.29724 14.1007 5.29724C14.0297 5.29838 13.9595 5.31254 13.8936 5.339C13.8513 5.3564 13.8171 5.38598 13.78 5.41208C13.7573 5.4289 13.7312 5.4376 13.7104 5.4579L13.7034 5.46428L13.7022 5.46544L9.0489 9.96102C8.94301 10.0689 8.88342 10.2138 8.88282 10.365C8.88221 10.5161 8.94063 10.6616 9.04564 10.7703C9.15066 10.879 9.29396 10.9424 9.44504 10.947C9.59612 10.9517 9.74304 10.8971 9.85452 10.7951L13.5335 7.2414V19.7172C13.5332 19.7934 13.548 19.8689 13.5771 19.9394C13.6061 20.0098 13.6487 20.0739 13.7026 20.1278C13.7564 20.1818 13.8204 20.2246 13.8908 20.2537C13.9612 20.2829 14.0367 20.2979 14.1129 20.2978Z" fill="#231F20"/>
</svg>
