<svg width="26" height="22" viewBox="0 0 26 22" fill="none" xmlns="http://www.w3.org/2000/svg">
<path d="M12.4508 21.8167L2.12259 11.8556C1.68309 11.4583 1.33777 11 1.02384 10.5111C-0.671366 7.79167 -0.231868 4.30833 2.12259 2.04722C3.47248 0.733334 5.29326 0 7.20821 0C10.2219 0 12.1055 1.71111 12.8903 2.68889C13.6751 1.71111 15.5587 0 18.5724 0C20.4873 0 22.3081 0.733334 23.658 2.04722C25.9811 4.30833 26.452 7.79167 24.7568 10.5111C24.4428 11 24.0975 11.4583 23.658 11.8556L13.3298 21.8167C13.0787 22.0611 12.7019 22.0611 12.4508 21.8167ZM7.20821 1.22222C5.60718 1.22222 4.13172 1.83333 3.00158 2.90278C1.08663 4.76667 0.709915 7.63889 2.0912 9.86944C2.34234 10.2667 2.65626 10.6639 3.00158 11L12.8903 20.5333L22.779 11C23.1243 10.6639 23.4383 10.2972 23.6894 9.86944C25.0707 7.60833 24.7254 4.73611 22.779 2.90278C21.6489 1.83333 20.142 1.22222 18.5724 1.22222C16.3121 1.22222 14.4285 2.41389 13.424 4.06389C13.1728 4.46111 12.5764 4.46111 12.3252 4.06389C11.3521 2.41389 9.46849 1.22222 7.20821 1.22222Z" fill="black"/>
</svg>
