<svg width="31" height="31" viewBox="0 0 31 31" fill="none" xmlns="http://www.w3.org/2000/svg">
<path d="M18.4062 25.187V19.3745C18.4062 19.1176 18.3042 18.8712 18.1225 18.6895C17.9408 18.5078 17.6944 18.4057 17.4375 18.4057H13.5625C13.3056 18.4057 13.0592 18.5078 12.8775 18.6895C12.6958 18.8712 12.5938 19.1176 12.5938 19.3745V25.187C12.5938 25.4439 12.4917 25.6903 12.31 25.872C12.1283 26.0537 11.8819 26.1557 11.625 26.1557H5.8125C5.55557 26.1557 5.30917 26.0537 5.12749 25.872C4.94581 25.6903 4.84375 25.4439 4.84375 25.187V13.9858C4.84592 13.8518 4.87489 13.7195 4.92896 13.5968C4.98303 13.4741 5.06111 13.3634 5.15859 13.2714L14.8461 4.46786C15.0247 4.30448 15.258 4.21387 15.5 4.21387C15.742 4.21387 15.9753 4.30448 16.1539 4.46786L25.8414 13.2714C25.9389 13.3634 26.017 13.4741 26.071 13.5968C26.1251 13.7195 26.1541 13.8518 26.1562 13.9858V25.187C26.1562 25.4439 26.0542 25.6903 25.8725 25.872C25.6908 26.0537 25.4444 26.1557 25.1875 26.1557H19.375C19.1181 26.1557 18.8717 26.0537 18.69 25.872C18.5083 25.6903 18.4062 25.4439 18.4062 25.187Z" stroke="#12470E" stroke-width="1.9375" stroke-linecap="round" stroke-linejoin="round"/>
</svg>
