<svg width="16" height="20" viewBox="0 0 16 20" fill="none" xmlns="http://www.w3.org/2000/svg">
<path d="M13.7126 7.85645H2.28404C1.49507 7.85645 0.855469 8.49605 0.855469 9.28502V17.8564C0.855469 18.6454 1.49507 19.285 2.28404 19.285H13.7126C14.5016 19.285 15.1412 18.6454 15.1412 17.8564V9.28502C15.1412 8.49605 14.5016 7.85645 13.7126 7.85645Z" stroke="#12470E" stroke-opacity="0.6" stroke-width="1.42857" stroke-linecap="round" stroke-linejoin="round"/>
<path d="M13 7.85672V5.71387C13 4.38778 12.4733 3.11601 11.5355 2.17834C10.5979 1.24065 9.32609 0.713867 8 0.713867C6.67391 0.713867 5.40214 1.24065 4.46447 2.17834C3.52679 3.11601 3 4.38778 3 5.71387V7.85672" stroke="#12470E" stroke-opacity="0.6" stroke-width="1.42857" stroke-linecap="round" stroke-linejoin="round"/>
<path d="M7.99944 14.285C8.39393 14.285 8.71373 13.9652 8.71373 13.5707C8.71373 13.1762 8.39393 12.8564 7.99944 12.8564C7.60496 12.8564 7.28516 13.1762 7.28516 13.5707C7.28516 13.9652 7.60496 14.285 7.99944 14.285Z" stroke="#12470E" stroke-opacity="0.6" stroke-width="1.42857" stroke-linecap="round" stroke-linejoin="round"/>
</svg>
