<svg width="23" height="23" viewBox="0 0 23 23" fill="none" xmlns="http://www.w3.org/2000/svg">
<g clip-path="url(#clip0_92_1237)">
<path d="M14.375 23H0.958333C0.383333 23 0 22.6167 0 22.0417V0.958333C0 0.383333 0.383333 0 0.958333 0H14.375C14.95 0 15.3333 0.383333 15.3333 0.958333V7.66667C15.3333 8.24167 14.95 8.625 14.375 8.625C13.8 8.625 13.4167 8.24167 13.4167 7.66667V1.91667H1.91667V21.0833H13.4167V15.3333C13.4167 14.7583 13.8 14.375 14.375 14.375C14.95 14.375 15.3333 14.7583 15.3333 15.3333V22.0417C15.3333 22.6167 14.95 23 14.375 23Z" fill="black"/>
<path d="M22.0404 12.4574H7.66536C7.09036 12.4574 6.70703 12.074 6.70703 11.499C6.70703 10.924 7.09036 10.5407 7.66536 10.5407H22.0404C22.6154 10.5407 22.9987 10.924 22.9987 11.499C22.9987 12.074 22.6154 12.4574 22.0404 12.4574Z" fill="black"/>
<path d="M22.0417 12.4593C21.7542 12.4593 21.5625 12.3635 21.3708 12.1718L17.5375 8.33847C17.1542 7.95514 17.1542 7.38014 17.5375 6.9968C17.9208 6.61347 18.4958 6.61347 18.8792 6.9968L22.7125 10.8301C23.0958 11.2135 23.0958 11.7885 22.7125 12.1718C22.5208 12.3635 22.3292 12.4593 22.0417 12.4593Z" fill="black"/>
<path d="M18.2083 16.2907C17.9208 16.2907 17.7292 16.1949 17.5375 16.0032C17.1542 15.6199 17.1542 15.0449 17.5375 14.6615L21.3708 10.8282C21.7542 10.4449 22.3292 10.4449 22.7125 10.8282C23.0958 11.2115 23.0958 11.7865 22.7125 12.1699L18.8792 16.0032C18.6875 16.1949 18.4958 16.2907 18.2083 16.2907Z" fill="black"/>
</g>
<defs>
<clipPath id="clip0_92_1237">
<rect width="23" height="23" fill="white"/>
</clipPath>
</defs>
</svg>
