<svg width="25" height="27" viewBox="0 0 25 27" fill="none" xmlns="http://www.w3.org/2000/svg">
<path d="M23.8405 23.8951C23.8709 24.1657 23.8435 24.4396 23.7604 24.699C23.6773 24.9582 23.5404 25.1969 23.3583 25.3994C23.1759 25.6015 22.9525 25.763 22.7034 25.8725C22.454 25.9822 22.1842 26.038 21.9119 26.0359H3.08905C2.81667 26.038 2.54696 25.9822 2.29766 25.8725C2.04835 25.763 1.8251 25.6015 1.64262 25.3994C1.46062 25.1969 1.32357 24.9582 1.24047 24.699C1.15737 24.4396 1.1301 24.1657 1.16048 23.8951L2.85762 8.67871H22.1433L23.8405 23.8951Z" stroke="#12470E" stroke-width="1.92857" stroke-linecap="round" stroke-linejoin="round"/>
<path d="M7.67969 8.67815V5.7853C7.67969 4.50658 8.18765 3.28022 9.09185 2.37602C9.99604 1.47184 11.2224 0.963867 12.5011 0.963867C13.7798 0.963867 15.0062 1.47184 15.9104 2.37602C16.8146 3.28022 17.3225 4.50658 17.3225 5.7853V8.67815" stroke="#12470E" stroke-width="1.92857" stroke-linecap="round" stroke-linejoin="round"/>
</svg>
