<svg width="26" height="26" viewBox="0 0 26 26" fill="none" xmlns="http://www.w3.org/2000/svg">
<path d="M22.9534 11.1436H3.04479C2.7792 11.1414 2.5162 11.1961 2.27355 11.3042C2.03091 11.4122 1.81428 11.571 1.63826 11.7699C1.46224 11.9688 1.33093 12.2032 1.25319 12.4572C1.17546 12.7111 1.1531 12.9788 1.18764 13.2422L2.54336 23.4564C2.60228 23.906 2.82367 24.3187 3.16578 24.6162C3.50788 24.9139 3.94706 25.076 4.4005 25.0721H21.5606C22.0139 25.076 22.4531 24.9139 22.7952 24.6162C23.1373 24.3187 23.3587 23.906 23.4177 23.4564L24.7734 13.2422C24.8074 12.9819 24.7861 12.7174 24.7105 12.466C24.6349 12.2147 24.5069 11.9822 24.335 11.7839C24.163 11.5856 23.9509 11.426 23.7128 11.3156C23.4747 11.2053 23.2158 11.1466 22.9534 11.1436Z" stroke="#12470E" stroke-width="1.85714" stroke-linecap="round" stroke-linejoin="round"/>
<path d="M8.35547 15.7861V20.429" stroke="#12470E" stroke-width="1.85714" stroke-linecap="round" stroke-linejoin="round"/>
<path d="M13 15.7861V20.429" stroke="#12470E" stroke-width="1.85714" stroke-linecap="round" stroke-linejoin="round"/>
<path d="M17.6406 15.7861V20.429" stroke="#12470E" stroke-width="1.85714" stroke-linecap="round" stroke-linejoin="round"/>
<path d="M17.6055 2.86035C18.7179 3.05255 19.7371 3.60282 20.5082 4.42748C21.2793 5.25213 21.7599 6.30606 21.8769 7.42892L22.2855 11.1432" stroke="#12470E" stroke-width="1.85714" stroke-linecap="round" stroke-linejoin="round"/>
<path d="M3.71484 11.1432L4.12342 7.42889C4.24807 6.31267 4.73204 5.26719 5.50244 4.4499C6.27283 3.63261 7.28793 3.08778 8.39484 2.89746" stroke="#12470E" stroke-width="1.85714" stroke-linecap="round" stroke-linejoin="round"/>
<path d="M17.6412 3.25014C17.6412 3.55499 17.5811 3.85687 17.4645 4.1385C17.3478 4.42016 17.1768 4.67607 16.9612 4.89163C16.7457 5.10721 16.4898 5.2782 16.2081 5.39486C15.9265 5.51153 15.6246 5.57157 15.3198 5.57157H10.6769C10.0612 5.57157 9.47076 5.32698 9.03541 4.89163C8.60005 4.45628 8.35547 3.86582 8.35547 3.25014C8.35547 2.63446 8.60005 2.044 9.03541 1.60864C9.47076 1.17329 10.0612 0.928711 10.6769 0.928711H15.3198C15.9354 0.928711 16.5259 1.17329 16.9612 1.60864C17.3966 2.044 17.6412 2.63446 17.6412 3.25014Z" stroke="#12470E" stroke-width="1.85714" stroke-linecap="round" stroke-linejoin="round"/>
</svg>
