<svg width="24" height="27" viewBox="0 0 24 27" fill="none" xmlns="http://www.w3.org/2000/svg">
<path d="M8.09602 3.375L8.92531 1.23429C9.06517 0.871838 9.31123 0.560078 9.63126 0.339837C9.95131 0.119598 10.3304 0.0011475 10.7189 0H12.3003C12.6888 0.0011475 13.0679 0.119598 13.3879 0.339837C13.708 0.560078 13.954 0.871838 14.0939 1.23429L14.9232 3.375L17.7388 4.995L20.0145 4.64786C20.3935 4.59642 20.7792 4.65879 21.1227 4.82706C21.466 4.99533 21.7516 5.26188 21.9431 5.59286L22.7145 6.94286C22.9122 7.2791 23.0034 7.66738 22.9758 8.05645C22.9483 8.44552 22.8034 8.8171 22.5602 9.12214L21.1524 10.9157V14.1557L22.5988 15.9493C22.842 16.2543 22.9868 16.6259 23.0144 17.015C23.042 17.404 22.9508 17.7923 22.7531 18.1286L21.9817 19.4786C21.7902 19.8095 21.5045 20.076 21.1612 20.2444C20.8178 20.4126 20.4321 20.4751 20.0531 20.4236L17.7774 20.0764L14.9617 21.6964L14.1324 23.8371C13.9926 24.1995 13.7465 24.5114 13.4265 24.7316C13.1065 24.9519 12.7274 25.0703 12.3389 25.0714H10.7189C10.3304 25.0703 9.95131 24.9519 9.63126 24.7316C9.31123 24.5114 9.06517 24.1995 8.92531 23.8371L8.09602 21.6964L5.28031 20.0764L3.00459 20.4236C2.62567 20.4751 2.23999 20.4126 1.89659 20.2444C1.55321 20.076 1.26759 19.8095 1.07602 19.4786L0.304592 18.1286C0.106913 17.7923 0.0158463 17.404 0.0433863 17.015C0.0709263 16.6259 0.215801 16.2543 0.458878 15.9493L1.86674 14.1557V10.9157L0.420306 9.12214C0.177229 8.8171 0.0323549 8.44552 0.00481493 8.05645C-0.0227251 7.66738 0.0683421 7.2791 0.266021 6.94286L1.03745 5.59286C1.22901 5.26188 1.51464 4.99533 1.85802 4.82706C2.20142 4.65879 2.58709 4.59642 2.96602 4.64786L5.24174 4.995L8.09602 3.375ZM7.65245 12.5357C7.65245 13.2986 7.87867 14.0443 8.30249 14.6786C8.72634 15.3129 9.32873 15.8073 10.0335 16.0993C10.7383 16.3912 11.5139 16.4676 12.2621 16.3187C13.0103 16.1699 13.6976 15.8026 14.237 15.2631C14.7764 14.7237 15.1438 14.0364 15.2926 13.2882C15.4414 12.54 15.3651 11.7645 15.0731 11.0596C14.7812 10.3548 14.2868 9.75244 13.6525 9.32862C13.0182 8.90479 12.2725 8.67857 11.5096 8.67857C10.4866 8.67857 9.50554 9.08494 8.78219 9.80831C8.05884 10.5317 7.65245 11.5127 7.65245 12.5357Z" stroke="#12470E" stroke-width="1.92857" stroke-linecap="round" stroke-linejoin="round"/>
</svg>
