<svg width="115" height="115" viewBox="0 0 115 115" fill="none" xmlns="http://www.w3.org/2000/svg">
<g clip-path="url(#clip0_110_1593)">
<path d="M83.9644 71.832C83.5814 72.4668 83.0399 72.991 82.393 73.3533C81.7461 73.7155 81.0162 73.9033 80.2748 73.8982C79.4725 73.9027 78.6859 73.6762 78.0089 73.2458L78.5165 73.5902C79.3244 74.0848 79.9488 74.8297 80.2946 75.7116C80.6404 76.5935 80.6888 77.5642 80.4325 78.4762C80.1762 79.3881 79.6291 80.1914 78.8744 80.764C78.1197 81.3366 77.1988 81.6471 76.2515 81.6484C75.6543 81.6501 75.0637 81.5232 74.5199 81.2765L74.5926 81.3484C75.5757 81.948 76.2804 82.9136 76.5517 84.0328C76.823 85.1519 76.6387 86.333 76.0394 87.3163L76.0243 87.3403C75.6383 87.9785 75.0925 88.5049 74.4407 88.8675C73.789 89.23 73.0538 89.4161 72.3081 89.4074C71.5407 89.4075 70.787 89.2042 70.1238 88.8181C70.8181 89.3863 71.3198 90.1555 71.5598 91.02C71.7999 91.8846 71.7667 92.8022 71.4648 93.6472C71.1629 94.4921 70.607 95.223 69.8734 95.7396C69.1397 96.2562 68.2643 96.5332 67.367 96.5327C66.5588 96.5357 65.7653 96.3161 65.0736 95.8981L44.9064 83.4892L33.4844 78.2952L29.6147 68.3146L23.2331 64.6889C23.3511 64.5442 23.4683 64.3809 23.5775 64.2176L38.8151 40.3236L41.8692 41.9824L51.9128 35.6914L60.3704 37.9307L56.9888 50.6122L82.5505 65.84C83.532 66.4476 84.2321 67.42 84.4972 68.5434C84.7623 69.6669 84.5707 70.8497 83.9644 71.832Z" fill="#FEDD8E"/>
<path d="M83.9644 71.8322C83.6495 72.3584 83.2235 72.8094 82.7163 73.1539C82.209 73.4984 81.6326 73.7279 81.0274 73.8266C81.1788 72.9664 81.0698 72.0807 80.7145 71.283C80.3591 70.4852 79.7737 69.8117 79.0331 69.3488L53.4811 54.1201L56.8627 41.4484L51.2241 40.9585L41.1716 47.2495L36.1586 44.498L38.8151 40.3265L41.8692 41.9854L51.9128 35.6943L60.3704 37.9336L56.9888 50.6151L82.5505 65.843C83.5312 66.4506 84.2309 67.4224 84.496 68.5452C84.761 69.668 84.5698 70.8502 83.9644 71.8322Z" fill="#FEE9B4"/>
<path d="M71.6273 92.9525C71.5304 93.4932 71.3371 94.0121 71.0566 94.4844C70.444 95.4576 69.4735 96.1511 68.3544 96.4156C67.2352 96.6801 66.057 96.4943 65.0736 95.8983L44.9064 83.4893L33.4844 78.2953L29.6147 68.3147L23.2331 64.689C23.3511 64.5443 23.4683 64.381 23.5775 64.2177L25.8434 60.6675L33.1312 64.8097L36.9929 74.7894L48.4141 79.9834L68.5918 92.388C69.2804 92.8057 70.071 93.0253 70.8764 93.0226C71.1281 93.0174 71.379 92.994 71.6273 92.9525Z" fill="#FDD367"/>
<path d="M91.4891 57.3923L82.5514 65.84L56.9897 50.6122L55.3308 55.6606C54.7295 57.4982 53.5961 59.1159 52.0743 60.3086C50.5525 61.5012 48.7108 62.2152 46.7827 62.3599L42.4133 62.4682L48.9945 45.6623L60.3793 37.9405H70.4681L75.7935 34.8589L91.4891 57.3923Z" fill="#FEE9B4"/>
<path d="M78.5716 38.8369L73.3598 41.8466H63.262L51.8862 49.5604L46.8821 62.3413C46.8513 62.3563 46.8169 62.3627 46.7827 62.3599L42.4133 62.4771L48.9945 45.6534L60.3704 37.9316H70.4681L75.7935 34.8589L78.5716 38.8369Z" fill="#FFF3D9"/>
<path d="M91.4891 57.3926L82.5691 65.8404L78.2547 63.2753L88.7066 53.395L91.4891 57.3926Z" fill="#FEDD8E"/>
<path d="M41.8585 78.2669L38.8941 83.3171C38.7134 83.6212 38.4196 83.8414 38.077 83.9296C37.7344 84.0177 37.3708 83.9666 37.0657 83.7875L32.0155 80.823C31.7123 80.6437 31.4926 80.3515 31.4044 80.0105C31.3163 79.6694 31.3669 79.3074 31.5451 79.0035L34.5095 73.9445C34.6889 73.6413 34.9811 73.4216 35.3221 73.3334C35.6631 73.2452 36.0252 73.2958 36.329 73.474L41.3881 76.4385C41.6923 76.6192 41.9125 76.913 42.0006 77.2556C42.0888 77.5982 42.0377 77.9618 41.8585 78.2669Z" fill="#FEE9B4"/>
<path d="M41.7634 78.3378L38.7996 83.3896C38.4266 84.0255 38.6396 84.8434 39.2755 85.2165L44.3273 88.1802C44.9632 88.5533 45.7811 88.3402 46.1542 87.7044L49.1179 82.6526C49.491 82.0167 49.2779 81.1988 48.642 80.8257L43.5902 77.8619C42.9543 77.4889 42.1364 77.702 41.7634 78.3378Z" fill="#FEE9B4"/>
<path d="M49.024 82.7265L46.0602 87.7783C45.6872 88.4142 45.9003 89.2321 46.5361 89.6052L51.5879 92.5689C52.2238 92.942 53.0417 92.7289 53.4148 92.093L56.3785 87.0412C56.7516 86.4053 56.5385 85.5874 55.9026 85.2144L50.8508 82.2506C50.215 81.8776 49.3971 82.0906 49.024 82.7265Z" fill="#FEE9B4"/>
<path d="M56.3215 87.0861L53.3582 92.1402C52.985 92.7766 53.1985 93.595 53.8349 93.9681L58.889 96.9314C59.5254 97.3046 60.3438 97.0912 60.7169 96.4547L63.6803 91.4006C64.0534 90.7642 63.84 89.9458 63.2036 89.5727L58.1495 86.6094C57.5131 86.2362 56.6947 86.4496 56.3215 87.0861Z" fill="#FEE9B4"/>
<path d="M39.0326 39.9797L23.5775 64.218C22.9348 65.2243 21.9191 65.9346 20.7534 66.193C19.5876 66.4514 18.367 66.2369 17.3592 65.5964L1.79498 55.6708L22.0908 23.8447L37.6542 33.7614C38.6597 34.4048 39.3694 35.4204 39.6277 36.5859C39.8861 37.7513 39.6721 38.9717 39.0326 39.9797Z" fill="#7BDE9E"/>
<path d="M39.0273 39.9776L36.1693 44.4687C36.4767 43.5203 36.4605 42.4967 36.1231 41.5585C35.7858 40.6203 35.1464 39.8208 34.3054 39.2853L18.6223 29.2914L22.0926 23.8418L37.6515 33.7647H37.6604C38.1583 34.0828 38.5886 34.4958 38.9268 34.9802C39.265 35.4646 39.5045 36.0108 39.6315 36.5878C39.7585 37.1648 39.7706 37.7611 39.6671 38.3427C39.5635 38.9244 39.3455 39.4799 39.0273 39.9776Z" fill="#A7E9BF"/>
<path d="M25.989 60.4361L23.5837 64.2171C22.9396 65.2228 21.9231 65.9323 20.757 66.1902C19.5908 66.448 18.37 66.2332 17.3619 65.5928L1.80298 55.6699L4.83843 50.9126L20.5216 60.9243C21.3595 61.4563 22.3496 61.6968 23.3382 61.6085C24.3268 61.5202 25.2586 61.1081 25.989 60.4361Z" fill="#50D27E"/>
<path d="M113.597 48.9536L98.4503 59.5049C97.4686 60.1851 96.2574 60.4487 95.0819 60.238C93.9063 60.0272 92.8621 59.3592 92.1779 58.3803L75.7527 34.7943C75.0725 33.8127 74.8088 32.6015 75.0196 31.4259C75.2304 30.2503 75.8983 29.2061 76.8773 28.5219L92.0235 17.9795L113.597 48.9536Z" fill="#7AD1F9"/>
<path d="M113.6 48.9596L98.4494 59.4949L98.4405 59.5038C97.9551 59.8413 97.4079 60.0798 96.8303 60.2058C96.2526 60.3318 95.6558 60.3427 95.074 60.2381C94.4921 60.1334 93.9365 59.9151 93.439 59.5957C92.9415 59.2764 92.5117 58.8621 92.1743 58.3766L89.13 54.0098C89.8745 54.7755 90.8667 55.252 91.9297 55.3544C92.9928 55.4568 94.0577 55.1785 94.9346 54.569L110.139 43.9893L113.6 48.9596Z" fill="#4CC3F7"/>
<path d="M95.2985 22.688L80.1035 33.2766C79.2267 33.8886 78.5973 34.7936 78.3287 35.8286C78.0602 36.8636 78.1703 37.9605 78.639 38.9215L75.7544 34.7855C75.0736 33.8072 74.809 32.5987 75.0187 31.4254C75.2284 30.2521 75.8953 29.2101 76.8728 28.5282L92.0234 17.9751L95.2985 22.688Z" fill="#A6E1FB"/>
<path d="M114.333 48.4377L92.7654 17.4556C92.628 17.2584 92.418 17.1237 92.1814 17.0811C92.0643 17.0596 91.944 17.0617 91.8277 17.0873C91.7115 17.1129 91.6014 17.1615 91.5042 17.2302L76.3615 27.7797C75.2961 28.5185 74.5325 29.6165 74.2107 30.8724C73.889 32.1284 74.0305 33.4583 74.6095 34.6184L70.2507 37.1328H60.4875L52.1205 34.9139C52.0135 34.887 51.9021 34.882 51.7931 34.899C51.684 34.9161 51.5796 34.955 51.4859 35.0133L41.8328 41.0487L40.023 40.0653C40.6472 38.8644 40.8001 37.4736 40.4519 36.1658C40.1036 34.8579 39.2793 33.7274 38.1405 32.9959L22.5772 23.0792C22.3744 22.9507 22.1291 22.9077 21.8947 22.9596C21.6604 23.0115 21.4561 23.154 21.3266 23.3561L1.03077 55.1822C0.901663 55.3849 0.858216 55.6304 0.909966 55.865C0.961716 56.0997 1.10444 56.3042 1.3068 56.4337L16.8746 66.3619C17.8877 67.0036 19.085 67.2913 20.279 67.18C21.4731 67.0687 22.5965 66.5647 23.4736 65.7468L28.9703 68.8773L31.98 76.6541L30.8475 78.5943C30.7038 78.8361 30.6098 79.1041 30.5707 79.3827C30.5317 79.6612 30.5486 79.9447 30.6202 80.2167C30.7641 80.7654 31.1192 81.2348 31.6081 81.5223L36.6672 84.4859C36.9938 84.6785 37.3665 84.7788 37.7456 84.7761C37.8095 84.7744 37.8733 84.7681 37.9364 84.7575C38.0987 85.2409 38.4299 85.6497 38.8692 85.9087L43.9185 88.8722C44.2445 89.0673 44.6171 89.1706 44.9969 89.1713C45.0599 89.1713 45.1327 89.1447 45.1966 89.1447C45.358 89.6294 45.6893 90.0392 46.1295 90.2985L51.1788 93.2621C51.5058 93.4555 51.8782 93.5587 52.2581 93.5612C52.3299 93.5612 52.3939 93.5434 52.4569 93.5434C52.6208 94.0269 52.9519 94.4361 53.3906 94.6973L58.4399 97.6608C58.7675 97.8509 59.1395 97.951 59.5183 97.9511C59.7022 97.9539 59.8855 97.9296 60.0624 97.8792C60.3348 97.8097 60.5905 97.6864 60.8146 97.5166C61.0386 97.3468 61.2265 97.1339 61.3671 96.8904L62.3736 95.1863L64.6581 96.5913C65.5888 97.1594 66.6751 97.4188 67.762 97.3325C68.8489 97.2463 69.8807 96.8187 70.7101 96.1109C71.5394 95.4032 72.1239 94.4514 72.3799 93.3916C72.636 92.3317 72.5506 91.2181 72.1358 90.2098C73.0483 90.2573 73.9564 90.0555 74.7629 89.6262C75.5694 89.1968 76.2439 88.556 76.7139 87.7725C77.0727 87.1991 77.3136 86.5598 77.4226 85.8922C77.5315 85.2246 77.5063 84.5419 77.3485 83.8841C77.2241 83.3745 77.0255 82.8858 76.7591 82.4339C77.4346 82.3644 78.0899 82.1627 78.6874 81.84C79.2849 81.5174 79.813 81.0803 80.2416 80.5535C80.6702 80.0268 80.9908 79.4208 81.1852 78.7702C81.3795 78.1195 81.4439 77.437 81.3745 76.7615C81.3517 76.5446 81.3155 76.3294 81.2662 76.1171C81.1514 75.6166 80.9585 75.1374 80.6946 74.697C82.0595 74.5783 83.3214 73.9228 84.2034 72.8744C85.0854 71.826 85.5153 70.4704 85.3987 69.1054C85.3783 68.8663 85.3409 68.6291 85.2868 68.3953C85.0542 67.3993 84.5324 66.4942 83.7868 65.7939L91.2885 58.7076L91.427 58.9064C91.8287 59.4915 92.3428 59.9908 92.9393 60.3752C93.5359 60.7597 94.203 61.0216 94.9017 61.1457C95.2239 61.2046 95.5506 61.2343 95.8781 61.2345C96.9807 61.2336 98.0562 60.8927 98.9579 60.2582L114.105 49.6962C114.302 49.5593 114.436 49.3499 114.479 49.1141C114.522 48.8782 114.469 48.635 114.333 48.4377ZM22.8115 63.7303C22.2975 64.5326 21.4869 65.0988 20.5567 65.3052C19.6265 65.5116 18.6524 65.3414 17.8474 64.8318L3.04642 55.3926L22.3677 25.0957L37.1651 34.5243C37.9683 35.0389 38.5352 35.8507 38.7417 36.782C38.9483 37.7134 38.7778 38.6886 38.2675 39.4946L22.8115 63.7303ZM38.1077 82.9797C38.0899 82.9975 38.0899 83.025 38.0713 83.0427C38.0165 83.0923 37.9518 83.1295 37.8814 83.1519C37.7429 83.1793 37.5993 83.16 37.4731 83.0969L32.4246 80.1395C32.3046 80.0655 32.2171 79.9488 32.1797 79.8129C32.1612 79.7463 32.1565 79.6766 32.1658 79.6081C32.1751 79.5396 32.1982 79.4737 32.2338 79.4144L35.1983 74.3553C35.2697 74.2345 35.386 74.1467 35.5218 74.1111C35.6576 74.0756 35.8019 74.095 35.9234 74.1653L40.9718 77.1218C41.0749 77.1839 41.1537 77.2794 41.195 77.3924C41.2364 77.5054 41.2378 77.6292 41.1991 77.7431C41.1502 77.7973 41.1076 77.8568 41.0721 77.9206L38.1077 82.9797ZM45.3688 87.3669C45.3502 87.3944 45.3502 87.4122 45.3324 87.4388C45.2748 87.4877 45.2064 87.5221 45.1327 87.5391C45.0661 87.5571 44.9964 87.5616 44.928 87.5523C44.8596 87.543 44.7937 87.5201 44.7342 87.485L39.6849 84.5205C39.564 84.4491 39.4763 84.3328 39.4407 84.197C39.4052 84.0612 39.4246 83.9169 39.495 83.7954L42.4585 78.7363C42.5333 78.619 42.6502 78.5349 42.7851 78.5011C42.8288 78.4861 42.8749 78.4798 42.9209 78.4824C43.015 78.479 43.1079 78.5044 43.1872 78.5552L48.2365 81.5197C48.339 81.581 48.4174 81.6755 48.4586 81.7876C48.4998 81.8997 48.5013 82.0226 48.4629 82.1356C48.4159 82.1914 48.3735 82.2507 48.3359 82.3132L45.3688 87.3669ZM52.6202 91.7541C52.6127 91.779 52.6035 91.8033 52.5927 91.8269C52.509 91.8937 52.4072 91.9337 52.3005 91.9418C52.1938 91.9499 52.0872 91.9256 51.9945 91.8722L46.946 88.9077C46.825 88.8364 46.7371 88.7202 46.7013 88.5844C46.6656 88.4486 46.685 88.3042 46.7552 88.1826L49.7196 83.1333C49.7535 83.0718 49.8001 83.0183 49.8563 82.9762C49.9124 82.9341 49.9769 82.9045 50.0454 82.8892C50.0902 82.8785 50.136 82.8723 50.1821 82.8705C50.2756 82.8713 50.3674 82.8964 50.4483 82.9433L55.4932 85.9087C55.6132 85.9823 55.7007 86.0987 55.7382 86.2344C55.7593 86.3309 55.7532 86.4314 55.7204 86.5246C55.6752 86.5885 55.6317 86.6427 55.5846 86.7021L52.6202 91.7541ZM62.9443 91.0219L59.9807 96.081C59.906 96.1985 59.7891 96.283 59.6541 96.3171C59.5875 96.3356 59.5178 96.3403 59.4493 96.331C59.3807 96.3217 59.3149 96.2985 59.2556 96.2629L54.2062 93.2985C54.146 93.2651 54.0933 93.2198 54.0511 93.1653C54.009 93.1108 53.9785 93.0483 53.9613 92.9816C53.9429 92.9133 53.9383 92.842 53.9477 92.7719C53.9572 92.7018 53.9805 92.6343 54.0163 92.5733L56.9825 87.5222C57.0292 87.4429 57.0954 87.3768 57.1747 87.3302C57.2541 87.2836 57.3441 87.2581 57.4361 87.256C57.5311 87.2586 57.6241 87.2835 57.7077 87.3288L62.757 90.2932C62.877 90.3668 62.9645 90.4832 63.002 90.6189C63.0205 90.6865 63.025 90.7571 63.015 90.8264C63.0051 90.8957 62.981 90.9623 62.9443 91.0219ZM83.2765 71.4148C83.0366 71.8079 82.7216 72.1499 82.3495 72.4212C81.9774 72.6926 81.5555 72.888 81.1079 72.9963C80.6603 73.1046 80.1957 73.1237 79.7407 73.0524C79.2857 72.9812 78.8492 72.821 78.4562 72.5811L78.4366 72.5695C78.4331 72.5662 78.4289 72.5636 78.4243 72.5621C78.4197 72.5606 78.4148 72.5601 78.41 72.5606L70.1779 67.6249C69.9951 67.5144 69.7759 67.481 69.5685 67.5321C69.3611 67.5832 69.1825 67.7146 69.072 67.8974C68.9615 68.0802 68.9281 68.2994 68.9792 68.5068C69.0303 68.7142 69.1617 68.8928 69.3445 69.0033L77.5934 73.9435C77.6003 73.944 77.6067 73.9472 77.6112 73.9523L78.1002 74.2692C78.902 74.7621 79.4752 75.5532 79.6939 76.4686C79.9126 77.3839 79.7588 78.3487 79.2665 79.1508L79.2541 79.1712C78.9389 79.6831 78.4975 80.1054 77.9722 80.3976C77.4468 80.6898 76.8552 80.842 76.2541 80.8398C75.7756 80.8406 75.3025 80.7386 74.8669 80.5407L65.1836 74.6242C64.9992 74.5145 64.7792 74.4815 64.5707 74.5323C64.3623 74.583 64.182 74.7136 64.0688 74.8958C63.9591 75.0787 63.926 75.2976 63.9769 75.5047C64.0278 75.7118 64.1584 75.8905 64.3404 76.0017L74.0308 81.9209C74.0749 81.965 74.1234 82.0045 74.1755 82.0389C74.9519 82.5345 75.505 83.3129 75.7175 84.2092C75.93 85.1055 75.7853 86.0493 75.314 86.8407C74.8427 87.6322 74.0818 88.2091 73.1926 88.4493C72.3033 88.6895 71.3555 88.5741 70.5498 88.1276L61.7478 82.5359C61.5713 82.4318 61.3617 82.3989 61.1618 82.444C60.9619 82.489 60.7866 82.6086 60.6719 82.7784C60.5571 82.9482 60.5114 83.1554 60.5441 83.3577C60.5768 83.5601 60.6854 83.7423 60.8479 83.8673L60.8869 83.8921L69.6347 89.4589C70.3185 90.0354 70.7595 90.8488 70.8695 91.7364C70.9796 92.6239 70.7505 93.5204 70.2282 94.2464C69.7059 94.9725 68.9288 95.4746 68.0523 95.6525C67.1758 95.8304 66.2645 95.6708 65.5004 95.2058L63.1928 93.7858L64.3351 91.8376C64.6216 91.3479 64.7023 90.7647 64.5595 90.2157C64.4168 89.6667 64.0622 89.1967 63.5736 88.9086L58.5251 85.9442C58.1348 85.7206 57.6852 85.6227 57.2373 85.6637C57.0803 85.182 56.7509 84.7752 56.3124 84.5214L51.2604 81.5596C50.87 81.3281 50.415 81.2294 49.9637 81.2783C49.8075 80.7961 49.4826 80.3864 49.0486 80.1244L44.0002 77.16C43.6147 76.9338 43.1663 76.8385 42.7221 76.8884C42.5604 76.4036 42.2288 75.9938 41.7884 75.7346L36.7391 72.7728C36.4973 72.6291 36.2292 72.535 35.9506 72.4962C35.6721 72.4573 35.3885 72.4744 35.1166 72.5464C34.568 72.6903 34.0986 73.0454 33.811 73.5343L33.0229 74.8763L30.3664 68.0234C30.3005 67.8494 30.1746 67.7046 30.0114 67.6152L24.4845 64.475L39.1772 41.4419L41.4795 42.6943C41.606 42.7614 41.7479 42.7941 41.891 42.7893C42.0342 42.7845 42.1735 42.7422 42.2952 42.6667L52.0486 36.5603L58.4665 38.2644L48.541 44.9922C48.4062 45.0829 48.3019 45.2122 48.2419 45.3632L41.6739 62.178C41.6252 62.301 41.6079 62.4341 41.6233 62.5655C41.6388 62.6969 41.6867 62.8223 41.7627 62.9306C41.8408 63.0375 41.9432 63.1245 42.0613 63.1843C42.1795 63.2441 42.3101 63.2752 42.4425 63.275L46.8475 63.1667C48.9346 63.0073 50.9277 62.2328 52.5748 60.941C54.2218 59.6492 55.449 57.8982 56.1012 55.9091L57.437 51.8086L82.1253 66.5332C82.5256 66.7786 82.8729 67.1011 83.1472 67.4821C83.4215 67.863 83.6172 68.2948 83.7229 68.7521C83.8298 69.2033 83.8453 69.6713 83.7687 70.1286C83.692 70.5858 83.5247 71.0232 83.2765 71.4148ZM82.4466 64.838L58.518 50.5927L64.7487 46.5898C64.9282 46.4728 65.0542 46.2895 65.0991 46.08C65.144 45.8705 65.1042 45.6517 64.9883 45.4714C64.8777 45.2933 64.7009 45.1663 64.4967 45.1184C64.2925 45.0704 64.0776 45.1055 63.8993 45.2158L63.8878 45.2229L63.8789 45.2318L56.6896 49.8826C56.5835 49.9258 56.4875 49.9907 56.408 50.0733C56.3285 50.1558 56.2672 50.2542 56.2281 50.3619L54.5684 55.4032C54.0224 57.0853 52.9896 58.5676 51.6009 59.6624C50.2121 60.7573 48.5298 61.4156 46.7667 61.554L43.607 61.6339L49.6602 46.1904L60.6215 38.7437H70.4646C70.6076 38.7444 70.7483 38.7077 70.8728 38.6372L75.4793 35.9745L90.3548 57.347L82.4466 64.838ZM97.9239 58.7555C97.5383 59.0253 97.1034 59.2164 96.644 59.318C96.1845 59.4196 95.7096 59.4298 95.2462 59.3479C94.7829 59.2659 94.3402 59.0936 93.9435 58.8405C93.5468 58.5875 93.2037 58.2589 92.934 57.8733L92.9225 57.8564L76.5026 34.2695C75.9579 33.4894 75.7455 32.5249 75.9119 31.5881C76.0784 30.6514 76.6101 29.8191 77.3902 29.2744L77.3982 29.269L91.8015 19.2396L112.33 48.7341L97.9239 58.7555Z" fill="#333333"/>
</g>
<defs>
<clipPath id="clip0_110_1593">
<rect width="113.608" height="113.608" fill="white" transform="translate(0.888794 0.703125)"/>
</clipPath>
</defs>
</svg>
