<svg width="105" height="104" viewBox="0 0 105 104" fill="none" xmlns="http://www.w3.org/2000/svg">
<g clip-path="url(#clip0_110_1480)">
<path d="M103.761 20.3952V93.8761H28.2961V0.813965H84.1799L103.761 20.3952Z" fill="#EDEDED"/>
<path d="M33.8616 0.813965H28.2961V93.8777H33.8616V0.813965Z" fill="#F7F7F7"/>
<path d="M103.761 20.3954V93.8779H98.1955V14.8296L103.761 20.3954Z" fill="#D3D8D9"/>
<path d="M94.4418 41.5495V85.7509H36.464V62.1094L54.9815 48.1454L70.3599 58.198C71.3991 58.8692 72.7701 58.732 73.6434 57.8588L91.9734 39.0742L94.4418 41.5495Z" fill="#A6E1FB"/>
<path d="M94.4415 41.5528V46.3139L91.9715 43.8439L73.6417 62.6289C72.7723 63.4983 71.3992 63.6364 70.3592 62.962L54.9788 52.9116L36.4619 66.8785V62.1091L54.9788 48.1422L70.3592 58.201C71.3992 58.8672 72.7723 58.7291 73.6417 57.8597L91.9715 39.0747L94.4415 41.5528Z" fill="#D3F0FD"/>
<path d="M94.4415 80.9897H36.4617V85.751H94.4415V80.9897Z" fill="#7AD1F9"/>
<path d="M84.7809 58.6318C84.3318 58.6318 83.9684 58.2684 83.9684 57.8193V54.5693C83.9684 54.1202 84.3318 53.7568 84.7809 53.7568C85.23 53.7568 85.5934 54.1202 85.5934 54.5693V57.8193C85.5934 58.2684 85.23 58.6318 84.7809 58.6318ZM75.1124 68.5437C74.6633 68.5437 74.2999 68.1803 74.2999 67.7312V64.4812C74.2999 64.0321 74.6633 63.6687 75.1124 63.6687C75.5615 63.6687 75.9249 64.0321 75.9249 64.4812V67.7312C75.9249 68.1803 75.5615 68.5437 75.1124 68.5437ZM65.4514 67.1789C65.0022 67.1789 64.6389 66.8155 64.6389 66.3664V63.1164C64.6389 62.6673 65.0022 62.3039 65.4514 62.3039C65.9005 62.3039 66.2639 62.6673 66.2639 63.1164V66.3664C66.2639 66.8155 65.9005 67.1789 65.4514 67.1789ZM55.7911 60.8583C55.342 60.8583 54.9786 60.4949 54.9786 60.0458V56.7958C54.9786 56.3467 55.342 55.9833 55.7911 55.9833C56.2402 55.9833 56.6036 56.3467 56.6036 56.7958V60.0458C56.6036 60.4949 56.2402 60.8583 55.7911 60.8583Z" fill="#4CC3F7"/>
<path d="M85.5936 66.0493V77.5787C85.5936 78.0256 85.228 78.3912 84.7811 78.3912C84.3342 78.3912 83.9686 78.0256 83.9686 77.5787V66.0493C83.9686 65.5943 84.3342 65.2368 84.7811 65.2368C85.228 65.2368 85.5936 65.5943 85.5936 66.0493ZM66.264 71.7449V77.5787C66.264 78.0256 65.8984 78.3912 65.4515 78.3912C65.0046 78.3912 64.639 78.0256 64.639 77.5787V71.7449C64.639 71.2981 65.0046 70.9324 65.4515 70.9324C65.8984 70.9324 66.264 71.2979 66.264 71.7449ZM46.9427 71.6231V77.5787C46.9427 78.0256 46.5771 78.3912 46.1302 78.3912C45.6834 78.3912 45.3177 78.0256 45.3177 77.5787V71.6231C45.3177 71.1762 45.6834 70.8106 46.1302 70.8106C46.5773 70.8106 46.9427 71.1762 46.9427 71.6231ZM56.6036 67.5281V77.5787C56.6036 78.0256 56.2377 78.3912 55.7911 78.3912C55.3442 78.3912 54.9786 78.0256 54.9786 77.5787V67.5281C54.9786 67.0812 55.3442 66.7156 55.7911 66.7156C56.2377 66.7156 56.6036 67.0812 56.6036 67.5281ZM75.9244 72.6549V77.5787C75.9244 78.0256 75.5588 78.3912 75.1119 78.3912C74.6652 78.3912 74.2994 78.0256 74.2994 77.5787V72.6549C74.2994 72.2081 74.6652 71.8424 75.1119 71.8424C75.559 71.8424 75.9244 72.2081 75.9244 72.6549Z" fill="#4CC3F7"/>
<path d="M46.1309 67C45.6817 67 45.3184 66.6366 45.3184 66.1875V62.9375C45.3184 62.4884 45.6817 62.125 46.1309 62.125C46.58 62.125 46.9434 62.4884 46.9434 62.9375V66.1875C46.9434 66.6366 46.58 67 46.1309 67Z" fill="#4CC3F7"/>
<path d="M96.927 44.0242L91.972 39.0779L73.6432 57.8602C72.7708 58.7327 71.4011 58.8722 70.3629 58.2005L54.9829 48.1419L33.9844 63.9759V57.4243L53.2902 42.8641C54.1714 42.1924 55.3841 42.1575 56.2999 42.7595L71.4445 52.6523L88.2641 35.3879L83.1868 30.3193H96.9093L96.927 44.0242Z" fill="#F96363"/>
<path d="M95.9843 30.3188L71.4423 55.4962L56.2983 45.6034C55.382 45.0013 54.1712 45.0348 53.2882 45.7104L33.9838 60.2656V57.4228L53.2882 42.861C54.1712 42.1921 55.382 42.1586 56.2983 42.7607L71.4421 52.6537L88.2649 35.3895L83.188 30.3193H95.9841V30.3188H95.9843Z" fill="#FB8A8A"/>
<path d="M103.763 20.391H84.1821V0.817871L103.763 20.391Z" fill="#7BDE9E"/>
<path d="M87.7165 4.35225V20.391H84.1821V0.817871L87.7165 4.35225Z" fill="#A7E9BF"/>
<path d="M54.8208 93.8007C54.8208 106.319 1.38593 106.319 1.38593 93.8007C1.38593 73.6985 13.3453 50.9785 28.1034 50.9785C42.8557 50.9785 54.8208 73.6983 54.8208 93.8007Z" fill="#FDDD8D"/>
<path d="M41.8275 79.1867C41.8275 86.7633 35.6841 92.9066 28.1007 92.9066C20.5241 92.9066 14.3808 86.7633 14.3808 79.1867C14.3808 71.6035 20.5241 65.46 28.1007 65.46C35.6841 65.4598 41.8275 71.6033 41.8275 79.1867Z" fill="#7BDE9E"/>
<path d="M39.4779 71.5045C37.1093 69.5724 34.0996 68.4207 30.8112 68.4207C23.2316 68.4207 17.0822 74.5608 17.0822 82.1404C17.0822 84.9829 17.9461 87.6302 19.423 89.813C16.3485 87.2957 14.3792 83.4688 14.3792 79.1865C14.3792 71.6069 20.5286 65.4575 28.0989 65.4575C32.8366 65.4573 37.0165 67.854 39.4779 71.5045Z" fill="#A7E9BF"/>
<path d="M41.8275 79.1778C41.8275 86.7576 35.6876 92.9068 28.1078 92.9068C23.3703 92.9068 19.1904 90.501 16.7196 86.8504C19.0791 88.7825 22.1073 89.9436 25.3955 89.9436C32.9844 89.9436 39.1245 83.8035 39.1245 76.2239C39.1245 73.3814 38.2606 70.7343 36.7837 68.5513C39.8582 71.0591 41.8275 74.8861 41.8275 79.1778Z" fill="#50D27E"/>
<path d="M30.6932 103.147C16.5309 103.58 1.38977 100.464 1.38977 93.7974C1.38977 73.7015 13.3473 50.9819 28.1001 50.9819C28.9743 50.9819 29.8338 51.0642 30.6859 51.221C17.1435 53.665 6.56133 74.8895 6.56133 93.7974C6.56133 99.6493 18.2496 102.766 30.6932 103.147Z" fill="#FEE8B3"/>
<path d="M54.8208 93.7974C54.8208 100.464 39.6796 103.58 25.5172 103.147C37.9529 102.766 49.6415 99.6491 49.6415 93.7974C49.6415 74.8897 39.0518 53.6648 25.5096 51.221C26.3615 51.064 27.2285 50.9819 28.1029 50.9819C42.8557 50.9819 54.8208 73.7013 54.8208 93.7974Z" fill="#FDDD8D"/>
<path d="M41.6284 37.5678L34.1203 52.7024C32.203 51.7461 30.1864 51.2255 28.1033 51.2255C25.9494 51.2255 23.8617 51.7841 21.8828 52.8019L14.5781 38.1737C17.5748 36.5879 21.3478 36.4553 24.7894 36.9099C29.1068 37.478 33.3627 38.8083 37.7036 38.5999C39.0721 38.5336 40.4828 38.2968 41.6284 37.5678Z" fill="#FDDD8D"/>
<path d="M18.3842 37.2831L25.4916 51.5051C24.2584 51.759 23.0478 52.2 21.8819 52.8055L14.5803 38.1724C16.0749 37.3877 17.7566 36.9543 19.498 36.7749C19.1167 36.9244 18.743 37.0962 18.3842 37.2831Z" fill="#FEE8B3"/>
<path d="M41.6284 37.6606L34.1177 52.8018C33.191 52.3385 32.2493 51.9797 31.2778 51.7331L37.7499 38.6919C39.1023 38.6249 40.4923 38.3856 41.6284 37.6606Z" fill="#FDDD8D"/>
<path d="M38.1026 51.1259C38.1026 51.8596 37.8013 52.5277 37.3195 53.0152C36.8375 53.497 36.1694 53.7982 35.4302 53.7982H20.7762C19.2976 53.7982 18.1039 52.599 18.1039 51.1259C18.1039 50.3866 18.4051 49.7185 18.8869 49.2367C19.3687 48.7492 20.037 48.4536 20.7762 48.4536H35.4298C36.9088 48.4538 38.1026 49.6476 38.1026 51.1259Z" fill="#B5927B"/>
<path d="M23.9519 53.7995H20.7758C19.2961 53.7995 18.1078 52.5962 18.1078 51.1241C18.1078 50.3843 18.4068 49.7191 18.8851 49.2407C19.3708 48.7475 20.0361 48.4561 20.776 48.4561H23.9523C23.2125 48.4561 22.54 48.7475 22.0614 49.2407C21.5833 49.7189 21.2767 50.3841 21.2767 51.1241C21.2763 52.5964 22.4723 53.7995 23.9519 53.7995Z" fill="#C4A896"/>
<path d="M38.1026 51.1241C38.1026 51.8566 37.8038 52.5291 37.3181 53.0148C36.8398 53.5007 36.1745 53.7995 35.4347 53.7995H32.2585C32.9983 53.7995 33.6635 53.5005 34.1492 53.0148C34.6275 52.5289 34.9265 51.8564 34.9265 51.1241C34.9265 49.6443 33.7385 48.4561 32.2587 48.4561H35.435C36.907 48.4561 38.1026 49.6443 38.1026 51.1241Z" fill="#9B7C6B"/>
<path d="M104.563 20.3468C104.559 20.2705 104.544 20.1969 104.518 20.1248C104.511 20.1037 104.506 20.0834 104.496 20.0627C104.463 19.9893 104.42 19.9213 104.365 19.8591C104.354 19.8463 104.349 19.8295 104.338 19.8171L84.7563 0.235828C84.7435 0.223641 84.7261 0.218359 84.7125 0.206984C84.6531 0.155391 84.5894 0.113141 84.5197 0.0810469C84.4937 0.0688594 84.4669 0.0619531 84.4397 0.0524062C84.3736 0.0300625 84.3068 0.0166562 84.2371 0.0117812C84.2172 0.0101562 84.1996 0 84.1793 0H28.2955C27.8486 0 27.483 0.365828 27.483 0.8125V36.5221C26.6256 36.3661 25.7627 36.2188 24.8992 36.1077C20.6336 35.5392 16.9367 36.0104 14.1988 37.4567C13.8088 37.6598 13.6542 38.139 13.8492 38.5373L18.7312 48.3157C18.5857 48.4226 18.4417 48.532 18.3127 48.6625C17.6542 49.321 17.2916 50.1963 17.2916 51.1262C17.2916 52.0307 17.6465 52.848 18.2134 53.468C7.77094 60.6186 0.572998 78.1887 0.572998 93.8035C0.572998 97.094 3.6605 99.7915 9.49425 101.62C14.418 103.155 21.0236 104 28.1005 104C41.2173 104 54.4369 101.111 55.5514 94.689H103.76C104.207 94.689 104.573 94.3233 104.573 93.8765V20.394C104.573 20.3779 104.564 20.3629 104.563 20.3468ZM84.994 2.7753L89.9911 7.77258L101.795 19.5815H84.994V2.7753ZM15.6772 38.5452C18.6184 37.2779 22.1528 37.3833 24.6797 37.7167C26.0934 37.9035 27.5315 38.1798 28.929 38.4398C31.789 38.9925 34.7465 39.5529 37.7447 39.4148C38.5653 39.3742 39.2965 39.2767 39.9547 39.1225L35.7142 47.6704C35.6188 47.6625 35.527 47.6415 35.4297 47.6415H20.7762C20.594 47.6415 20.4167 47.6667 20.2402 47.6938L15.6772 38.5452ZM88.8349 34.816L85.1542 31.1354H96.0986L96.1149 42.0635L92.548 38.505C92.3936 38.3506 92.1905 38.2694 91.9711 38.2694C91.9711 38.2694 91.9711 38.2694 91.963 38.2694C91.7517 38.2694 91.5405 38.3585 91.3861 38.5131L73.0642 57.2898C72.4711 57.8831 71.5205 57.9804 70.8055 57.5173L55.4251 47.4587C55.1407 47.2719 54.767 47.2881 54.4905 47.4912L42.0276 56.8904C41.1509 55.9916 40.2431 55.1649 39.3053 54.4247L53.7836 43.5096C54.3849 43.0465 55.2217 43.0223 55.8555 43.4365L71.0005 53.3329C71.3255 53.5442 71.7561 53.4954 72.0242 53.219L88.8428 35.9533C89.1599 35.6367 89.1517 35.1246 88.8349 34.816ZM93.6286 41.8846V84.9392H54.9077C53.2795 74.7689 49.0142 64.7455 43.1407 58.0913L55.0186 49.1404L69.9197 58.8825C71.2767 59.7598 73.0803 59.5729 74.2259 58.4275L91.979 40.2356L93.6286 41.8846ZM36.7461 52.4402C36.3931 52.7924 35.9257 52.986 35.4299 52.986H20.7764C19.7512 52.986 18.9166 52.1513 18.9166 51.1262C18.9166 50.6303 19.1102 50.1629 19.4648 49.8083C19.8108 49.4591 20.2765 49.2663 20.7764 49.2663H35.4299C36.455 49.2663 37.2897 50.101 37.2897 51.1262C37.2897 51.6189 37.0953 52.0871 36.7461 52.4402ZM28.1005 102.375C15.5472 102.375 2.198 99.3689 2.198 93.8035C2.198 78.6598 9.51862 61.0041 19.7395 54.4359C20.0691 54.5395 20.4126 54.611 20.776 54.611H34.2822C34.4553 56.4289 33.8863 59.2447 29.6765 61.4252C29.2784 61.6283 29.124 62.1158 29.3272 62.5138C29.4734 62.7981 29.7578 62.9525 30.0503 62.9525C30.1722 62.9525 30.3022 62.9283 30.424 62.8633C34.9578 60.5152 35.8922 57.379 35.9247 55.2502C37.1678 56.9077 38.1834 59.6215 35.9976 63.1073C35.762 63.4892 35.8757 63.9927 36.2576 64.2285C36.3876 64.3098 36.5338 64.3506 36.6882 64.3506C36.9563 64.3506 37.2163 64.2204 37.3707 63.9685C39.5868 60.4443 39.0424 57.5309 38.0055 55.5356C47.4118 62.8105 54.0109 79.4349 54.0109 93.8035C54.0111 99.3689 40.6618 102.375 28.1005 102.375ZM55.6254 93.064C55.5945 90.9192 55.432 88.7429 55.1442 86.564H94.4411C94.888 86.564 95.2536 86.1983 95.2536 85.7515V43.5035L96.3505 44.5985C96.5861 44.8342 96.9355 44.899 97.2361 44.7773C97.5449 44.6473 97.7397 44.3548 97.7397 44.0217L97.7234 30.3148C97.7234 29.8679 97.3578 29.5104 96.9109 29.5104H83.1878C82.8547 29.5104 82.5622 29.7054 82.4403 30.006C82.3101 30.3148 82.3834 30.6642 82.6109 30.8915L87.1203 35.3927L71.3334 51.6102L56.749 42.0796C55.5384 41.2833 53.9459 41.3402 52.8003 42.2177L38.1631 53.2606C38.6417 52.6472 38.9145 51.909 38.9145 51.1262C38.9145 49.8812 38.2531 48.7949 37.2685 48.1784L42.3597 37.9277C42.5222 37.6025 42.4409 37.2044 42.1728 36.9608C41.8965 36.7169 41.4984 36.6846 41.1897 36.8796C40.3365 37.424 39.2153 37.7165 37.6634 37.7894C34.8684 37.9196 32.1303 37.3994 29.2299 36.8469C29.1899 36.8394 29.148 36.8318 29.1078 36.8243V1.6252H83.3688V20.394C83.3688 20.8431 83.7322 21.2065 84.1813 21.2065H102.948V93.064H55.6254Z" fill="#333333"/>
<path d="M61.7851 30.2957H36.4636C36.0145 30.2957 35.6511 30.6591 35.6511 31.1082C35.6511 31.5573 36.0145 31.9207 36.4636 31.9207H61.7851C62.2342 31.9207 62.5976 31.5573 62.5976 31.1082C62.5976 30.6591 62.2342 30.2957 61.7851 30.2957ZM36.4638 9.75146H52.5732C53.0223 9.75146 53.3857 9.38807 53.3857 8.93896C53.3857 8.48986 53.0223 8.12646 52.5732 8.12646H36.4638C36.0147 8.12646 35.6513 8.48986 35.6513 8.93896C35.6513 9.38807 36.0147 9.75146 36.4638 9.75146ZM36.4638 17.1416H68.214C68.6632 17.1416 69.0265 16.7782 69.0265 16.3291C69.0265 15.8799 68.6632 15.5166 68.214 15.5166H36.4638C36.0147 15.5166 35.6513 15.8799 35.6513 16.3291C35.6513 16.7782 36.0147 17.1416 36.4638 17.1416ZM75.112 22.906H36.4638C36.0147 22.906 35.6513 23.2694 35.6513 23.7185C35.6513 24.1677 36.0147 24.531 36.4638 24.531H75.1124C75.5615 24.531 75.9249 24.1677 75.9249 23.7185C75.9247 23.2694 75.5611 22.906 75.112 22.906ZM28.1007 64.6474C20.0876 64.6474 13.5685 71.1696 13.5685 79.1867C13.5685 87.1998 20.0876 93.7189 28.1007 93.7189C36.1179 93.7189 42.64 87.1998 42.64 79.1867C42.64 71.1698 36.1179 64.6474 28.1007 64.6474ZM28.1007 92.0941C20.9834 92.0941 15.1935 86.3042 15.1935 79.1869C15.1935 72.0657 20.9834 66.2726 28.1007 66.2726C35.2219 66.2726 41.015 72.0655 41.015 79.1869C41.015 86.3042 35.2219 92.0941 28.1007 92.0941Z" fill="#333333"/>
<path d="M28.9164 78.4538V72.5232C29.6938 72.7436 30.3818 73.266 30.7724 74.0408C30.9739 74.4415 31.4612 74.6026 31.8634 74.4003C32.2641 74.1988 32.4252 73.7101 32.2229 73.3093C31.5461 71.9681 30.295 71.104 28.9166 70.8541V70.0942C28.9166 69.6451 28.5532 69.2817 28.1041 69.2817C27.655 69.2817 27.2916 69.6451 27.2916 70.0942V70.8474C26.8628 70.9234 26.4377 71.0595 26.0292 71.2646C23.7615 72.4072 22.8434 75.186 23.9854 77.4608C24.6518 78.7732 25.8758 79.6616 27.2916 79.9157V85.8464C27.2506 85.8344 27.2085 85.8318 27.1679 85.8181C26.4095 85.5683 25.7944 85.0373 25.4351 84.3248C25.2336 83.924 24.7455 83.7607 24.3441 83.9652C23.9433 84.1667 23.7822 84.6555 23.9846 85.0562C24.5385 86.1559 25.4881 86.9747 26.6577 87.3613C26.8667 87.4303 27.079 87.4775 27.2916 87.5163V88.2731C27.2916 88.7222 27.655 89.0856 28.1041 89.0856C28.5532 89.0856 28.9166 88.7222 28.9166 88.2731V87.5163C29.3493 87.4381 29.7744 87.3048 30.1782 87.1011C31.278 86.5472 32.0968 85.5976 32.4833 84.428C32.8696 83.2576 32.7776 82.0071 32.2223 80.905C31.5568 79.5948 30.333 78.708 28.9164 78.4538ZM25.4353 76.7279C24.6965 75.2552 25.2908 73.4558 26.7588 72.7162C26.9323 72.6292 27.1108 72.5644 27.2912 72.5139V78.258C26.4976 78.0338 25.8214 77.4884 25.4353 76.7279ZM29.4464 85.6504C29.2747 85.7367 29.0972 85.8037 28.9164 85.8553V80.1107C29.7106 80.3348 30.386 80.879 30.7724 81.6386C31.5126 83.1091 30.9182 84.9085 29.4464 85.6504Z" fill="#333333"/>
</g>
<defs>
<clipPath id="clip0_110_1480">
<rect width="104" height="104" fill="white" transform="translate(0.572998)"/>
</clipPath>
</defs>
</svg>
