<svg width="108" height="108" viewBox="0 0 108 108" fill="none" xmlns="http://www.w3.org/2000/svg">
<g clip-path="url(#clip0_110_1522)">
<path d="M91.8597 83.023C77.9289 90.7038 63.9984 90.7038 50.0674 83.023C50.0674 72.6437 59.4252 64.2344 70.9656 64.2344C82.5016 64.2342 91.8597 72.6435 91.8597 83.023Z" fill="#B5927B"/>
<path d="M91.8615 83.0232C91.6436 83.1406 91.4173 83.2663 91.1994 83.3753C88.8778 75.2706 80.6979 69.2867 70.9675 69.2867C61.2371 69.2867 53.0486 75.2708 50.727 83.3753C50.5092 83.2663 50.2829 83.1406 50.0648 83.0232C50.0648 72.6474 59.4267 64.2329 70.9675 64.2329C82.4999 64.2325 91.8615 72.6472 91.8615 83.0232Z" fill="#C6A08B"/>
<path d="M98.6671 81.4476L67.8832 100.188C65.9303 101.369 63.5835 101.721 61.3792 101.143L40.4851 95.6954C38.3062 95.1254 35.9929 95.4523 34.057 96.6089L31.9532 97.8578L21.1754 79.738L37.8787 70.0243C40.703 68.3815 44.0805 68.0044 47.1984 68.9766L67.8494 75.4636C69.7353 76.2347 70.942 78.0701 70.942 80.0816C70.942 80.2073 70.942 80.3247 70.9336 80.4504C70.7911 82.3111 69.6596 83.8447 68.1093 84.5906C69.7099 83.9452 87.0253 76.9637 94.6939 73.8041C96.7979 72.9408 99.2199 73.8628 100.217 75.9328L100.259 76.025C101.206 77.9691 100.519 80.3161 98.6671 81.4476Z" fill="#FEE8B3"/>
<path d="M70.9423 80.0813C70.9423 80.207 70.9423 80.3244 70.9339 80.4501C70.892 81.0033 70.7663 81.5227 70.5568 82.0088C70.0623 80.8189 69.1068 79.8299 67.8498 79.3186L47.1988 72.8316C44.0811 71.8596 40.7034 72.2365 37.879 73.8793L22.8767 82.6039L21.1755 79.7375L37.8788 70.0238C40.7032 68.3811 44.0807 68.0039 47.1986 68.9761L67.8496 75.4632C69.7354 76.2345 70.9423 78.0698 70.9423 80.0813Z" fill="#FFF4D9"/>
<path d="M98.6671 81.4474L67.8832 100.187C65.9303 101.369 63.5835 101.721 61.3792 101.143L40.4851 95.6952C38.3062 95.1253 35.9929 95.4521 34.057 96.6088L31.9533 97.8576L30.2518 94.9912L34.0568 92.7535C35.9929 91.5969 38.306 91.27 40.4849 91.8399L61.379 97.2877C63.5833 97.866 65.9301 97.514 67.883 96.3324L98.6669 77.5921C99.3456 77.1731 99.8739 76.5948 100.217 75.9326L100.259 76.0248C101.207 77.9689 100.519 80.3159 98.6671 81.4474Z" fill="#FDDD8D"/>
<path d="M7.87583 86.4211L19.2647 105.566C19.8206 106.502 21.0179 106.825 21.9659 106.298L31.4341 101.026C32.4229 100.474 32.7622 99.216 32.182 98.2433L20.7971 79.1024C20.2414 78.1666 19.0441 77.8438 18.0959 78.3709L8.62765 83.6385C7.63864 84.19 7.29961 85.4486 7.87583 86.4211Z" fill="#7AD1F9"/>
<path d="M23.2453 83.2663L23.2685 83.3055C23.2756 83.3011 23.283 83.2969 23.2903 83.2925L20.7981 79.1007C20.2449 78.162 19.0466 77.8435 18.0995 78.3715L8.62889 83.6349C7.63988 84.1881 7.29645 85.4453 7.87477 86.4173L10.1797 90.2895C9.81926 89.3676 10.188 88.2947 11.0765 87.8002L20.5385 82.5369C21.4852 82.0091 22.6837 82.3278 23.2453 83.2663Z" fill="#A6E1FB"/>
<path d="M16.8138 101.401L16.7905 101.362C16.7834 101.366 16.7761 101.371 16.7687 101.375L19.261 105.567C19.8141 106.505 21.0125 106.824 21.9596 106.296L31.4302 101.033C32.419 100.479 32.7626 99.2222 32.1843 98.2502L29.8794 94.3779C30.2398 95.2999 29.871 96.3727 28.9826 96.8672L19.5206 102.131C18.5737 102.659 17.3753 102.34 16.8138 101.401Z" fill="#4CC3F7"/>
<path d="M70.9631 60.5377C70.9631 60.5377 70.8677 52.369 75.8507 47.386C80.8337 42.403 89.0064 42.4938 89.0064 42.4938C89.0064 42.4938 89.0974 50.6667 84.1144 55.6497C79.1314 60.6329 70.9631 60.5377 70.9631 60.5377Z" fill="#7BDE9E"/>
<path d="M88.7355 45.6013C87.2939 45.6349 80.304 46.0372 75.8537 50.4875C72.8282 53.5046 71.6718 57.6951 71.2273 60.528C71.0513 60.5364 70.9593 60.5364 70.9593 60.5364C70.9593 60.5364 70.8672 52.3649 75.8537 47.3864C80.8323 42.3996 89.0037 42.4918 89.0037 42.4918C89.0037 42.4918 89.0205 43.7574 88.7355 45.6013Z" fill="#A7E9BF"/>
<path d="M71.2313 57.4282C72.6729 57.3947 79.6629 56.9924 84.1132 52.5421C87.1387 49.525 88.2951 45.3345 88.7395 42.5015C88.9155 42.4932 89.0075 42.4932 89.0075 42.4932C89.0075 42.4932 89.0997 50.6646 84.1132 55.6432C79.1346 60.63 70.9631 60.5378 70.9631 60.5378C70.9631 60.5378 70.9464 59.2719 71.2313 57.4282Z" fill="#50D27E"/>
<path d="M70.9601 54.337C70.9601 54.337 71.0554 46.1683 66.0724 41.1853C61.0895 36.2021 52.9167 36.2931 52.9167 36.2931C52.9167 36.2931 52.8258 44.466 57.8088 49.449C62.7917 54.432 70.9601 54.337 70.9601 54.337Z" fill="#7BDE9E"/>
<path d="M70.9591 54.3345C70.9591 54.3345 70.8669 54.3345 70.6909 54.3262C70.2467 51.4934 69.0903 47.3113 66.0729 44.2856C61.6226 39.8353 54.6245 39.433 53.1829 39.3995C52.898 37.5558 52.9147 36.2902 52.9147 36.2902C52.9147 36.2902 61.0862 36.198 66.0729 41.1847C71.0511 46.1714 70.9591 54.3345 70.9591 54.3345Z" fill="#A7E9BF"/>
<path d="M52.9144 36.29C52.9144 36.29 53.0066 36.29 53.1826 36.2984C53.6268 39.1311 54.7832 43.3133 57.8005 46.339C62.2509 50.7893 69.2489 51.1916 70.6905 51.2251C70.9755 53.0688 70.9587 54.3344 70.9587 54.3344C70.9587 54.3344 62.7873 54.4266 57.8005 49.4399C52.8224 44.4533 52.9144 36.29 52.9144 36.29Z" fill="#50D27E"/>
<path d="M54.1891 17.7189C54.1891 8.45779 61.6984 0.948242 70.9679 0.948242C80.2289 0.948242 87.7383 8.45758 87.7385 17.7189C87.7385 26.9883 80.2291 34.4978 70.9681 34.4978C61.6986 34.4981 54.1891 26.9883 54.1891 17.7189Z" fill="#FDDD8D"/>
<path d="M54.1895 17.7203C54.1895 8.45905 61.6988 0.949707 70.9682 0.949707C75.9384 0.949707 80.4053 3.11212 83.4727 6.54808C80.8579 4.85524 77.7402 3.87462 74.3962 3.87462C65.1268 3.87462 57.6175 11.3842 57.6175 20.6452C57.6175 24.9447 59.2351 28.8588 61.8836 31.8256C57.2573 28.8423 54.1897 23.6374 54.1895 17.7203Z" fill="#FEE8B3"/>
<path d="M87.7385 17.7274C87.7385 26.9887 80.2292 34.498 70.9597 34.498C65.9895 34.498 61.5227 32.3356 58.4553 28.8996C61.0701 30.5925 64.1877 31.5731 67.5317 31.5731C76.8012 31.5731 84.3105 24.0635 84.3105 14.8025C84.3105 10.503 82.6929 6.58889 80.0444 3.62207C84.6709 6.60565 87.7385 11.8101 87.7385 17.7274Z" fill="#FDD267"/>
<path d="M83.346 17.7261C83.346 24.562 77.8029 30.105 70.9607 30.105C64.1248 30.105 58.5818 24.562 58.5818 17.7261C58.5818 10.8839 64.1248 5.34082 70.9607 5.34082C77.8027 5.34082 83.346 10.8839 83.346 17.7261Z" fill="#FEE8B3"/>
<path d="M81.226 10.7945C79.0888 9.05135 76.3734 8.01206 73.4064 8.01206C66.5676 8.01206 61.019 13.552 61.019 20.3908C61.019 22.9555 61.7985 25.3442 63.1312 27.3137C60.3571 25.0425 58.5803 21.5893 58.5803 17.7257C58.5803 10.8869 64.1286 5.33838 70.9592 5.33838C75.2333 5.33838 79.0048 7.50079 81.226 10.7945Z" fill="#FFF4D9"/>
<path d="M83.346 17.7178C83.346 24.5569 77.8063 30.1052 70.9671 30.1052C66.6925 30.1052 62.9211 27.9346 60.6918 24.6407C62.8207 26.384 65.5529 27.4317 68.5199 27.4317C75.3671 27.4317 80.9072 21.8918 80.9072 15.0527C80.9072 12.488 80.1277 10.0995 78.7951 8.12988C81.5691 10.3927 83.346 13.8458 83.346 17.7178Z" fill="#FDDD8D"/>
<path d="M101.023 75.68L100.973 75.5687C99.7896 73.1117 96.893 71.9978 94.3754 73.0289C93.2783 73.4809 91.9836 74.0112 90.5663 74.5898C87.1791 68.1945 80.0809 63.7086 71.7981 63.4238V61.3511C74.0701 61.234 80.4285 60.5207 84.7078 56.2413C89.8804 51.0687 89.8494 42.8317 89.8455 42.4839C89.8406 42.0279 89.4723 41.6598 89.0163 41.6547C88.6775 41.6457 80.4348 41.617 75.2588 46.793C73.6573 48.3944 72.5569 50.2893 71.7983 52.1527V35.2934C81.1216 34.8517 88.5769 27.1534 88.5769 17.7266C88.5769 8.01313 80.6739 0.109863 70.9602 0.109863C61.2507 0.109863 53.3517 8.01292 53.3517 17.7266C53.3517 27.1532 60.803 34.8515 70.1221 35.2934V45.9431C69.3638 44.0824 68.2647 42.1911 66.6658 40.5922C61.489 35.4162 53.2446 35.4449 52.9083 35.4546C52.4523 35.4594 52.0842 35.8277 52.0792 36.2837C52.075 36.6315 52.0439 44.8677 57.2168 50.0412C61.4934 54.3178 67.8476 55.0323 70.1223 55.1499V63.4175C63.8243 63.6365 58.2121 66.2867 54.3924 70.3563L47.4492 68.175C44.1164 67.138 40.4742 67.5448 37.4582 69.2988L21.4649 78.5994C20.653 77.3271 19.0155 76.8995 17.6889 77.6372L8.21997 82.9056C7.54317 83.283 7.05851 83.9034 6.85631 84.6523C6.65411 85.4012 6.76055 86.1804 7.15511 86.8466C7.15511 86.8474 7.15595 86.8482 7.15595 86.8491L18.544 105.993C19.0777 106.892 20.0156 107.392 20.9855 107.392C21.4553 107.392 21.9324 107.275 22.3745 107.029L31.8434 101.757C32.5219 101.378 33.0066 100.757 33.2077 100.006C33.3739 99.3856 33.3165 98.7486 33.0701 98.169L34.4878 97.3279C36.241 96.2794 38.2953 95.9882 40.2752 96.5053L61.1673 101.952C61.9261 102.152 62.7053 102.25 63.4844 102.25C65.1697 102.25 66.8525 101.79 68.319 100.903L99.1034 82.1626C99.1042 82.1618 99.1042 82.1618 99.105 82.1618C101.335 80.8004 102.155 78.0035 101.023 75.68ZM76.4433 47.9781C80.1919 44.2287 85.9678 43.5035 88.1367 43.3643C87.9992 45.5307 87.2797 51.2986 83.5221 55.056C80.3761 58.202 75.8133 59.2138 73.1432 59.5411L74.824 57.8602L78.0352 57.8632H78.036C78.4985 57.8632 78.8733 57.4883 78.8742 57.0258C78.875 56.5626 78.4993 56.1877 78.0369 56.1869L76.4987 56.1854L81.4944 51.1896L84.7055 51.1926H84.7064C85.1688 51.1926 85.5437 50.8177 85.5445 50.3553C85.5454 49.892 85.1697 49.5171 84.7072 49.5163L83.1692 49.5148L84.4283 48.2557C84.7556 47.9284 84.7556 47.3979 84.4283 47.0706C84.101 46.7433 83.5705 46.7433 83.2432 47.0706L78.6474 51.6663V50.1277C78.6474 49.6644 78.2726 49.2896 77.8093 49.2896C77.346 49.2896 76.9712 49.6644 76.9712 50.1277V53.3426L71.9593 58.3545C72.2868 55.6848 73.2988 51.1228 76.4433 47.9781ZM55.0275 17.7268C55.0275 8.93739 62.1744 1.78636 70.9598 1.78636C79.7492 1.78636 86.9002 8.93718 86.9002 17.7268C86.9002 26.5122 79.7494 33.6599 70.9598 33.6599C62.1744 33.6599 55.0275 26.5122 55.0275 17.7268ZM53.7883 37.1646C55.9581 37.3046 61.7316 38.0298 65.48 41.7775C68.6251 44.9226 69.6368 49.4859 69.9637 52.1558L68.2865 50.4787V47.664C68.2865 47.2007 67.9117 46.8259 67.4484 46.8259C66.9851 46.8259 66.6102 47.2007 66.6102 47.664V48.8024L61.7346 43.9267L62.4589 41.726C62.6031 41.2864 62.364 40.8126 61.9244 40.6676C61.4848 40.5226 61.011 40.7617 60.866 41.2021L60.4063 42.5987L58.6791 40.8715C58.3518 40.5442 57.8213 40.5442 57.494 40.8715C57.1667 41.1988 57.1667 41.7293 57.494 42.0566L62.0855 46.6482H60.2808C59.8175 46.6482 59.4427 47.023 59.4427 47.4863C59.4427 47.9496 59.8175 48.3245 60.2808 48.3245H63.7618L68.7806 53.3433C66.1136 53.0191 61.5544 52.01 58.4008 48.8565C54.6535 45.1079 53.9283 39.3343 53.7883 37.1646ZM70.9654 65.0718C78.9004 65.0718 85.7595 69.2252 89.0094 75.2244C83.0676 77.645 75.6065 80.6606 71.3003 82.3987C71.558 81.8062 71.7202 81.1669 71.7709 80.5039C71.7799 80.36 71.7807 80.2256 71.7807 80.0809C71.7807 77.7016 70.3624 75.5851 68.1009 74.6635L56.1754 70.917C59.845 67.3289 65.1144 65.0718 70.9654 65.0718ZM31.5874 99.5727C31.5046 99.8822 31.3058 100.137 31.0267 100.293L21.5596 105.565C20.9998 105.874 20.3114 105.686 19.985 105.137L8.59609 85.9921C8.43495 85.7186 8.39137 85.3978 8.47497 85.09C8.55774 84.7814 8.75743 84.5253 9.03569 84.3707L18.5029 79.103C19.0611 78.7935 19.752 78.9818 20.0776 79.5302L31.4633 98.6725C31.6259 98.9458 31.6702 99.2651 31.5874 99.5727ZM98.2319 80.7308L67.4492 99.4705C65.6921 100.534 63.5581 100.848 61.5906 100.331L40.6976 94.8837C39.9355 94.6849 39.1548 94.5866 38.3749 94.5866C36.7158 94.5866 35.0642 95.031 33.6302 95.888L32.2453 96.7098L30.3323 93.4932L22.3288 80.036L38.3003 70.7481C40.9111 69.2307 44.064 68.8764 46.9474 69.7759L67.5318 76.2392C69.0943 76.8777 70.1043 78.3861 70.1043 80.0811C70.1043 80.1883 70.1051 80.2881 70.0986 80.3864C69.9848 81.8699 69.084 83.1904 67.7474 83.8338C67.7457 83.8347 67.7438 83.8345 67.7422 83.8353C67.7373 83.837 67.7315 83.8395 67.7258 83.8418C67.685 83.8573 67.6365 83.8779 67.6129 83.8894C67.603 83.8942 67.594 83.8992 67.585 83.904C66.895 84.1987 66.1396 84.3003 65.3891 84.197L49.8849 82.0559C49.4199 81.9816 49.0025 82.313 48.9403 82.7713C48.8764 83.2295 49.1974 83.6528 49.6557 83.7159L65.1598 85.8569C65.4282 85.8946 65.6967 85.9127 65.9636 85.9127C66.7992 85.9127 67.621 85.7341 68.3666 85.3905C68.3773 85.3863 68.3911 85.3806 68.4051 85.3741C68.4085 85.3727 68.4112 85.3706 68.4146 85.3693C68.4173 85.3683 68.4202 85.3689 68.4231 85.3677C68.6057 85.2939 87.031 77.8682 95.0126 74.5795C96.7069 73.883 98.6629 74.6375 99.4535 76.2769L99.5051 76.3916C100.268 77.9562 99.7198 79.8214 98.2319 80.7308Z" fill="#333333"/>
<path d="M84.1837 17.7261C84.1837 10.4353 78.2516 4.50293 70.9606 4.50293C63.6729 4.50293 57.7439 10.4351 57.7439 17.7261C57.7439 25.0146 63.6729 30.9434 70.9606 30.9434C78.2514 30.9436 84.1837 25.0144 84.1837 17.7261ZM59.4202 17.7261C59.4202 11.3594 64.597 6.17922 70.9606 6.17922C77.3273 6.17922 82.5075 11.3594 82.5075 17.7261C82.5075 24.0897 77.3273 29.2673 70.9606 29.2673C64.597 29.2673 59.4202 24.0895 59.4202 17.7261Z" fill="#333333"/>
<path d="M71.8018 25.9238V25.3281C72.1689 25.2545 72.5325 25.137 72.8822 24.9603C74.9832 23.9013 75.832 21.3312 74.772 19.2295C74.1717 18.0446 73.0756 17.2358 71.8018 16.98V11.8486C72.4202 12.0607 72.9601 12.5022 73.2767 13.1297C73.4846 13.5431 73.9873 13.7093 74.4022 13.5004C74.8156 13.2925 74.9817 12.7884 74.7728 12.375C74.1629 11.1634 73.0421 10.3857 71.8018 10.1342V9.52174C71.8018 9.05845 71.427 8.68359 70.9637 8.68359C70.5004 8.68359 70.1255 9.05845 70.1255 9.52174V10.1309C69.7584 10.204 69.3938 10.3085 69.0435 10.4841C66.9458 11.5417 66.097 14.1108 67.1537 16.2143C67.7565 17.4024 68.8532 18.212 70.1255 18.4674V23.5963C69.5072 23.3844 68.9666 22.9429 68.6489 22.3143C68.4402 21.9009 67.9369 21.7333 67.5235 21.9436C67.1101 22.1515 66.9439 22.6556 67.1529 23.0691C67.7653 24.2848 68.8853 25.0712 70.1255 25.322V25.924C70.1255 26.3873 70.5004 26.7621 70.9637 26.7621C71.427 26.7621 71.8018 26.3871 71.8018 25.9238ZM73.2767 19.9857C73.5877 20.6028 73.6392 21.3052 73.4224 21.9615C73.2055 22.6188 72.7456 23.1522 72.1277 23.4642C72.0214 23.5175 71.9114 23.551 71.8018 23.5885V18.7078C72.4313 18.9232 72.9645 19.3708 73.2767 19.9857ZM68.65 15.4589C68.0092 14.1837 68.5247 12.6229 69.7966 11.9821C69.9038 11.928 70.0151 11.8939 70.1255 11.856V16.74C69.4961 16.5242 68.9626 16.0756 68.65 15.4589Z" fill="#333333"/>
</g>
<defs>
<clipPath id="clip0_110_1522">
<rect width="107.282" height="107.282" fill="white" transform="translate(0.501282 0.110352)"/>
</clipPath>
</defs>
</svg>
