<svg width="107" height="106" viewBox="0 0 107 106" fill="none" xmlns="http://www.w3.org/2000/svg">
<path d="M21.4583 7.82653C12.5974 10.0252 7.39924 27.3893 13.847 33.8172L31.8173 15.8138C31.3619 15.5993 29.121 5.92516 21.4583 7.82653ZM16.001 31.6252C11.1813 26.8221 15.066 13.8429 21.6894 12.199C27.4167 10.778 29.092 18.0083 29.4348 18.169L16.001 31.6252Z" fill="#A1C8E5"/>
<path d="M58.4449 59.2663V50.4468C58.4449 49.5321 57.7034 48.7905 56.7886 48.7905H55.0694C54.1547 48.7905 53.4132 49.5321 53.4132 50.4468V59.2663C53.4132 60.181 54.1547 60.9226 55.0694 60.9226H56.7886C57.7034 60.9226 58.4449 60.181 58.4449 59.2663Z" fill="#EBF6FF"/>
<path d="M53.4115 51.9772L42.4679 51.7014C42.1439 51.6933 41.8294 51.5904 41.5633 51.4053C41.2972 51.2202 41.0913 50.9611 40.9711 50.6602C40.8508 50.3592 40.8215 50.0295 40.8868 49.7121C40.9521 49.3946 41.1091 49.1033 41.3383 48.8742L54.9428 35.2697C55.9953 34.2172 52.0865 28.6017 46.2118 22.727C40.3371 16.8522 34.7216 12.9435 33.669 13.9952L14.6155 33.0495C13.5922 34.0731 13.0173 35.4612 13.0173 36.9086C13.0173 38.356 13.5922 39.7441 14.6155 40.7677L28.0668 54.2156C29.5485 55.6973 31.3283 56.8471 33.2881 57.5886C35.2479 58.3302 37.343 58.6466 39.4345 58.5169L53.414 57.649L53.4115 51.9772Z" fill="#A1C8E5"/>
<path d="M40.9243 49.6046L40.1789 49.4763C22.5109 44.1456 20.448 32.2256 20.3892 27.2759L14.6155 33.0496C13.5922 34.0731 13.0173 35.4613 13.0173 36.9086C13.0173 38.356 13.5922 39.7441 14.6155 40.7677L28.0668 54.2156C29.5485 55.6973 31.3283 56.8471 33.2881 57.5886C35.2479 58.3302 37.343 58.6466 39.4345 58.5169L53.414 57.649V51.9772L42.4679 51.7014C42.2168 51.6949 41.9705 51.631 41.7478 51.5148C41.5251 51.3986 41.332 51.233 41.1831 51.0307C41.0341 50.8284 40.9334 50.5948 40.8886 50.3476C40.8437 50.1005 40.8559 49.8463 40.9243 49.6046Z" fill="#4B8FAA"/>
<path d="M54.9427 35.2707C55.9953 34.218 52.0864 28.6023 46.2118 22.7277C40.3372 16.8531 34.7215 12.9441 33.6688 13.9968C32.6161 15.0495 36.5251 20.6651 42.3997 26.5398C48.2743 32.4144 53.89 36.3233 54.9427 35.2707Z" fill="#4B8FAA"/>
<path d="M19.4841 91.1905C19.4841 91.1905 19.1595 85.7945 25.3224 84.3734C31.4853 82.9523 25.8946 92.6671 19.4841 91.1905Z" fill="#9DBF51"/>
<path d="M19.4783 91.1905C19.4783 91.1905 19.8037 85.7945 13.6408 84.3734C7.47793 82.9523 13.0678 92.6671 19.4783 91.1905Z" fill="#71AA4B"/>
<path d="M53.949 91.1905C53.949 91.1905 53.6244 85.7945 59.7873 84.3734C65.9502 82.9523 60.3595 92.6671 53.949 91.1905Z" fill="#9DBF51"/>
<path d="M53.9432 91.1905C53.9432 91.1905 54.2686 85.7945 48.1057 84.3734C41.9428 82.9523 47.5335 92.6671 53.9432 91.1905Z" fill="#71AA4B"/>
<path d="M88.1298 91.1905C88.1298 91.1905 87.8044 85.7945 93.9673 84.3734C100.13 82.9523 94.5395 92.6671 88.1298 91.1905Z" fill="#9DBF51"/>
<path d="M88.1232 91.1905C88.1232 91.1905 88.4487 85.7945 82.2858 84.3734C76.1229 82.9523 81.7135 92.6671 88.1232 91.1905Z" fill="#71AA4B"/>
<path d="M32.3482 47.3204C38.2742 47.3204 43.0782 42.5164 43.0782 36.5904C43.0782 30.6643 38.2742 25.8604 32.3482 25.8604C26.4222 25.8604 21.6182 30.6643 21.6182 36.5904C21.6182 42.5164 26.4222 47.3204 32.3482 47.3204Z" fill="white"/>
<path d="M104.619 99.0898H2.98865V104.15H104.619V99.0898Z" fill="#D58783"/>
<path d="M80.6568 76.7951C80.6568 49.009 62.4563 50.859 62.4563 50.859C62.4563 50.859 63.3291 53.9951 62.4563 60.0214C62.4563 60.0214 66.4205 60.2326 66.4205 80.9531L69.6337 79.3209C71.8428 78.1988 74.2374 77.4875 76.7009 77.2216L80.6568 76.7951Z" fill="#B5CEEA"/>
<path d="M28.9421 38.3531C28.9421 38.3531 32.5386 34.2953 37.9181 37.6583C43.2976 41.0213 32.4417 43.9471 28.9421 38.3531Z" fill="#9DBF51"/>
<path d="M29.116 38.3006C29.116 38.3006 32.1022 35.6506 29.6269 31.6938C27.1517 27.737 25.0027 35.7243 29.116 38.3006Z" fill="#71AA4B"/>
<path d="M53.4115 51.9771V59.2646C53.4115 59.7038 53.586 60.1251 53.8966 60.4357C54.2072 60.7463 54.6285 60.9208 55.0677 60.9208H56.7869C57.2262 60.9208 57.6475 60.7463 57.9581 60.4357C58.2687 60.1251 58.4432 59.7038 58.4432 59.2646V52.1079L53.4115 51.9771Z" fill="#D3DDE2"/>
<path d="M20.3892 27.2293L16.0002 31.625C11.4836 27.1233 14.6106 15.4451 20.472 12.6394L20.4977 8.13525C12.2314 11.2929 7.6361 27.6252 13.847 33.8179L20.3892 27.2649V27.2293Z" fill="#4B8FAA"/>
<path d="M104.616 98.2988H88.9521V92.1782C89.1244 92.1914 89.2966 92.2071 89.4672 92.2071C90.8607 92.1434 92.2199 91.7541 93.4358 91.0704C94.6517 90.3868 95.6906 89.4277 96.469 88.2702C97.5059 86.7514 97.7435 85.289 97.1059 84.3532C96.6976 83.7553 95.79 83.1392 93.7785 83.6021C92.5782 83.8095 91.4425 84.2931 90.4612 85.0147C89.4799 85.7363 88.6798 86.6762 88.124 87.7601C87.5682 86.6763 86.768 85.7365 85.7867 85.0149C84.8054 84.2933 83.6698 83.8096 82.4696 83.6021C80.4589 83.1392 79.5504 83.7553 79.1422 84.3532C78.5037 85.2873 78.7422 86.7548 79.779 88.2702C80.5575 89.4277 81.5963 90.3868 82.8122 91.0704C84.0281 91.7541 85.3873 92.1434 86.7808 92.2071C86.9514 92.2071 87.1236 92.1914 87.2959 92.1782V98.2988H54.6297V92.1707C54.85 92.1922 55.0694 92.2071 55.2864 92.2071C56.68 92.1435 58.0393 91.7543 59.2554 91.0706C60.4715 90.3869 61.5104 89.4278 62.289 88.2702C63.3258 86.7514 63.5635 85.289 62.9258 84.3532C62.5176 83.7553 61.6091 83.14 59.5984 83.6021C58.3981 83.8095 57.2625 84.2931 56.2812 85.0147C55.2999 85.7363 54.4997 86.6762 53.944 87.7601C53.3879 86.6763 52.5876 85.7365 51.6062 85.0149C50.6248 84.2933 49.4891 83.8096 48.2887 83.6021C46.278 83.1392 45.3696 83.7553 44.9621 84.3532C44.3237 85.2873 44.5622 86.7548 45.5981 88.2702C46.3768 89.4278 47.4157 90.3869 48.6318 91.0705C49.8478 91.7542 51.2072 92.1435 52.6008 92.2071C52.7242 92.2071 52.8492 92.1931 52.9734 92.1864V98.2988H20.3072V92.1782C20.4786 92.1914 20.6509 92.2071 20.8215 92.2071C22.2151 92.1435 23.5744 91.7543 24.7905 91.0706C26.0066 90.3869 27.0455 89.4278 27.8241 88.2702C28.8609 86.7514 29.0986 85.289 28.4609 84.3532C28.0518 83.7553 27.1434 83.14 25.1335 83.6021C23.9332 83.8095 22.7976 84.2931 21.8163 85.0147C20.835 85.7363 20.0348 86.6762 19.4791 87.7601C18.9232 86.6759 18.1228 85.7357 17.1412 85.0138C16.1596 84.2919 15.0236 83.808 13.823 83.6004C11.8115 83.1375 10.9038 83.7536 10.4956 84.3516C9.85793 85.2857 10.0956 86.7531 11.1324 88.2686C11.911 89.4261 12.95 90.3852 14.1661 91.0689C15.3821 91.7525 16.7414 92.1418 18.135 92.2055C18.3056 92.2055 18.4779 92.1898 18.6501 92.1765V98.2988H2.98615C2.76651 98.2988 2.55588 98.3861 2.40057 98.5414C2.24527 98.6967 2.15802 98.9073 2.15802 99.127C2.15802 99.3466 2.24527 99.5572 2.40057 99.7125C2.55588 99.8678 2.76651 99.9551 2.98615 99.9551H104.616C104.836 99.9551 105.046 99.8678 105.202 99.7125C105.357 99.5572 105.444 99.3466 105.444 99.127C105.444 98.9073 105.357 98.6967 105.202 98.5414C105.046 98.3861 104.836 98.2988 104.616 98.2988ZM94.1511 85.2145C95.0695 85.0008 95.6094 85.0969 95.7386 85.2848C95.8852 85.5002 95.843 86.248 95.101 87.3345C93.8878 89.1124 91.5243 90.7703 88.982 90.5261C89.1285 89.1895 89.9326 86.1875 94.1511 85.2145ZM81.1496 87.3345C80.4042 86.248 80.3661 85.5002 80.5127 85.2848C80.5897 85.1722 80.8142 85.0935 81.1752 85.0935C81.4857 85.0994 81.7946 85.14 82.0961 85.2145C86.3146 86.1867 87.1187 89.1895 87.2653 90.5261C84.7287 90.772 82.3603 89.1124 81.1496 87.3345ZM59.9744 85.2145C60.8928 85.0008 61.4327 85.0969 61.5619 85.2848C61.7085 85.5002 61.6663 86.248 60.9243 87.3336C59.7094 89.1141 57.3443 90.7753 54.7961 90.5252C54.9319 89.1895 55.7178 86.195 59.9711 85.2145H59.9744ZM25.5087 85.2145C26.4262 85.0008 26.9678 85.0969 27.0962 85.2848C27.2436 85.5002 27.2005 86.248 26.4593 87.3336C25.2453 89.1141 22.8769 90.7753 20.3312 90.5252C20.467 89.1895 21.2529 86.195 25.5053 85.2145H25.5087ZM12.498 87.3345C11.7527 86.248 11.7138 85.501 11.8612 85.2857C11.9382 85.173 12.1626 85.0944 12.5237 85.0944C12.8344 85.1003 13.1436 85.1408 13.4454 85.2153C17.6638 86.1875 18.4679 89.1903 18.6137 90.5269C16.0813 90.772 13.7153 89.1133 12.498 87.3345ZM46.9629 87.3345C46.2176 86.248 46.1787 85.501 46.3261 85.2857C46.4031 85.173 46.6275 85.0944 46.9886 85.0944C47.2993 85.1002 47.6085 85.1407 47.9103 85.2153C52.1287 86.1875 52.9328 89.1903 53.0794 90.5269C50.5495 90.772 48.1802 89.1133 46.9662 87.3345H46.9629ZM62.5358 51.7176C66.3464 51.5929 70.056 52.9561 72.8791 55.5187C77.4884 59.7032 79.8245 66.8731 79.8245 76.8297C79.8245 77.0493 79.9118 77.26 80.0671 77.4153C80.2224 77.5706 80.433 77.6578 80.6527 77.6578C80.8723 77.6578 81.0829 77.5706 81.2382 77.4153C81.3935 77.26 81.4808 77.0493 81.4808 76.8297C81.4808 66.3663 78.9509 58.7766 73.9631 54.2682C72.4021 52.8397 70.5744 51.7335 68.5848 51.0131C66.5953 50.2928 64.483 49.9724 62.3693 50.0705C62.156 50.0987 61.962 50.2088 61.8285 50.3775C61.6949 50.5462 61.6323 50.7602 61.6538 50.9743C61.6754 51.1884 61.7794 51.3857 61.9438 51.5245C62.1083 51.6632 62.3211 51.7325 62.5358 51.7176ZM62.3072 60.8717C62.525 60.9802 65.5899 62.8493 65.5899 80.9885C65.5899 81.2082 65.6772 81.4188 65.8325 81.5741C65.9878 81.7294 66.1984 81.8167 66.418 81.8167C66.6377 81.8167 66.8483 81.7294 67.0036 81.5741C67.1589 81.4188 67.2462 81.2082 67.2462 80.9885C67.2462 61.0307 63.6115 59.2917 62.4977 59.2296C62.2792 59.2209 62.066 59.2978 61.9035 59.444C61.7409 59.5901 61.6418 59.794 61.6273 60.0121C61.6165 60.2136 61.6795 60.4122 61.8047 60.5705C61.9299 60.7288 62.1086 60.8359 62.3072 60.8717Z" fill="#414456"/>
<path d="M68.4718 57.8738C68.2858 57.7749 68.0692 57.7507 67.866 57.8059C67.6627 57.8611 67.4882 57.9917 67.3778 58.1711C67.2674 58.3504 67.2296 58.5651 67.2719 58.7714C67.3142 58.9777 67.4335 59.1602 67.6056 59.2816C67.6511 59.3089 72.1437 62.1585 72.1437 70.2004C72.1437 70.4201 72.2309 70.6307 72.3862 70.786C72.5415 70.9413 72.7522 71.0285 72.9718 71.0285C73.1915 71.0285 73.4021 70.9413 73.5574 70.786C73.7127 70.6307 73.7999 70.4201 73.7999 70.2004C73.7999 61.2459 68.6896 58.0071 68.4718 57.8738ZM72.9718 72.9945C72.7522 72.9945 72.5415 73.0818 72.3862 73.2371C72.2309 73.3924 72.1437 73.603 72.1437 73.8226V76.466C72.1437 76.6857 72.2309 76.8963 72.3862 77.0516C72.5415 77.2069 72.7522 77.2941 72.9718 77.2941C73.1915 77.2941 73.4021 77.2069 73.5574 77.0516C73.7127 76.8963 73.7999 76.6857 73.7999 76.466V73.8226C73.7999 73.603 73.7127 73.3924 73.5574 73.2371C73.4021 73.0818 73.1915 72.9945 72.9718 72.9945ZM12.1866 36.9429C12.1842 37.7687 12.3457 38.5867 12.6617 39.3497C12.9777 40.1126 13.442 40.8052 14.0275 41.3875L27.4755 54.8354C30.4033 57.7623 34.3736 59.4069 38.5135 59.4075C38.8348 59.4075 39.1573 59.3975 39.4808 59.3777L52.5792 58.5653V59.3015C52.5792 59.9604 52.841 60.5923 53.3069 61.0582C53.7728 61.5241 54.4047 61.7859 55.0636 61.7859H56.7828C57.4417 61.7859 58.0736 61.5241 58.5395 61.0582C59.0054 60.5923 59.2672 59.9604 59.2672 59.3015V50.4819C59.2672 49.823 59.0054 49.1911 58.5395 48.7252C58.0736 48.2593 57.4417 47.9976 56.7828 47.9976H55.0636C54.4047 47.9976 53.7728 48.2593 53.3069 48.7252C52.841 49.1911 52.5792 49.823 52.5792 50.4819V51.1627L42.4844 50.9076C42.3224 50.9036 42.1651 50.8521 42.0321 50.7595C41.8991 50.667 41.7961 50.5375 41.736 50.387C41.6759 50.2365 41.6612 50.0717 41.6939 49.9129C41.7265 49.7542 41.805 49.6085 41.9196 49.494L55.5249 35.8904C57.9471 33.4681 46.4097 21.7932 46.0677 21.462C43.7503 19.154 41.254 17.0329 38.6021 15.1185C35.9571 13.2776 34.3191 12.6871 33.3725 13.2362C33.2665 13.2917 32.0724 14.4535 32.0724 14.4535C31.024 11.9393 28.0709 5.369 21.2562 7.05755C16.8034 8.16227 12.7762 13.0201 10.9983 19.4422C9.36188 25.3492 10.0964 30.8695 12.8971 34.0362C12.4285 34.9333 12.1847 35.9308 12.1866 36.9429ZM54.2355 50.4819C54.2355 50.2623 54.3227 50.0517 54.478 49.8964C54.6334 49.7411 54.844 49.6538 55.0636 49.6538H56.7828C57.0024 49.6538 57.2131 49.7411 57.3684 49.8964C57.5237 50.0517 57.6109 50.2623 57.6109 50.4819V59.3015C57.6109 59.5211 57.5237 59.7317 57.3684 59.8871C57.2131 60.0424 57.0024 60.1296 56.7828 60.1296H55.0636C54.844 60.1296 54.6334 60.0424 54.478 59.8871C54.3227 59.7317 54.2355 59.5211 54.2355 59.3015V50.4819ZM34.3191 14.6581C35.1191 13.8573 40.2178 17.6576 45.7058 23.1464C51.1938 28.6352 54.9941 33.729 54.1941 34.5331C53.3941 35.3372 48.2953 31.5295 42.8074 26.0415C37.3194 20.5535 33.5191 15.4547 34.3191 14.6581ZM33.0123 15.8597C34.4922 19.751 40.9027 26.2518 41.8136 27.1628C44.3415 29.7407 47.0818 32.1014 50.0054 34.2201C50.9635 34.923 51.9964 35.5179 53.0852 35.9939L40.7503 48.323C40.4068 48.6667 40.1715 49.1035 40.0738 49.5795C39.976 50.0555 40.0199 50.5497 40.2002 51.001C40.3804 51.4522 40.689 51.8407 41.0878 52.1184C41.4866 52.396 41.9581 52.5506 42.4438 52.563L52.5809 52.8197V56.9057L39.3781 57.7247C37.4036 57.8468 35.4257 57.5477 33.5756 56.8475C31.7254 56.1472 30.0453 55.0616 28.6464 53.6628L15.1985 40.2165C14.3304 39.3482 13.8428 38.1707 13.8428 36.9429C13.8428 35.7151 14.3304 34.5376 15.1985 33.6694L33.0123 15.8597ZM15.2656 21.2789C16.4581 16.9727 19.0567 13.743 21.8864 13.0408C22.2892 12.9378 22.703 12.8844 23.1187 12.8818C25.8896 12.8818 27.3645 15.4953 28.3549 17.8869L28.422 18.0468L16.0449 30.4421C14.5493 28.3801 14.242 24.9682 15.2656 21.2756V21.2789ZM12.5941 19.8885C14.2155 14.0362 17.7723 9.63136 21.6554 8.66825C22.2238 8.52299 22.8078 8.44762 23.3945 8.44383C27.2444 8.44383 29.2741 12.0321 30.6364 15.3173C30.6969 15.4614 30.749 15.5889 30.802 15.7032L29.7006 16.8054C28.8038 14.7194 26.5181 10.1862 21.4873 11.4284C18.087 12.2714 15.0188 15.9632 13.669 20.8318C12.4773 25.138 12.9518 29.1776 14.8838 31.638L13.8776 32.645C11.6608 29.8492 11.1597 25.0626 12.5941 19.8852V19.8885Z" fill="#414456"/>
<path d="M28.1595 38.6416C28.1779 38.7063 28.2041 38.7686 28.2373 38.8271C29.0194 39.9597 30.0743 40.8769 31.3046 41.4939C32.535 42.111 33.901 42.4079 35.2764 42.3574C35.8378 42.3585 36.3981 42.3075 36.95 42.205C38.762 41.8638 39.9686 40.9943 40.1797 39.8804C40.3147 39.1674 40.1069 38.0867 38.3537 36.9911C37.3444 36.2775 36.1812 35.8115 34.9584 35.6306C33.7356 35.4498 32.4873 35.5593 31.3147 35.9502C31.6097 34.3272 31.2549 32.6532 30.3267 31.2895C29.4539 29.8957 28.5636 29.7359 27.9732 29.8461C27.0482 30.0208 26.3616 30.9499 26.0884 32.3959C25.8636 33.5271 25.9363 34.6974 26.2994 35.7921C26.6624 36.8869 27.3033 37.8687 28.1595 38.6416ZM30.219 38.3501C31.3718 37.4847 33.9613 36.1969 37.4767 38.3948C38.2792 38.8975 38.5955 39.3488 38.5533 39.574C38.5044 39.8316 37.9438 40.3326 36.6486 40.5777C34.5402 40.9777 31.7064 40.475 30.0741 38.5323C30.1213 38.4743 30.1694 38.4138 30.219 38.3501ZM27.6684 33.0095C27.7976 31.9611 28.1653 31.5106 28.2696 31.475C28.3309 31.4816 28.5818 31.6232 28.9222 32.1681C30.4219 34.5697 29.5963 36.3692 28.9992 37.2064C28.4762 36.6519 28.0849 35.9866 27.8545 35.2599C27.6241 34.5333 27.5605 33.7641 27.6684 33.0095Z" fill="#414456"/>
<path d="M32.3456 48.1781C35.0186 48.176 37.6081 47.247 39.6729 45.5496C41.7377 43.8522 43.1501 41.4914 43.6693 38.8693C44.1886 36.2473 43.7826 33.5264 42.5206 31.1701C41.2586 28.8139 39.2186 26.9681 36.7482 25.9474C34.2778 24.9266 31.53 24.794 28.9728 25.5722C26.4156 26.3504 24.2074 27.9912 22.7244 30.215C21.2414 32.4388 20.5753 35.108 20.8398 37.7679C21.1042 40.4277 22.2827 42.9136 24.1745 44.8019C25.247 45.8751 26.521 46.7258 27.9232 47.3053C29.3255 47.8847 30.8284 48.1813 32.3456 48.1781ZM25.3438 29.6232C26.7287 28.2384 28.493 27.2953 30.4138 26.9133C32.3345 26.5313 34.3255 26.7274 36.1348 27.4768C37.9441 28.2263 39.4906 29.4954 40.5786 31.1238C41.6666 32.7521 42.2473 34.6666 42.2473 36.625C42.2473 38.5833 41.6666 40.4978 40.5786 42.1261C39.4906 43.7545 37.9441 45.0236 36.1348 45.7731C34.3255 46.5225 32.3345 46.7186 30.4138 46.3366C28.493 45.9546 26.7287 45.0115 25.3438 43.6267C24.4208 42.7093 23.6882 41.6183 23.1883 40.4167C22.6885 39.215 22.4311 37.9264 22.4311 36.625C22.4311 35.3235 22.6885 34.0349 23.1883 32.8332C23.6882 31.6316 24.4208 30.5406 25.3438 29.6232Z" fill="#414456"/>
</svg>
