<svg width="32" height="32" viewBox="0 0 32 32" fill="none" xmlns="http://www.w3.org/2000/svg">
<path d="M16.0031 11.0752C15.0291 11.0752 14.0769 11.364 13.2669 11.9052C12.457 12.4464 11.8258 13.2156 11.453 14.1155C11.0803 15.0154 10.9827 16.0057 11.1728 16.961C11.3628 17.9164 11.8319 18.7939 12.5206 19.4827C13.2094 20.1715 14.087 20.6405 15.0423 20.8306C15.9977 21.0206 16.9879 20.9231 17.8878 20.5503C18.7878 20.1775 19.5569 19.5463 20.0981 18.7364C20.6393 17.9265 20.9281 16.9743 20.9281 16.0002C20.9265 14.6945 20.4071 13.4427 19.4839 12.5194C18.5606 11.5962 17.3088 11.0768 16.0031 11.0752ZM16.0031 18.9252C15.4246 18.9252 14.8591 18.7536 14.3781 18.4322C13.8971 18.1108 13.5222 17.654 13.3008 17.1195C13.0794 16.5851 13.0215 15.997 13.1343 15.4296C13.2472 14.8622 13.5258 14.341 13.9348 13.9319C14.3439 13.5228 14.8651 13.2443 15.4325 13.1314C15.9999 13.0185 16.588 13.0765 17.1225 13.2978C17.6569 13.5192 18.1138 13.8941 18.4352 14.3752C18.7566 14.8562 18.9281 15.4217 18.9281 16.0002C18.9273 16.7757 18.6189 17.5192 18.0705 18.0676C17.5222 18.616 16.7786 18.9244 16.0031 18.9252Z" fill="#696969"/>
<path d="M29.2479 15.4996C29.0369 15.1346 23.9909 6.55957 15.9989 6.55957C8.00694 6.55957 2.96094 15.1346 2.74994 15.4996L2.46094 15.9996L2.74994 16.4996C2.96094 16.8646 8.00794 25.4396 15.9989 25.4396C23.9899 25.4396 29.0369 16.8646 29.2479 16.4996L29.5369 15.9996L29.2479 15.4996ZM15.9989 23.4396C10.1859 23.4396 5.95694 17.7396 4.79894 15.9986C5.95394 14.2536 10.1689 8.55957 15.9989 8.55957C21.8119 8.55957 26.0399 14.2596 27.1989 15.9996C26.0399 17.7436 21.8119 23.4396 15.9989 23.4396Z" fill="#696969"/>
</svg>
