<svg width="64" height="64" viewBox="0 0 64 64" fill="none" xmlns="http://www.w3.org/2000/svg">
<path d="M8.68137 36.2754C7.51317 36.2754 6.5625 37.2253 6.5625 38.3932C6.5625 39.561 7.51317 40.5109 8.68137 40.5109C9.84957 40.5109 10.8002 39.561 10.8002 38.3932C10.8002 37.2253 9.84957 36.2754 8.68137 36.2754ZM8.68137 39.011C8.34007 39.011 8.06248 38.7337 8.06248 38.3932C8.06248 38.0526 8.34007 37.7754 8.68137 37.7754C9.02268 37.7754 9.30026 38.0526 9.30026 38.3932C9.30026 38.7337 9.02268 39.011 8.68137 39.011ZM46.0938 45.3932C44.9256 45.3932 43.9756 46.3431 43.9756 47.5106C43.9756 48.6784 44.9256 49.6284 46.0938 49.6284C47.262 49.6284 48.2126 48.6784 48.2126 47.5106C48.2126 46.3431 47.262 45.3932 46.0938 45.3932ZM46.0938 48.1284C45.7532 48.1284 45.4756 47.8512 45.4756 47.5106C45.4756 47.17 45.7532 46.8932 46.0938 46.8932C46.4351 46.8932 46.7127 47.17 46.7127 47.5106C46.7127 47.8512 46.4351 48.1284 46.0938 48.1284ZM46.0938 58.7462C47.262 58.7462 48.2126 57.7962 48.2126 56.6284C48.2126 55.4606 47.262 54.5106 46.0938 54.5106C44.9256 54.5106 43.9756 55.4606 43.9756 56.6284C43.9756 57.7962 44.9256 58.7462 46.0938 58.7462ZM46.0938 56.0106C46.4351 56.0106 46.7127 56.2878 46.7127 56.6284C46.7127 56.969 46.4351 57.2462 46.0938 57.2462C45.7532 57.2462 45.4756 56.969 45.4756 56.6284C45.4756 56.2878 45.7532 56.0106 46.0938 56.0106ZM8.68137 45.3932C7.51317 45.3932 6.5625 46.3431 6.5625 47.5106C6.5625 48.6784 7.51317 49.6284 8.68137 49.6284C9.84957 49.6284 10.8002 48.6784 10.8002 47.5106C10.8002 46.3431 9.84957 45.3932 8.68137 45.3932ZM8.68137 48.1284C8.34007 48.1284 8.06248 47.8512 8.06248 47.5106C8.06248 47.17 8.34007 46.8932 8.68137 46.8932C9.02268 46.8932 9.30026 47.17 9.30026 47.5106C9.30026 47.8512 9.02268 48.1284 8.68137 48.1284ZM8.68137 58.7462C9.84957 58.7462 10.8002 57.7962 10.8002 56.6284C10.8002 55.4606 9.84957 54.5106 8.68137 54.5106C7.51317 54.5106 6.5625 55.4606 6.5625 56.6284C6.5625 57.7962 7.51317 58.7462 8.68137 58.7462ZM8.68137 56.0106C9.02268 56.0106 9.30026 56.2878 9.30026 56.6284C9.30026 56.969 9.02268 57.2462 8.68137 57.2462C8.34007 57.2462 8.06248 56.969 8.06248 56.6284C8.06248 56.2878 8.34007 56.0106 8.68137 56.0106ZM46.0938 40.5109C47.262 40.5109 48.2126 39.561 48.2126 38.3932C48.2126 37.2253 47.262 36.2754 46.0938 36.2754C44.9256 36.2754 43.9756 37.2253 43.9756 38.3932C43.9756 39.561 44.9256 40.5109 46.0938 40.5109ZM46.0938 37.7754C46.4351 37.7754 46.7127 38.0526 46.7127 38.3932C46.7127 38.7337 46.4351 39.011 46.0938 39.011C45.7532 39.011 45.4756 38.7337 45.4756 38.3932C45.4756 38.0526 45.7532 37.7754 46.0938 37.7754Z" fill="black"/>
<path d="M61.4397 6.00184C61.0706 5.61146 60.5769 5.40236 60.0452 5.41481C59.501 5.42653 58.9759 5.67921 58.636 6.07325L50.9303 13.8899L46.9167 3.49149C46.768 2.9528 46.4062 2.5042 45.9228 2.26067C45.4526 2.02337 44.8967 1.9981 44.3957 2.19073C43.3909 2.58659 42.8415 3.73941 43.1448 4.81533L43.3622 5.57598L38.2354 13.0077L32.8426 4.70144C32.5951 4.22976 32.1666 3.88443 31.6664 3.75443C31.1793 3.62809 30.652 3.71378 30.2155 4.00052C29.3593 4.58059 29.0905 5.77186 29.6032 6.71264L35.8739 18.2089C34.6032 18.8056 33.3099 20.0989 32.9163 22.835C32.8921 22.9088 32.8697 22.984 32.8697 23.066C32.8697 23.0839 32.8787 23.099 32.88 23.1166C32.8793 23.1224 32.8789 23.1285 32.8782 23.1343C31.1467 21.9053 29.0863 21.2313 26.9313 21.2313C24.9949 21.2313 23.1102 21.785 21.4851 22.7967V22.3094C21.4851 20.6794 20.853 19.1505 19.7054 18.0039C18.5511 16.8511 17.0211 16.2164 15.3973 16.2164C12.2311 16.2164 9.62231 18.6416 9.32926 21.7305C8.5822 21.2491 7.67428 21.0257 6.75043 21.1668L5.45845 21.3671C4.46677 21.5154 3.593 22.0399 2.99901 22.8433C2.40502 23.6464 2.1604 24.633 2.30981 25.6217L3.43846 33.0839H2.74999C2.33545 33.0839 2 33.4197 2 33.8339V42.9517V52.0692V61.187C2 61.6011 2.33545 61.937 2.74999 61.937H52.0253C52.4398 61.937 52.7753 61.6011 52.7753 61.187V52.0692V42.9517V33.8339C52.7753 33.4197 52.4398 33.0839 52.0253 33.0839H52.0088C52.2072 32.5172 52.399 31.959 52.5724 31.4265C52.5724 31.4265 52.5724 31.4266 52.5724 31.4265C52.5726 31.426 52.5728 31.4255 52.5729 31.4249C52.5732 31.424 52.5735 31.423 52.5739 31.4221C52.5739 31.422 52.5739 31.4221 52.5739 31.4221C53.1796 29.5968 53.6221 28.0883 53.8519 27.0594C53.9942 26.4271 54.0903 25.82 54.1403 25.254C54.1404 25.2529 54.1411 25.2521 54.1412 25.2511C54.4283 22.1723 53.3348 20.4917 52.1207 19.5784L61.45 8.91721C61.45 8.91647 61.4507 8.91611 61.4507 8.91574C62.1824 8.07566 62.1795 6.79797 61.4397 6.00184ZM3.49998 43.7017H51.2753V51.3192H3.49998V43.7017ZM51.2753 34.5839V42.2017H3.49998V34.5839H4.31003H11.0541H17.1404H17.6238H34.432H41.8235H50.9486H51.2753ZM12.9715 26.3149C13.5677 26.2252 14.1588 26.3724 14.6429 26.728C15.127 27.084 15.4427 27.6073 15.5313 28.202L16.2683 33.0839H11.6999L11.0658 28.8747C10.9935 28.3817 11.084 27.8862 11.3264 27.4419C11.6611 26.8431 12.2384 26.4368 12.9137 26.3215C12.9335 26.3201 12.9525 26.3179 12.9715 26.3149ZM41.2944 31.2274C41.2897 31.2767 41.2854 31.3299 41.2806 31.3795C41.235 31.8567 41.1914 32.3542 41.1493 32.8646C41.1431 32.94 41.136 33.0078 41.1299 33.0839H35.0816C35.0706 33.0079 35.0595 32.9325 35.0487 32.8561C34.9837 32.3978 34.9205 31.9343 34.8607 31.4668C34.854 31.4151 34.8469 31.3642 34.8403 31.3124C34.7736 30.784 34.7115 30.2533 34.653 29.7254C34.6475 29.6763 34.6426 29.6276 34.6371 29.5786H41.469C41.4619 29.6403 41.4555 29.711 41.4483 29.7735C41.3954 30.2399 41.3436 30.7201 41.2944 31.2274ZM42.408 23.8702C42.3552 24.0624 42.3076 24.2613 42.2593 24.47C42.2133 24.6741 42.1669 24.9025 42.1203 25.1443C42.1149 25.1721 42.1096 25.1981 42.1042 25.2264C42.0593 25.4631 42.0141 25.7179 41.9689 25.9869C41.962 26.0273 41.9552 26.068 41.9484 26.1092C41.9033 26.3819 41.8581 26.6678 41.8131 26.9698C41.8074 27.008 41.8017 27.0478 41.796 27.0865C41.7493 27.4039 41.7026 27.7324 41.6565 28.0786H34.4858C34.4767 27.9789 34.4666 27.8761 34.458 27.7785C34.4453 27.6322 34.4331 27.4879 34.4217 27.3464C34.4042 27.1294 34.389 26.9206 34.3749 26.7159C34.3658 26.5829 34.3562 26.4483 34.3485 26.3209C34.3356 26.1071 34.326 25.9069 34.3172 25.7104C34.3128 25.6127 34.307 25.5088 34.3037 25.4158C34.2937 25.1345 34.2877 24.8701 34.2877 24.6344C34.2877 24.3557 34.2972 24.0818 34.3155 23.816H42.4043C42.4058 23.8339 42.4065 23.8518 42.408 23.8702ZM52.3886 26.7317C52.1959 27.5923 51.8429 28.8205 51.3602 30.3095L48.7043 29.7163L43.1186 28.4685C43.1197 28.4602 43.1208 28.4517 43.1219 28.4434C43.1677 28.0954 43.2142 27.7611 43.2609 27.4397C43.2667 27.3992 43.2726 27.3589 43.2784 27.3189C43.3238 27.0106 43.3694 26.7162 43.4149 26.4383C43.4213 26.4 43.4275 26.3631 43.4337 26.3253C43.4797 26.0487 43.5254 25.7866 43.5707 25.5465C43.5747 25.5246 43.5787 25.5047 43.5829 25.4831C43.63 25.2355 43.6766 25.0054 43.7219 24.8036C43.7732 24.5802 43.8244 24.366 43.8911 24.1375C43.9175 24.0346 43.9453 23.9339 43.9746 23.8357L52.5695 25.7653C52.5233 26.0762 52.4625 26.3992 52.3886 26.7317ZM47.0379 18.4339C45.819 18.6878 44.4657 19.4385 43.4365 21.2625C42.8574 19.58 41.848 18.6859 40.8552 18.2184L44.87 10.8503L47.0379 18.4339ZM31.0468 5.24892C31.1427 5.18593 31.2313 5.19106 31.2892 5.20607C31.3822 5.23024 31.462 5.29835 31.5492 5.45802L37.5872 14.7641C37.7234 14.9739 37.9556 15.1021 38.2054 15.1057C38.4478 15.0984 38.6917 14.9882 38.8338 14.7816L43.8955 7.44432L43.9754 7.72099L44.2824 8.79466L39.3868 17.779C39.3609 17.7751 39.332 17.7767 39.3059 17.773C39.003 17.7301 38.6915 17.7043 38.3736 17.7038C38.3674 17.7038 38.3617 17.7025 38.3555 17.7025C38.3135 17.7025 38.2737 17.7107 38.2317 17.7115C37.9717 17.7163 37.7125 17.7339 37.4543 17.7679C37.4189 17.7726 37.3814 17.7705 37.3463 17.7757L30.9201 5.99415C30.778 5.73304 30.8402 5.38881 31.0468 5.24892ZM37.1287 19.3453C37.7302 19.1973 38.3968 19.1639 39.0043 19.2394C39.2076 19.2647 39.4049 19.3023 39.5918 19.3519C40.9402 19.6998 41.7935 20.6724 42.1853 22.316H34.5345C34.9271 20.6666 35.7826 19.691 37.1287 19.3453ZM32.7899 24.9644C32.7901 24.9785 32.7912 24.9963 32.7914 25.0106C32.7952 25.2255 32.8028 25.459 32.8135 25.7068C32.8157 25.7574 32.8179 25.8079 32.8203 25.8598C32.8322 26.1101 32.8472 26.3735 32.8655 26.6509C32.8694 26.7101 32.8737 26.7706 32.8779 26.8309C32.8978 27.1179 32.9203 27.4148 32.9465 27.7249C32.9505 27.7723 32.9551 27.8212 32.9592 27.8691C32.9877 28.1977 33.0188 28.5349 33.0539 28.8837C33.0546 28.8908 33.055 28.8973 33.0558 28.9044C33.1189 29.5273 33.1909 30.1596 33.2665 30.792C33.2805 30.9086 33.2938 31.0231 33.3082 31.1395C33.3837 31.7541 33.4639 32.3642 33.5486 32.9663C33.554 33.005 33.5586 33.0453 33.5641 33.0839H18.2472C18.2292 32.9811 18.2054 32.8807 18.191 32.7765C18.1788 32.6884 18.166 32.6005 18.1565 32.5115C18.1228 32.1968 18.0999 31.8784 18.0999 31.5546C18.0999 31.2301 18.1177 30.9079 18.1526 30.5892C18.3974 28.3582 19.4847 26.299 21.2214 24.8314C22.8115 23.4772 24.8396 22.7313 26.9313 22.7313C29.1051 22.7313 31.1735 23.5219 32.7899 24.9644ZM10.7999 22.3094C10.7999 19.7767 12.8624 17.7164 15.3973 17.7164C16.6212 17.7164 17.774 18.1954 18.6448 19.0652C19.5091 19.9283 19.9851 21.0804 19.9851 22.3094V23.9203C19.9124 23.9861 19.8527 24.0625 19.7821 24.1302C19.5801 24.3237 19.3858 24.5225 19.2016 24.7301C19.0984 24.8463 18.9978 24.9633 18.9004 25.0837C18.7241 25.3013 18.56 25.5265 18.4028 25.7568C18.3235 25.873 18.2403 25.9862 18.1658 26.1054C17.9772 26.4075 17.8064 26.719 17.6504 27.0384C17.6244 27.0915 17.5922 27.1414 17.5672 27.195C17.392 27.5701 17.2433 27.9569 17.1144 28.3512C17.1057 28.3782 17.0919 28.4032 17.0834 28.4303L17.0152 27.9786C16.8665 26.9873 16.3392 26.1139 15.5313 25.5195C15.3494 25.3857 15.1565 25.2743 14.9579 25.1765C14.8923 25.144 14.8239 25.1204 14.7567 25.092C14.6187 25.0339 14.4797 24.9815 14.3364 24.9405C14.2584 24.9182 14.1802 24.9005 14.1009 24.8834C13.9577 24.8524 13.8135 24.8308 13.667 24.8169C13.591 24.8097 13.5159 24.8013 13.4391 24.7988C13.3974 24.7974 13.3568 24.789 13.315 24.789C13.1437 24.789 12.9708 24.801 12.7972 24.8249C12.7745 24.826 12.7518 24.8285 12.7291 24.8318C12.5861 24.8536 12.4457 24.8834 12.3083 24.9204C12.2627 24.9327 12.2194 24.9505 12.1745 24.9644C12.0842 24.9924 11.9933 25.0193 11.906 25.0538C11.8548 25.074 11.8066 25.0998 11.7565 25.1222C11.6783 25.1572 11.5992 25.1903 11.5238 25.2304C11.4761 25.2558 11.4316 25.2863 11.3851 25.3137C11.3167 25.3541 11.2465 25.3918 11.1808 25.4364L11.0079 24.2975C10.9671 24.0597 10.9012 23.832 10.8229 23.6096C10.8133 23.5822 10.8102 23.5512 10.7999 23.5241V22.3094ZM3.79295 25.398C3.70359 24.8062 3.85008 24.2159 4.2053 23.7354C4.56125 23.2538 5.08492 22.9396 5.68477 22.8499L6.97894 22.6492C7.97796 22.4969 8.95719 23.0389 9.35929 23.9606C9.43619 24.1422 9.49332 24.3411 9.52774 24.5366L9.89322 26.954C9.86465 27.0157 9.84671 27.0804 9.82144 27.1431C9.79141 27.2183 9.76083 27.2928 9.73575 27.3693C9.69839 27.4826 9.67029 27.5976 9.64401 27.7134C9.62744 27.7863 9.60776 27.8583 9.59567 27.932C9.57425 28.0619 9.56482 28.1932 9.55722 28.325C9.55356 28.3866 9.54449 28.4474 9.54395 28.5093C9.5423 28.7038 9.55328 28.8993 9.58194 29.0952L10.1824 33.0839H4.95529L3.79295 25.398ZM51.2753 60.437H3.49998V52.8191H51.2753V60.437ZM42.6361 33.0839C42.64 33.0369 42.6436 32.9888 42.6476 32.9421C42.6874 32.4604 42.7287 31.9914 42.7717 31.5401C42.7747 31.5088 42.7775 31.4753 42.7805 31.4441C42.8266 30.9646 42.8747 30.5066 42.9241 30.0645C42.928 30.0304 42.932 29.9987 42.9358 29.9648L50.8871 31.741C50.7384 32.179 50.5824 32.6283 50.4206 33.0839H42.6361ZM44.5173 22.42C45.3222 20.72 46.4751 19.8679 48.0278 19.8221C48.4577 19.8071 48.8862 19.8518 49.3703 19.9613C49.8192 20.0557 50.2411 20.2066 50.6374 20.4168C51.9909 21.0998 52.6779 22.3888 52.6874 24.2543L44.5173 22.42ZM60.3199 7.93028L50.7816 18.8301C50.7274 18.8079 50.6707 18.7916 50.6157 18.7709C50.5574 18.7489 50.4992 18.7284 50.4402 18.7082C50.1953 18.6243 49.9466 18.5497 49.6911 18.4961C49.4231 18.4351 49.1647 18.3959 48.9094 18.3664C48.8533 18.36 48.7962 18.3536 48.7405 18.3486C48.6836 18.3435 48.6254 18.3341 48.569 18.3305L45.8108 8.67112L44.5891 4.40847C44.4931 4.0701 44.6535 3.70169 44.9399 3.58854C45.0739 3.5369 45.1816 3.5662 45.2475 3.60025C45.3552 3.65409 45.4343 3.75699 45.4944 3.96097L49.9496 15.5137C50.0412 15.7514 50.247 15.926 50.496 15.978C50.7487 16.0304 51.005 15.9517 51.183 15.7704L59.7369 7.0913C59.8335 6.97998 59.9544 6.91699 60.0774 6.91442C60.1463 6.9082 60.2539 6.93164 60.3455 7.02795C60.5616 7.26049 60.5498 7.66515 60.3199 7.93028Z" fill="black"/>
<path d="M29.7753 26.1723C29.9951 26.2891 30.2075 26.4195 30.4082 26.5601C30.5385 26.6516 30.6887 26.6956 30.8373 26.6956C31.0739 26.6956 31.3068 26.5843 31.4526 26.3759C31.6899 26.0364 31.6078 25.5688 31.268 25.3311C31.0183 25.1564 30.7539 24.9938 30.4814 24.8488C30.113 24.6533 29.6618 24.7924 29.4663 25.1579C29.2714 25.5234 29.4099 25.9775 29.7753 26.1723ZM20.0555 31.8474C20.0723 31.8488 20.0892 31.8492 20.106 31.8492C20.4971 31.8492 20.8275 31.5456 20.8538 31.1494C20.9644 29.4945 21.7232 27.9931 22.9925 26.9204C24.1973 25.8943 25.7888 25.378 27.3415 25.4805C27.7649 25.5076 28.1128 25.1938 28.1391 24.7807C28.1662 24.3676 27.8528 24.0106 27.4397 23.9835C25.4812 23.8549 23.5198 24.5009 22.022 25.7768C20.4642 27.0929 19.493 29.0148 19.3568 31.049C19.3297 31.4625 19.6417 31.8199 20.0555 31.8474ZM8.42908 25.5165L8.30905 24.7232C8.23508 24.2186 7.81321 23.8663 7.28367 23.8663C7.22362 23.8663 7.22362 23.8663 5.86719 24.0703L6.08984 25.5534C6.08984 25.5534 6.53075 25.4871 6.89916 25.4322L6.9453 25.7405C6.9453 25.7404 6.9453 25.7406 6.9453 25.7405L7.08299 26.6524C7.13939 27.0241 7.45945 27.2903 7.8242 27.2903C7.86155 27.2903 7.8989 27.2877 7.93699 27.2819C8.34641 27.22 8.62838 26.8377 8.56686 26.4283L8.42908 25.5165C8.42908 25.5166 8.42908 25.5164 8.42908 25.5165ZM12.872 28.9075L13.2199 31.2113C13.2763 31.583 13.5963 31.8492 13.9611 31.8492C13.9984 31.8492 14.0358 31.8466 14.0739 31.8408C14.4833 31.7789 14.7653 31.3966 14.7038 30.9872L14.3104 28.3878C14.2365 27.8817 13.8131 27.5283 13.2807 27.5283C12.8661 27.5283 12.5307 27.8642 12.5307 28.2783C12.5307 28.542 12.6669 28.7734 12.872 28.9075ZM15.4003 20.4521C15.8925 20.4521 16.359 20.647 16.7128 21C17.0599 21.3468 17.2511 21.8119 17.2511 22.3099C17.2511 22.7241 17.5865 23.0599 18.0011 23.0599C18.4156 23.0599 18.7511 22.7241 18.7511 22.3099C18.7511 21.4109 18.4039 20.569 17.7726 19.9383C17.1354 19.3022 16.2931 18.9521 15.4003 18.9521C14.9857 18.9521 14.6503 19.288 14.6503 19.7021C14.6503 20.1163 14.9857 20.4521 15.4003 20.4521Z" fill="black"/>
</svg>
