<svg width="26" height="26" viewBox="0 0 26 26" fill="none" xmlns="http://www.w3.org/2000/svg">
<path d="M2.26187 4.77476H23.7404C24.161 4.77476 24.5021 4.43371 24.5021 4.01304C24.5021 3.59237 24.161 3.25132 23.7404 3.25132H17.7916V2.77347C17.7916 1.69218 16.912 0.8125 15.8307 0.8125H10.1716C9.09027 0.8125 8.21059 1.69218 8.21059 2.77347V3.25132H2.26187C1.8412 3.25132 1.50015 3.59237 1.50015 4.01304C1.50015 4.43371 1.8412 4.77476 2.26187 4.77476ZM9.73403 2.77347C9.73403 2.53221 9.9303 2.33594 10.1716 2.33594H15.8307C16.0719 2.33594 16.2682 2.53221 16.2682 2.77347V3.25132H9.73403V2.77347ZM23.7406 5.96106H2.26172C1.84105 5.96106 1.5 6.3021 1.5 6.72278C1.5 7.14345 1.84105 7.4845 2.26172 7.4845H2.93696L4.97654 23.4746C5.10105 24.4511 5.93732 25.1874 6.92176 25.1874H19.0805C20.065 25.1874 20.9012 24.4511 21.0257 23.4746L23.0653 7.4845H23.7406C24.1613 7.4845 24.5023 7.14345 24.5023 6.72278C24.5023 6.3021 24.1612 5.96106 23.7406 5.96106ZM19.5145 23.2819C19.4863 23.5033 19.3038 23.664 19.0805 23.664H6.92176C6.69853 23.664 6.51597 23.5033 6.48773 23.2818L4.47273 7.48455H21.5295L19.5145 23.2819V23.2819ZM15.8186 20.5255L16.6315 10.4999C16.6656 10.0806 17.0337 9.76828 17.4523 9.80225C17.8716 9.83623 18.1839 10.2037 18.15 10.623L17.337 20.6487C17.3047 21.047 16.9714 21.3489 16.5786 21.3489C16.558 21.3489 16.5372 21.348 16.5162 21.3464C16.0969 21.3124 15.7846 20.9449 15.8185 20.5256L15.8186 20.5255ZM7.85228 10.623C7.81831 10.2037 8.13061 9.83623 8.54996 9.80225C8.96957 9.76767 9.33666 10.0806 9.37074 10.4999L10.1836 20.5255C10.2176 20.9448 9.90531 21.3123 9.48596 21.3463C9.46504 21.348 9.44422 21.3488 9.42355 21.3488C9.03081 21.3488 8.69748 21.047 8.66513 20.6486L7.85223 10.623L7.85228 10.623ZM12.2394 20.5871V10.5614C12.2394 10.1408 12.5805 9.79972 13.0011 9.79972C13.4218 9.79972 13.7629 10.1408 13.7629 10.5614V20.5871C13.7629 21.0077 13.4218 21.3488 13.0011 21.3488C12.5805 21.3488 12.2394 21.0078 12.2394 20.5871Z" fill="#CC0000"/>
</svg>
