<svg id="SvgjsSvg1001" width="288" height="288" xmlns="http://www.w3.org/2000/svg" version="1.1" xmlns:xlink="http://www.w3.org/1999/xlink" xmlns:svgjs="http://svgjs.com/svgjs"><defs id="SvgjsDefs1002"></defs><g id="SvgjsG1008"><svg xmlns="http://www.w3.org/2000/svg" enable-background="new 0 0 512 512" viewBox="0 0 512 512" width="288" height="288"><path fill="#000000" d="M331.24,57.25c-36.93,0-63.151,29.244-75.236,65.07c-12.098-35.872-38.363-65.07-75.245-65.07
			c-52.731,0-83.52,59.515-82.721,112.607c0.059,4.105,3.405,7.393,7.497,7.393c4.175,0,7.561-3.411,7.501-7.607
			c-0.65-47.62,25.931-97.393,67.723-97.393c41.321,0,68.384,48.959,67.723,97.393c-0.06,4.203,3.334,7.607,7.534,7.607
			c4.107,0,7.562-3.359,7.501-7.607c-0.65-47.62,25.931-97.393,67.723-97.393c41.321,0,68.384,48.959,67.723,97.393
			c-0.06,4.142,3.249,7.547,7.391,7.606c4.003,0.105,7.549-3.286,7.607-7.392C414.771,116.065,383.49,57.25,331.24,57.25z" class="svgShape color3a98ff-0 selectable"></path><path fill="#000000" d="M503.5,267.25h-15.117c-2.079-51.588-32.835-105-82.623-105c-36.647,0-63.076,29.016-75.243,64.991
			c-12.153-35.933-38.542-64.991-75.238-64.991c-22.554,0-43.599,11.802-59.259,33.231c-6.879,9.413-12.167,19.963-15.982,31.099
			c-3.814-11.135-9.102-21.685-15.982-31.099c-15.66-21.43-36.705-33.231-59.259-33.231c-22.553,0-43.599,11.802-59.258,33.231
			c-14.942,20.448-22.407,46.072-23.351,71.769H8.5c-4.143,0-7.5,3.357-7.5,7.5c0,20.194,0,63.236,0,75c0,4.143,3.357,7.5,7.5,7.5
			h22.702l16.094,91.302c0.632,3.585,3.746,6.198,7.386,6.198h105.774c3.737,0,6.904-2.752,7.427-6.452l9.101-64.529
			c0.323-2.291,2.312-4.019,4.625-4.019c2.314,0,4.303,1.728,4.626,4.019l9.1,64.528c0.522,3.701,3.689,6.453,7.427,6.453h105.774
			c3.711,0,6.864-2.715,7.417-6.385l9.723-64.639c0.346-2.305,2.289-3.977,4.717-3.977c2.313,0,4.302,1.728,4.625,4.02l9.101,64.528
			c0.522,3.7,3.689,6.452,7.427,6.452h105.774c3.64,0,6.754-2.613,7.386-6.198l16.094-91.302H503.5c4.143,0,7.5-3.357,7.5-7.5
			c0-20.194,0-63.236,0-75C511,270.607,507.643,267.25,503.5,267.25z M405.76,177.25c36.052,0,65.611,39.894,67.627,90H338.133
			C340.148,217.144,369.708,177.25,405.76,177.25z M255.279,177.25c36.052,0,65.611,39.894,67.627,90H187.651
			C189.667,217.144,219.228,177.25,255.279,177.25z M104.798,177.25c36.052,0,65.611,39.894,67.627,90H37.171
			C39.187,217.144,68.746,177.25,104.798,177.25z M16,282.25h480v22.5H16V282.25z M496,342.25h-21.496
			c-3.64,0-6.754,2.613-7.386,6.198l-16.094,91.302h-92.964l-8.19-58.075c-1.36-9.648-9.734-16.925-19.576-16.925
			c-9.813,0-17.994,7.043-19.453,16.746l-8.762,58.254h-92.802l-8.189-58.075c-1.36-9.648-9.734-16.925-19.479-16.925
			c-9.744,0-18.118,7.276-19.479,16.925l-8.19,58.075H60.976l-16.094-91.302c-0.632-3.585-3.746-6.198-7.386-6.198H16v-22.5h480
			V342.25z" class="svgShape color283954-1 selectable"></path></svg></g></svg>