<svg width="102" height="103" viewBox="0 0 102 103" fill="none" xmlns="http://www.w3.org/2000/svg">
<path d="M85.1109 71.6412C83.2211 69.9632 80.8805 68.8763 78.3792 68.515C78.4302 68.4589 78.4863 68.4079 78.5373 68.3518C81.5615 64.94 80.7506 59.4373 79.8785 55.5921C79.8341 55.3961 79.7515 55.2108 79.6354 55.0469C79.5193 54.8829 79.372 54.7434 79.202 54.6363C79.0319 54.5293 78.8425 54.4568 78.6444 54.423C78.4464 54.3893 78.2436 54.3949 78.0477 54.4395C77.8516 54.4836 77.6661 54.5661 77.5019 54.6821C77.3378 54.7981 77.1981 54.9454 77.091 55.1155C76.9839 55.2856 76.9115 55.4752 76.8779 55.6734C76.8443 55.8715 76.8501 56.0744 76.8951 56.2703C77.3133 58.1063 78.5832 63.6906 76.2525 66.3221C74.6206 68.1631 71.8973 69.1423 68.7711 69.0148C65.9815 68.8975 63.2021 67.9081 61.1774 66.3425C60.8469 66.0205 60.5014 65.7142 60.1422 65.4245C56.5264 61.7425 56.3173 55.8165 59.7903 51.8947C63.4214 47.7995 69.7044 47.4221 73.7995 51.0532C74.4319 51.6142 75.3958 51.5581 75.9567 50.9257C76.5177 50.2933 76.4616 49.3244 75.8293 48.7685C73.8858 47.0421 71.4669 45.9419 68.8884 45.6117C69.174 45.3567 69.4494 45.0813 69.7044 44.7957C72.0605 42.1387 73.2385 38.7269 73.0243 35.1877C72.8102 31.6484 71.2343 28.3998 68.5773 26.0437C64.6912 22.5962 58.245 21.0968 53.1095 22.7747C53.7368 21.5048 53.8388 20.3472 53.9102 19.5006C53.9255 19.3068 53.9408 19.1283 53.9612 18.96C54.0122 18.5877 54.3233 18.0318 54.6293 17.4913C55.3636 16.1908 56.3683 14.411 55.4044 12.2894C55.2362 11.9172 54.9251 11.6316 54.5426 11.4888C54.1601 11.346 53.7368 11.3613 53.3696 11.5347C52.4363 11.9682 48.6115 11.5908 46.7755 10.53C45.2099 9.62733 41.7369 8.78586 38.5954 10.173C37.4582 10.6779 36.0965 11.6061 35.0408 13.3298C33.0672 10.2699 30.5683 9.21424 28.1 8.59207C27.6818 8.49007 27.2432 8.56147 26.8811 8.80116C26.5241 9.03575 26.2793 9.41314 26.213 9.84152C26.0651 10.7748 25.9529 11.5857 25.8561 12.2894C25.545 14.5334 25.4022 15.5533 24.7545 16.4866C24.5243 16.8201 24.4358 17.2314 24.5084 17.6301C24.5811 18.0288 24.809 18.3824 25.1421 18.6132C25.4756 18.8435 25.8868 18.932 26.2856 18.8593C26.6843 18.7866 27.0378 18.5587 27.2687 18.2256C28.3295 16.6957 28.5386 15.1912 28.8853 12.7076C28.9159 12.5036 28.9414 12.2945 28.972 12.0701C31.0222 12.8912 32.5368 14.3396 33.7557 17.6392C33.8688 17.9502 34.0805 18.2158 34.3586 18.3953C34.6366 18.5749 34.9658 18.6586 35.2958 18.6336C35.6257 18.6113 35.9395 18.4824 36.1897 18.2662C36.4399 18.05 36.613 17.7584 36.683 17.4352C37.1777 15.1708 38.2384 13.6664 39.8245 12.9677C41.9613 12.0242 44.4398 12.7178 45.2354 13.1768C46.9795 14.1815 50.172 14.8853 52.5791 14.7476C52.4516 15.0841 52.2375 15.4819 51.957 15.9868C51.5133 16.7773 51.0492 17.5933 50.9217 18.552C50.8911 18.7662 50.8758 18.9957 50.8503 19.2405C50.7075 20.9234 50.5341 23.0144 45.419 25.1512C45.1144 25.2784 44.8592 25.5006 44.6913 25.7848C44.5235 26.0689 44.452 26.3997 44.4875 26.7278C44.5231 27.056 44.6638 27.3638 44.8887 27.6053C45.1135 27.8469 45.4105 28.0093 45.7352 28.0683C48.9022 28.6395 50.733 31.1486 51.5847 32.704C50.2485 33.0967 47.5201 33.8209 41.9664 35.0857C37.6061 36.0801 34.2504 35.8608 32.2614 34.4533C30.6244 33.2956 30.4204 31.6841 30.4153 31.6382C30.3837 31.2877 30.2328 30.9588 29.9877 30.7063C29.7426 30.4538 29.4183 30.2931 29.0689 30.251C26.9882 30.0062 25.5399 29.2515 24.7647 28.0122C23.7294 26.3446 23.9946 23.9629 24.5862 22.2953C24.8667 21.4997 24.4536 20.6226 23.658 20.3421C22.8625 20.0565 21.9853 20.4747 21.7048 21.2702C21.3427 22.2851 21.1285 23.3102 21.0418 24.3046L13.2289 29.894C13.0631 30.0113 12.9227 30.1606 12.8158 30.3332C12.7089 30.5058 12.6378 30.6981 12.6067 30.8987C12.5404 31.3016 12.6424 31.7198 12.8872 32.0462C12.9076 32.0768 14.8761 34.7338 16.1613 36.5289C14.0551 45.6423 16.146 55.1382 17.732 60.3502C17.5076 60.5695 17.2832 60.799 17.0741 61.0387C15.2127 63.1398 14.0755 65.7203 13.795 68.5099C13.7545 68.9135 13.8756 69.3167 14.1317 69.6312C14.3879 69.9457 14.7583 70.1458 15.1617 70.1878C15.9981 70.2796 16.7529 69.6574 16.8396 68.821C17.0537 66.6791 17.9258 64.6902 19.364 63.0735C21.1744 61.0285 23.6733 59.8147 26.4017 59.6515C28.8802 59.4985 31.2823 60.2533 33.2355 61.7578C33.4038 61.926 33.5772 62.0892 33.7608 62.2473C33.9393 62.4054 34.1229 62.5584 34.3116 62.7114C36.1781 64.5933 37.5551 67.2758 38.0446 70.045C38.5954 73.1967 37.9681 75.9812 36.2699 77.8936C34.587 79.7958 31.7922 80.8107 28.5845 80.6832C25.4634 80.5608 22.3423 79.3726 20.236 77.5009C19.1382 76.5318 18.2631 75.3366 17.6708 73.9973C17.5897 73.8133 17.473 73.6471 17.3275 73.5083C17.182 73.3694 17.0106 73.2607 16.823 73.1882C16.6354 73.1157 16.4353 73.0809 16.2342 73.0859C16.0332 73.0909 15.8351 73.1354 15.6513 73.2171C14.8761 73.5588 14.5293 74.4614 14.871 75.2366C15.6387 76.979 16.7768 78.5331 18.2063 79.7907C20.8684 82.152 24.6066 83.5901 28.4672 83.7431C28.6814 83.7533 28.9006 83.7584 29.1148 83.7584C32.9703 83.7584 36.3923 82.3815 38.5648 79.9284C38.8963 79.5562 39.1972 79.1584 39.4675 78.7402C40.0948 81.2595 41.4615 83.534 43.4505 85.2986C46.0514 87.6037 49.7079 89.0163 53.492 89.1744C53.7164 89.1846 53.9408 89.1897 54.1601 89.1897C57.9289 89.1897 61.2641 87.8485 63.3857 85.4566C63.5948 85.2221 63.7835 84.9773 63.9671 84.7274C64.6147 87.1651 65.9662 89.3631 67.8939 91.0767C70.6478 93.5195 74.7073 94.9678 78.6444 94.9678C82.1326 94.9678 85.5291 93.8306 87.8291 91.2348C92.6995 85.7218 90.4148 76.3433 85.1109 71.6412ZM67.5165 71.9829C66.7948 72.6722 66.1548 73.4422 65.6092 74.2778C65.3746 73.3038 65.0482 72.3501 64.6453 71.427C65.5735 71.6922 66.5374 71.8758 67.5165 71.9829ZM35.816 59.9167C35.6375 59.7586 35.4488 59.6005 35.2652 59.4526C33.5342 57.7009 32.5007 55.3784 32.3583 52.9198C32.2748 51.5795 32.4576 50.236 32.8961 48.9668C33.3347 47.6976 34.0203 46.5278 34.9133 45.525C36.9329 43.2505 39.7429 42.0877 42.5682 42.0877C44.9804 42.0877 47.4028 42.9343 49.3459 44.658C53.5022 48.3401 55.5268 56.1632 51.8193 60.3451C48.1933 64.4352 40.6761 63.7161 36.3821 60.4471C36.1985 60.2686 36.0098 60.0901 35.816 59.9167ZM54.1091 62.3799C54.2978 62.1657 54.4763 61.9464 54.6446 61.7221C54.7517 62.13 54.8741 62.538 55.022 62.9358C54.6191 62.844 54.2111 62.7675 53.798 62.7114C53.9 62.6043 54.0071 62.4921 54.1091 62.3799ZM57.4954 49.865C57.118 50.2882 56.7814 50.7319 56.4703 51.1909C56.2153 50.0741 55.8481 48.9725 55.3738 47.9168C56.4907 48.2432 57.6535 48.4625 58.8315 48.5594C58.3623 48.9572 57.9136 49.3907 57.4954 49.865ZM55.2107 33.4588C55.1981 33.1906 55.1155 32.9303 54.971 32.704C54.6242 31.8218 53.4716 29.277 51.1206 27.3339C55.124 23.764 62.6003 24.835 66.5425 28.3335C68.5875 30.1439 69.8013 32.6428 69.9644 35.3713C70.1276 38.0946 69.2199 40.721 67.4094 42.766C65.7265 44.6682 62.9318 45.6831 59.724 45.5556C56.6029 45.4332 53.4818 44.2449 51.3756 42.3733C49.7232 40.9097 48.6013 38.9411 48.1576 36.789C49.9272 36.3555 51.3348 35.9832 52.3547 35.6823C53.9867 35.203 55.2719 34.8205 55.2107 33.4588ZM37.1216 38.7728C38.7841 38.7728 40.6353 38.5433 42.66 38.0793C43.5473 37.8753 44.3888 37.6815 45.1793 37.4979C45.317 38.1507 45.5057 38.7881 45.7403 39.4103C44.4602 39.0941 43.1241 38.9717 41.7675 39.0533C39.3043 39.2012 36.989 40.0121 35.0153 41.3788C34.3575 40.7057 33.6384 39.9917 32.9448 39.3389C33.2814 39.1145 33.618 38.9003 33.9546 38.6963C34.0515 38.6402 34.1331 38.5739 34.2096 38.4974C35.1071 38.681 36.0812 38.7728 37.1216 38.7728ZM19.2926 36.6003C19.4048 36.1668 19.3181 35.7078 19.0631 35.3407C18.2981 34.2493 17.0996 32.6071 16.2684 31.4801L21.2509 27.9306C21.97 30.0164 23.3367 33.2191 25.6011 35.6823C25.9784 36.0903 26.5496 36.2637 27.0902 36.1311C27.7481 35.9679 28.3754 35.7792 29.0077 35.5599C29.3851 36.0189 29.8441 36.4779 30.4204 36.891C30.5326 36.9726 30.6499 37.044 30.7672 37.1205C30.3694 37.3959 29.9665 37.6764 29.5738 37.9722C29.1964 38.2527 28.972 38.6912 28.9618 39.1655C28.9566 39.398 29.0044 39.6285 29.1016 39.8397C29.1988 40.0509 29.3429 40.2372 29.5228 40.3844C30.4204 41.1188 31.6393 42.3121 32.7153 43.4035C32.6847 43.4341 32.6541 43.4647 32.6286 43.5004C32.1156 44.0772 31.6548 44.6984 31.2517 45.3567C29.3443 44.1736 26.7281 42.3274 24.576 40.0172C24.3846 39.8109 24.1402 39.6613 23.8694 39.5848C23.5986 39.5084 23.3119 39.508 23.0409 39.5837C22.4902 39.7367 22.072 40.1906 21.9547 40.7516C21.052 45.219 20.8429 52.2211 22.0975 57.5096C21.4855 57.7493 20.899 58.04 20.3329 58.3664C18.8642 53.1645 17.2424 44.6121 19.2926 36.6003ZM26.2079 56.5967C25.8204 56.6222 25.4379 56.663 25.0554 56.7191C24.1731 52.9351 24.1119 48.0698 24.525 44.2144C26.3813 45.8361 28.3091 47.1519 29.9461 48.1463C29.4194 49.7447 29.2014 51.4286 29.3035 53.1084C29.3851 54.4344 29.6554 55.7196 30.1042 56.9333C28.8497 56.6324 27.539 56.5151 26.2079 56.5967ZM43.1343 66.1385C42.2759 66.9489 41.5314 67.8719 40.9209 68.8822C40.671 67.7246 40.3039 66.5924 39.8296 65.5214C40.9005 65.8274 42.0123 66.0365 43.1343 66.1385ZM61.0806 83.4218C59.4486 85.2629 56.7253 86.2369 53.5991 86.1145C50.5545 85.987 47.515 84.8243 45.4598 83.0087C44.4825 82.1465 43.6858 81.099 43.116 79.9269C42.5461 78.7547 42.2143 77.4813 42.1398 76.1801C42.0586 74.8784 42.2362 73.5736 42.6625 72.3411C43.0889 71.1086 43.7553 69.9728 44.6234 68.9995C45.4857 68.0222 46.5331 67.2256 47.7053 66.6557C48.8774 66.0858 50.1509 65.754 51.4521 65.6795C51.6561 65.6693 51.8601 65.6591 52.059 65.6591C54.2417 65.6591 56.3326 66.3731 58.0666 67.7042C58.2399 67.8724 58.4133 68.0407 58.5969 68.1988C58.7856 68.3671 58.9794 68.5252 59.1783 68.6833C62.8553 72.4419 64.5178 79.546 61.0806 83.4218ZM85.5291 89.1999C81.8368 93.3665 73.9678 92.3771 69.9135 88.7817C65.8183 85.1507 65.4409 78.8677 69.072 74.7725C71.0303 72.5643 73.7587 71.4372 76.5024 71.4372C78.8432 71.4372 81.1943 72.2583 83.0812 73.931C87.1305 77.5264 89.1296 85.1354 85.5291 89.1999Z" fill="#191919"/>
<path d="M58.9772 30.073C59.1136 30.1998 59.2736 30.2985 59.4481 30.3635C59.6225 30.4284 59.8081 30.4584 59.9942 30.4516C60.1803 30.4449 60.3632 30.4015 60.5325 30.3241C60.7018 30.2466 60.8542 30.1366 60.981 30.0002C61.1078 29.8639 61.2065 29.7039 61.2714 29.5294C61.3364 29.3549 61.3663 29.1693 61.3596 28.9832C61.3528 28.7971 61.3094 28.6142 61.2319 28.4449C61.1545 28.2756 61.0444 28.1232 60.908 27.9964C60.7717 27.8696 60.6117 27.7709 60.4372 27.706C60.2627 27.641 60.0771 27.611 59.8911 27.6178C59.705 27.6245 59.5221 27.6679 59.3528 27.7453C59.1834 27.8228 59.031 27.9328 58.9042 28.0692C58.7775 28.2056 58.6788 28.3656 58.6138 28.5401C58.5489 28.7146 58.5189 28.9001 58.5257 29.0862C58.5325 29.2723 58.5758 29.4552 58.6533 29.6245C58.7308 29.7938 58.8409 29.9462 58.9772 30.073ZM44.9243 47.8403C45.6995 47.7435 46.2554 47.0397 46.1585 46.2645C46.0616 45.4893 45.3578 44.9334 44.5826 45.0303C43.8075 45.1272 43.2516 45.831 43.3485 46.6062C43.4403 47.3814 44.1441 47.9321 44.9243 47.8403ZM68.7966 50.9971C68.0214 51.094 67.4656 51.7978 67.5625 52.573C67.6593 53.3482 68.3631 53.904 69.1383 53.8071C69.9135 53.7102 70.4694 53.0065 70.3725 52.2313C70.3507 52.0465 70.2926 51.8679 70.2014 51.7056C70.1103 51.5434 69.988 51.4009 69.8415 51.2861C69.695 51.1714 69.5273 51.0868 69.3479 51.0372C69.1686 50.9876 68.9812 50.974 68.7966 50.9971ZM78.4863 74.4002C77.7111 74.4971 77.1552 75.2009 77.2521 75.9761C77.349 76.7513 78.0528 77.3071 78.828 77.2103C79.6031 77.1134 80.159 76.4096 80.0621 75.6344C80.0404 75.4496 79.9822 75.271 79.8911 75.1087C79.8 74.9465 79.6776 74.804 79.5312 74.6892C79.3847 74.5745 79.2169 74.4899 79.0376 74.4403C78.8583 74.3907 78.6709 74.3771 78.4863 74.4002ZM53.645 68.8924C52.8699 68.9893 52.314 69.6931 52.4109 70.4683C52.5078 71.2435 53.2115 71.7993 53.9867 71.7024C54.7619 71.6055 55.3178 70.9018 55.2209 70.1266C55.124 69.3514 54.4253 68.7955 53.645 68.8924ZM28.8344 65.5571C29.6095 65.4603 30.1654 64.7565 30.0685 63.9813C29.9716 63.2061 29.2679 62.6502 28.4927 62.7471C27.7175 62.844 27.1616 63.5478 27.2585 64.323C27.3554 65.0982 28.0592 65.6489 28.8344 65.5571Z" fill="#191919"/>
</svg>
