<svg xmlns="http://www.w3.org/2000/svg" xml:space="preserve" id="herbal" x="0" y="0" style="enable-background:new 0 0 60 60" version="1.1" viewBox="0 0 60 60">
  <g>
    <g>
      <g>
        <path d="M31.48,21.11c-0.01,0.97-0.18,1.9-0.51,2.8c-0.92,0.76-1.07,1.43-0.44,2c-0.13,0.08-0.65-0.03-0.78,0
				c-1.17,0.26-2.74,0-3.95,0c-1.2,0-2.76,0.26-3.95,0c-0.6-0.13-0.52-0.1-0.63-0.19c-0.49-0.39-1.09-3.82-1.09-4.61
				c0-3.27,2.11-6.26,4.31-8.48c0.1-0.1,1.44-1.18,1.46-1.35c0.6-0.37,0.39-0.49-0.64-0.35c0.16,0.12,0.31,0.25,0.46,0.38
				c0.56,1.07,2.17,2.03,2.94,3.01C30.25,16.31,31.35,18.54,31.48,21.11c0.07,1.28,2.07,1.29,2,0c-0.25-4.85-3.39-9.04-7.18-11.88
				c-0.25-0.19-0.76-0.19-1.01,0c-2.91,2.2-5.52,5.26-6.64,8.76c-0.82,2.56-0.77,8.91,2.43,9.92c0.94,0.3,2.46,0,3.44,0
				c1.61,0,3.21,0.02,4.82,0c0.81-0.01,1.39,0.1,2.04-0.39c1.55-1.19,2-4.65,2.1-6.41C33.56,19.83,31.56,19.83,31.48,21.11z"></path>
      </g>
      <g>
        <path d="M21.02,25.91c-1.47,0-2.94,0-4.42,0c-1.2,0-2.83,0.28-4.01,0.02c-2.5-0.56-2.97-5.39-2.97-7.58
				c0-1.56,0.14-3.14,0.52-4.66c-0.32,0.24-0.64,0.49-0.96,0.73c3.57-0.13,7.54,0.69,10.36,2.96c-0.05-0.4-0.1-0.81-0.16-1.21
				c-1.78,3.94-1.43,7.56,0.77,11.25c0.66,1.1,2.39,0.1,1.73-1.01c-1.79-3.01-2.24-5.97-0.77-9.23c0.17-0.37,0.21-0.92-0.16-1.21
				c-3.26-2.62-7.63-3.7-11.78-3.54c-0.43,0.02-0.86,0.3-0.96,0.73c-1.1,4.42-1.02,10.08,2.03,13.73c1.39,1.66,2.82,1.02,4.8,1.02
				c1.99,0,3.99,0,5.98,0C22.31,27.91,22.31,25.91,21.02,25.91z"></path>
      </g>
      <g>
        <path d="M46.67,20.42c-0.76,1.29-1.52,2.59-2.28,3.88c-0.37,0.62-0.71,1.48-1.19,2.03c0.65-0.74,0.94-0.29-0.24-0.42
				c-3.08-0.35-6.38,0-9.48,0c0.24,0.57,0.47,1.14,0.71,1.71c2.22-2.54,4.43-5.07,6.65-7.61c0.53-0.61,1.65-1.45,1.94-2.24
				c0.57-1.58-1.1-2.63,1.14-4.3c4.99-3.75,9.33,4.68,3.36,6.49c-1.23,0.37-0.7,2.3,0.53,1.93c3.77-1.14,6.02-5.3,3.68-8.88
				c-2.22-3.4-7.34-3.45-9.66-0.14c-0.45,0.65-0.77,1.4-0.92,2.18c-0.17,0.85-0.55,2.94,0.26,1.55c-0.57,0.98-1.63,1.86-2.37,2.71
				c-2.01,2.3-4.02,4.6-6.03,6.9c-0.55,0.63-0.2,1.71,0.71,1.71c1.53,0,3.06,0,4.59,0c1.7,0,4.08,0.43,5.73,0
				c2.22-0.58,3.48-4.57,4.61-6.49C49.05,20.32,47.32,19.31,46.67,20.42z"></path>
      </g>
      <g>
        <path d="M12.42,20.94c2.93,1.59,5.24,4.12,7.32,6.68c0.81,1,2.22-0.42,1.41-1.41c-2.18-2.7-4.64-5.32-7.72-7
				C12.29,18.6,11.28,20.32,12.42,20.94L12.42,20.94z"></path>
      </g>
      <g>
        <path d="M25.39,17.83c0.79,2.97,0.65,6.06,0.31,9.08c-0.14,1.28,1.86,1.27,2,0c0.35-3.21,0.45-6.47-0.39-9.62
				C26.98,16.05,25.06,16.58,25.39,17.83L25.39,17.83z"></path>
      </g>
      <g>
        <path d="M46.98,33.88c-1.22,8.39-7.85,15.03-16.59,15.04c-8.73,0-15.38-6.64-16.6-15.04c-0.32,0.42-0.64,0.84-0.96,1.27
				c11.7,0,23.41,0,35.11,0c1.29,0,1.29-2,0-2c-11.7,0-23.41,0-35.11,0c-0.71,0-1.06,0.64-0.96,1.27
				c1.34,9.23,8.98,16.54,18.52,16.5c9.54-0.04,17.17-7.22,18.51-16.5C49.09,33.15,47.16,32.61,46.98,33.88z"></path>
      </g>
      <g>
        <path d="M49.01,28.88c0,4.14-0.74,4.26-4.27,4.26c-3.96,0-7.91,0-11.87,0c-4.42,0-8.84,0-13.26,0c-1.93,0-5.97,0.77-7.35-0.66
				c-1.26-1.3-0.58-3.98,0.92-4.57c0.78-0.31,2.33,0,3.16,0c4.02,0,8.03,0,12.05,0c4.39,0,8.77,0,13.16,0
				c1.54,0,6.89-0.97,7.49,1.24c0.34,1.24,2.27,0.71,1.93-0.53c-1.32-4.85-12.03-2.7-15.65-2.7c-4.67,0-9.35,0-14.02,0
				c-2.67,0-5.78-0.46-8.42,0c-4.75,0.83-4.38,8.77,0.43,9.23c7.81,0.76,16.07,0,23.91,0c3.39,0,7.13,0.45,10.5,0
				c3.62-0.48,3.3-3.21,3.3-6.26C51.01,27.6,49.01,27.59,49.01,28.88z"></path>
      </g>
      <path d="M37.55,44.96c-1.69,1.13-3.67,1.87-5.74,2.13c-1.03,0.13-2.09,0.23-3.12,0.01c-1.03-0.21-2.03-0.57-2.88-1.18l0.03-0.09
			c1.04,0.09,2.01,0.22,2.99,0.29c0.97,0.06,1.94,0.22,2.93,0.18c1.96-0.07,3.94-0.54,5.76-1.42L37.55,44.96z"></path>
    </g>
  </g>
</svg>
