<svg xmlns="http://www.w3.org/2000/svg" enable-background="new 0 0 511.94 511.94" viewBox="0 0 511.94 511.94" id="jam-jar">
  <path d="M421.624,301.96c-4.143,0-7.5,3.357-7.5,7.5c0,7.688,0,52.503,0,59.482h-22.647V259.501c0-4.143-3.357-7.5-7.5-7.5
		s-7.5,3.357-7.5,7.5v109.441H170.919c-4.142,0-7.5,3.357-7.5,7.5s3.358,7.5,7.5,7.5h122.738c0,16.777,13.631,30.121,30.079,30.121
		c16.519,0,30.089-13.41,30.089-30.121h60.299V450.1c0,25.827-20.753,46.84-46.261,46.84c-4.143,0-7.5,3.357-7.5,7.5
		s3.357,7.5,7.5,7.5c33.779,0,61.261-27.741,61.261-61.84c0-20.838,0-123.098,0-140.641
		C429.124,305.317,425.766,301.96,421.624,301.96z M338.826,383.973c0,8.32-6.77,15.09-15.09,15.09c-8.315,0-15.08-6.77-15.08-15.09
		C308.656,383.882,338.826,383.938,338.826,383.973z"></path>
  <path d="M252.522 350.74c2.18 1.13 4.756 1.117 6.909 0 20.12-10.443 41.439-25.943 46.607-48.103 8.607-36.887-27.915-56.214-50.062-35.627-22.058-20.508-58.697-1.402-50.062 35.626C211.082 324.796 232.4 340.296 252.522 350.74zM249.367 282.339c2.812 5.243 10.378 5.292 13.218.001.039-.073 4.24-7.336 11.673-8.519 5.919-.945 10.553 2.253 11.417 2.902 3.981 2.992 5.273 7.164 5.895 9.169 0 .132 4.428 11.765-7.426 27.852-5.981 8.118-19.531 16.948-28.168 21.809-8.636-4.861-22.188-13.691-28.168-21.809C204.804 282.522 235.48 260.603 249.367 282.339zM225.888 421.618c0 12.439 10.12 22.56 22.559 22.56 12.438 0 22.559-10.12 22.559-22.56 0-12.438-10.12-22.559-22.559-22.559C236.008 399.059 225.888 409.179 225.888 421.618zM256.005 421.618c0 4.168-3.391 7.56-7.559 7.56s-7.559-3.392-7.559-7.56 3.391-7.559 7.559-7.559S256.005 417.45 256.005 421.618zM391.476 451.734c0-12.438-10.12-22.559-22.559-22.559s-22.559 10.12-22.559 22.559 10.12 22.559 22.559 22.559S391.476 464.173 391.476 451.734zM361.359 451.734c0-4.168 3.391-7.559 7.559-7.559s7.559 3.391 7.559 7.559-3.391 7.559-7.559 7.559S361.359 455.902 361.359 451.734z"></path>
  <path d="M464.234,125.969l-35.11-56.349V49.177c0-24.506-20.44-50.177-45.95-49.146H128.78
		c-25.48-1.007-45.951,24.65-45.951,49.146V69.62l-35.162,56.43c-7.819,12.917,3.905,28.908,18.667,25.353
		c5.21-1.253,10.71-1.793,16.495-1.526c0,15.213,0,285.283,0,300.225c0,34.099,27.481,61.84,61.261,61.84h188.358
		c4.143,0,7.5-3.357,7.5-7.5s-3.357-7.5-7.5-7.5H144.09c-25.508,0-46.261-21.013-46.261-46.84v-66.158h37.567
		c4.142,0,7.5-3.357,7.5-7.5s-3.358-7.5-7.5-7.5H97.829v-128.06h316.294c0,16.102,0,23.92,0,33.374c0,4.143,3.357,7.5,7.5,7.5
		s7.5-3.357,7.5-7.5c0-16.003,0-110.638,0-124.381c5.75-0.266,11.253,0.266,16.494,1.526
		C460.377,154.952,472.134,139.01,464.234,125.969z M97.829,225.883v-73.317c8.714,2.811,16.436,7.811,20.732,12.339
		c10.314,10.906,28.713,19.772,49.391,19.772c21.166,0,39.76-9.256,49.578-19.879c1.868-1.941,15.298-14.994,38.447-14.994
		c23.59,0,37.077,13.545,38.537,15.089c24.697,26.117,73.751,26.571,98.874,0.002c1.041-1.1,8.191-8.285,20.736-12.331v73.319
		H97.829z M451.356,136.016c-1.782,2.444-4.205-1.213-19.43-1.213c-20.383,0-38.855,8.594-49.437,19.784
		c-1.461,1.544-14.948,15.089-38.538,15.089c-23.591,0-37.078-13.545-38.538-15.089c-3.124-3.304-20.188-19.784-49.438-19.784
		c-20.942,0-39.582,9.12-49.526,19.879c-19.044,19.791-57.854,20.086-76.988-0.097c-14.649-15.486-41.14-23.901-66.635-17.768
		c-1.907,0.455-3.219-1.525-2.377-2.918l34.044-54.635h137.862c-3.064,11.759-12.249,20.148-23.339,22.861
		c-8.562,2.097-7.042,14.787,1.778,14.787c7.165,0,32.082-10.456,36.892-37.648h16.582c3.331,18.833,17.208,33.049,35.102,37.432
		c4.046,0.988,8.089-1.498,9.069-5.501c0.985-4.023-1.478-8.084-5.501-9.069c-11.023-2.697-20.257-11.034-23.339-22.861h54.454
		c4.143,0,7.5-3.357,7.5-7.5s-3.357-7.5-7.5-7.5h-37.777c13.229-17.868-2.62-45.089-24.846-35.712
		c-5.83,2.461-11.363,7.104-15.453,12.729c-4.09-5.625-9.624-10.27-15.454-12.729c-22.185-9.357-38.093,17.818-24.845,35.712H97.829
		V49.177c0-9.213,4.652-19.611,11.852-26.491c6.472-6.183,12.339-7.655,18.937-7.655c265.078,0,254.77,0.005,255.057-0.008
		c16.612-0.762,30.448,17.999,30.448,34.154v15.089H368.88c-4.143,0-7.5,3.357-7.5,7.5s3.357,7.5,7.5,7.5h48.58
		C451.832,134.757,452.49,134.466,451.356,136.016z M235.193,61.211c-15.071-7.684-8.077-18.111-5.078-19.342
		c4.094-1.683,13.237,5.021,16.55,13.252c1.393,3.465,2.028,7.365,1.769,8.972C245.259,64.943,239.021,63.162,235.193,61.211z
		 M286.046,51.255c-1.174,8.155-16.7,14.392-22.527,12.838c-0.261-1.606,0.374-5.507,1.769-8.97
		c3.118-7.749,12.239-15.016,16.551-13.254C284.437,42.936,286.561,47.673,286.046,51.255z"></path>
</svg>
