<svg width="96" height="96" viewBox="0 0 96 96" fill="none" xmlns="http://www.w3.org/2000/svg">
<path d="M14.1706 28.1927C14.086 28.1927 14.0003 28.1844 13.9143 28.1673C13.2033 28.0265 12.7409 27.3358 12.8817 26.6248C13.7678 22.1514 15.3811 16.0644 18.0351 12.4691C22.7744 6.04647 30.0764 4.44091 34.84 6.17454C37.7868 7.24516 40.8323 6.14079 43.7776 5.07297C44.551 4.79247 45.2817 4.52754 46.0101 4.30179C47.5816 3.81091 49.8753 4.09535 52.5312 4.42497C55.7918 4.8296 59.4871 5.28822 62.0973 4.32429C65.9009 2.9216 67.8888 5.7746 69.6424 8.29197C70.9264 10.1349 72.2541 12.0405 74.3581 13.0209C77.9759 14.7048 79.7298 18.8677 80.7346 21.8525C80.9656 22.5395 80.5964 23.2839 79.9094 23.5151C79.2218 23.7463 78.478 23.3769 78.2466 22.6899C76.8953 18.6746 75.3074 16.3582 73.2499 15.4007C70.5046 14.1213 68.8323 11.7212 67.4886 9.79272C65.5756 7.04679 64.7508 6.14397 63.0063 6.7871C59.797 7.97191 55.7654 7.47147 52.2079 7.0301C49.9527 6.75016 47.8221 6.48579 46.7903 6.80829C46.1181 7.0166 45.4159 7.27122 44.6725 7.54085C41.4447 8.71141 37.7864 10.0382 33.943 8.64166C30.0949 7.24179 24.1214 8.64204 20.1471 14.0282C17.7813 17.2331 16.2906 22.9247 15.4566 27.135C15.3329 27.7599 14.7844 28.1927 14.1706 28.1927Z" fill="black"/>
<path d="M15.7939 29.5521C15.5496 29.5521 15.3025 29.484 15.0822 29.3413C14.4735 28.9476 14.2993 28.1349 14.6931 27.5263C22.1316 16.0279 34.7391 9.16313 48.4182 9.16313C59.9685 9.16313 70.9667 14.1454 78.5927 22.8323C79.071 23.3769 79.017 24.2063 78.4722 24.6846C77.9273 25.1629 77.0982 25.1089 76.6198 24.564C69.4924 16.4449 59.2133 11.7881 48.4182 11.7881C35.6333 11.7881 23.8497 18.2046 16.897 28.9523C16.6459 29.3406 16.2242 29.5521 15.7939 29.5521Z" fill="black"/>
<path d="M52.8004 54.677C52.1427 54.677 51.5753 54.1836 51.4982 53.5145C49.7727 38.52 46.4258 27.8816 41.5504 21.8944C41.0927 21.3322 41.1773 20.5055 41.7394 20.0479C42.3013 19.59 43.1282 19.6749 43.5859 20.2369C48.7827 26.619 52.3221 37.7141 54.1058 53.2142C54.1887 53.9344 53.6721 54.5854 52.9521 54.6682C52.9011 54.6742 52.8505 54.677 52.8004 54.677Z" fill="black"/>
<path d="M46.9139 29.7641C46.6448 29.7641 46.3735 29.6818 46.1397 29.5106C45.5547 29.0824 45.4277 28.2611 45.8558 27.6763C46.0639 27.3921 51.049 20.7032 59.4471 19.7606C60.1649 19.6806 60.8168 20.1983 60.8976 20.9186C60.9784 21.639 60.46 22.2885 59.7396 22.3693C52.474 23.1848 48.018 29.1666 47.974 29.2269C47.7169 29.5781 47.3181 29.7641 46.9139 29.7641ZM50.2459 39.9116C49.9545 39.9116 49.6615 39.8151 49.4179 39.6169C48.8558 39.1592 48.7712 38.3323 49.2289 37.7704C49.4625 37.4833 55.0767 30.7519 65.8785 31.5941C66.6012 31.6506 67.1414 32.2821 67.0851 33.0047C67.0287 33.7273 66.3936 34.2651 65.6747 34.2113C56.2264 33.4748 51.3132 39.3683 51.2646 39.4279C51.0049 39.7464 50.6269 39.9116 50.2459 39.9116ZM42.5697 46.4143C42.0893 46.4143 41.6267 46.1498 41.3961 45.6913C41.0704 45.0437 41.3312 44.2547 41.9789 43.929C45.7319 42.0411 51.2804 42.5576 51.5145 42.5805C52.236 42.651 52.7635 43.2932 52.693 44.0145C52.6225 44.7356 51.9786 45.2625 51.2599 45.1931C51.2095 45.1884 46.2278 44.73 43.1584 46.2741C42.9692 46.3693 42.768 46.4143 42.5697 46.4143Z" fill="black"/>
<path d="M34.475 32.4676C33.9691 32.4676 33.4872 32.1736 33.2718 31.6804C32.9815 31.0163 33.2845 30.2425 33.9487 29.9521C38.2524 28.0707 47.2319 29.6753 48.2416 29.8647C48.9539 29.9982 49.4232 30.6837 49.2899 31.3962C49.1566 32.1087 48.4705 32.5784 47.7586 32.4449C45.2337 31.9728 38.0202 31.0373 35.0002 32.3575C34.8288 32.4321 34.6505 32.4676 34.475 32.4676ZM71.9673 84.6938C71.551 84.6938 71.1417 84.4962 70.8869 84.1279C70.4744 83.5317 70.6233 82.7142 71.2192 82.3019C82.055 74.8038 88.5241 62.4685 88.5241 49.3049C88.5241 45.835 87.9924 43.8447 87.1117 40.5471C86.6532 38.8304 86.0825 36.6938 85.4714 33.8676C84.6217 29.9367 84.7542 25.9004 84.8607 22.6572C84.9206 20.8353 84.9939 18.6053 84.7351 17.8489C84.3543 17.9288 84.1072 18.2796 83.507 19.4446C82.8824 20.6569 82.1049 22.1658 80.387 23.2525C78.3112 24.5669 75.836 26.7511 75.836 29.6901C75.836 30.4793 75.8836 31.3799 75.9339 32.3331C76.1047 35.5686 76.3175 39.5952 74.8595 43.0842C73.1238 47.2375 69.3382 49.7673 63.6074 50.6031C54.7735 51.8907 51.7955 55.5546 49.5022 59.1968C49.1157 59.8101 48.3054 59.9944 47.6922 59.6082C47.0789 59.2219 46.8946 58.4116 47.2809 57.7983C49.7857 53.8199 53.2904 49.4543 63.2287 48.0055C68.0508 47.3022 71.063 45.3612 72.4374 42.0719C73.6645 39.1353 73.4776 35.5951 73.3126 32.4713C73.2603 31.4824 73.211 30.5483 73.211 29.6899C73.211 26.4183 75.2071 23.4252 78.9832 21.0342C80.0984 20.3286 80.645 19.2679 81.1735 18.2419C81.871 16.8884 82.7392 15.2035 84.956 15.2035C85.5802 15.2035 86.135 15.4358 86.5602 15.8751C87.6723 17.0243 87.5975 19.2993 87.4844 22.7427C87.3826 25.8415 87.2559 29.6982 88.0372 33.3124C88.6349 36.0768 89.1731 38.0914 89.6478 39.8691C90.5519 43.2537 91.1493 45.4898 91.1493 49.3041C91.1493 63.3293 84.2572 76.4716 72.7132 84.4596C72.4854 84.6181 72.2249 84.6938 71.9673 84.6938Z" fill="black"/>
<path d="M65.1074 74.1056C64.7709 74.1056 64.4343 73.9768 64.1778 73.7195C63.6661 73.2062 63.6674 72.3752 64.181 71.8635C73.1739 62.9 78.4126 54.7886 79.7517 47.7544C79.8877 47.0422 80.5756 46.5746 81.2868 46.7105C81.9987 46.8461 82.4662 47.5333 82.3306 48.2454C80.8908 55.8077 75.4079 64.3796 66.034 73.7227C65.7777 73.9781 65.4425 74.1056 65.1074 74.1056Z" fill="black"/>
<path d="M75.1267 62.3113C74.8884 62.3113 74.6471 62.2464 74.4303 62.1105C73.9451 61.806 71.5715 59.9569 72.5052 53.4352C72.608 52.7177 73.2712 52.2197 73.9906 52.3219C74.7082 52.4248 75.2066 53.0897 75.104 53.8072C74.4198 58.5853 75.8111 59.8775 75.8257 59.8867C76.4396 60.272 76.6252 61.082 76.2399 61.6961C75.9905 62.0934 75.5634 62.3113 75.1267 62.3113ZM69.482 69.5293C69.3644 69.5293 69.2724 69.5229 69.2082 69.5107C68.7419 69.4222 68.3472 69.0834 68.1963 68.6332C68.0454 68.1832 68.1504 67.6834 68.4689 67.3314C68.7648 67.0048 69.1884 66.8621 69.5937 66.9088C71.0471 66.8308 78.4349 65.4365 82.8701 60.1547C83.3362 59.5995 84.164 59.5275 84.7192 59.9934C85.2744 60.4595 85.3466 61.2874 84.8804 61.8425C79.8087 67.8829 71.366 69.5293 69.482 69.5293Z" fill="black"/>
<path d="M48.4179 92.0371C37.0041 92.0371 26.2734 87.5921 18.2021 79.521C10.131 71.4498 5.68612 60.719 5.68612 49.3053C5.68612 46.6974 5.92312 44.0908 6.39075 41.5569C6.39206 41.5456 6.39356 41.5346 6.39525 41.5235C6.71962 39.335 6.1905 36.9699 5.52056 33.9757C5.37675 33.3333 5.22825 32.6696 5.08275 31.9811C4.25175 28.0531 5.71594 25.308 9.20569 24.2514C9.24412 24.2398 9.28312 24.2298 9.32231 24.2218C11.0207 23.874 12.7074 24.2872 14.5116 25.512C15.8177 26.3983 17.0743 27.6187 18.4046 28.9108C21.174 31.6006 24.3127 34.6494 28.7381 35.415C28.8279 35.4305 28.9159 35.4553 29.0006 35.4892C32.9655 37.0706 35.4741 38.6788 36.8949 40.5506C38.2573 42.3451 38.4617 44.1318 38.6595 45.8596C38.9481 48.3796 39.2462 50.9857 43.3588 54.5109C45.4929 56.3401 47.3827 57.2295 49.1361 57.2295H49.1366C50.7536 57.2293 52.1349 56.4716 53.4707 55.7388C54.7344 55.0455 56.0413 54.3286 57.4933 54.3286C59.0601 54.3286 60.4836 55.1531 61.845 56.849C61.8917 56.9073 61.9335 56.9694 61.9697 57.0346C63.9454 60.6022 64.2116 63.2966 64.4464 65.6741C64.8495 69.7546 65.1977 73.2787 74.634 81.0129C74.6786 81.0495 74.7208 81.089 74.7602 81.1312C75.0124 81.4007 75.1408 81.7651 75.1117 82.1328C75.0829 82.5007 74.9016 82.8406 74.6102 83.0672C67.0618 88.9353 58.0044 92.0371 48.4179 92.0371ZM8.99662 41.8749C8.99287 41.9116 8.98781 41.9484 8.98106 41.9846C8.53631 44.3769 8.31094 46.8401 8.31094 49.3051C8.31094 71.42 26.3029 89.412 48.4178 89.412C56.8672 89.412 64.8784 86.8449 71.6891 81.9716C62.6567 74.2533 62.2562 70.2056 61.8339 65.9317C61.6061 63.626 61.3911 61.4471 59.7281 58.406C58.6597 57.1059 57.9426 56.9531 57.4931 56.9531C56.7139 56.9531 55.7959 57.4567 54.7329 58.0398C53.2597 58.848 51.4262 59.8537 49.1366 59.8541H49.1357C46.7289 59.8541 44.2806 58.7581 41.6501 56.5035C36.7553 52.3078 36.3649 48.8979 36.0514 46.158C35.7032 43.1146 35.4514 40.9113 28.1514 37.9768C23.0019 37.0353 19.4411 33.5773 16.5754 30.7936C15.3298 29.5839 14.1534 28.4413 13.0371 27.6838C11.8447 26.8743 10.8939 26.5974 9.90544 26.7821C8.39194 27.2529 6.96356 28.1906 7.65056 31.4375C7.794 32.1157 7.94025 32.7695 8.08181 33.4023C8.77969 36.5205 9.38269 39.2148 8.99662 41.8749Z" fill="black"/>
<path d="M56.32 91.2836C56.0266 91.2836 55.7313 91.186 55.4871 90.9848C54.0108 89.7705 19.309 61.0808 17.3299 46.6324C17.2315 45.9141 17.734 45.2522 18.4521 45.154C19.1703 45.0546 19.8321 45.558 19.9306 46.2761C20.6811 51.7556 27.3184 60.8481 39.1249 72.571C48.1579 81.54 57.0659 88.8846 57.1546 88.9577C57.7144 89.4182 57.7951 90.2453 57.3346 90.8051C57.0749 91.1203 56.6989 91.2836 56.32 91.2836Z" fill="black"/>
<path d="M24.4831 59.3827C24.2617 59.3827 24.0376 59.3267 23.8318 59.2087C23.2029 58.8484 22.9852 58.0464 23.3454 57.4174C23.3844 57.3497 27.2379 50.5865 27.9626 46.2382C28.0818 45.5233 28.758 45.0403 29.4731 45.1594C30.188 45.2786 30.6712 45.9547 30.552 46.6699C29.7496 51.4845 25.7911 58.4295 25.623 58.7227C25.3805 59.1457 24.938 59.3827 24.4831 59.3827ZM37.4754 74.0917C37.3269 74.0917 37.176 74.0662 37.0284 74.0128C36.347 73.766 35.9945 73.0132 36.2415 72.3319C36.9431 70.3944 38.7474 64.7876 38.672 62.1425C38.6514 61.418 39.222 60.8139 39.9465 60.7933C40.6726 60.7719 41.2753 61.3432 41.2959 62.0679C41.4011 65.753 38.8194 72.9227 38.7095 73.226C38.5158 73.7599 38.012 74.0917 37.4754 74.0917ZM30.0166 66.3857C28.632 66.3857 20.7249 66.2494 15.4668 63.245C14.8376 62.8854 14.619 62.0837 14.9786 61.4542C15.3382 60.8246 16.14 60.6064 16.7694 60.9658C21.81 63.8462 30.095 63.7588 30.1773 63.7597C30.1839 63.7595 30.1903 63.7595 30.1966 63.7595C30.9127 63.7595 31.4983 64.3346 31.5088 65.0531C31.5193 65.7778 30.9401 66.3739 30.2154 66.3844C30.1891 66.3847 30.1216 66.3857 30.0166 66.3857ZM40.4212 79.7698C36.3988 79.7698 29.2734 79.5054 25.7925 77.7718C25.1437 77.4487 24.8795 76.6607 25.2026 76.0119C25.5258 75.3626 26.3135 75.0982 26.9626 75.422C30.5345 77.2009 39.9153 77.2344 43.2283 77.0968C43.9518 77.0659 44.564 77.6297 44.594 78.3538C44.624 79.0781 44.0611 79.6895 43.337 79.7195C43.188 79.7259 42.063 79.7698 40.4212 79.7698ZM46.9766 83.1356C46.7268 83.1356 46.4745 83.0644 46.251 82.9157C45.6474 82.5144 45.4835 81.6999 45.8848 81.0964C45.9427 81.0092 51.6667 72.3165 51.1374 66.6718C51.0699 65.9501 51.6 65.3102 52.3216 65.2425C53.0454 65.1757 53.6833 65.7054 53.751 66.4267C54.3669 72.9967 48.3281 82.1627 48.0708 82.5497C47.8179 82.9297 47.4013 83.1356 46.9766 83.1356Z" fill="black"/>
</svg>
