<svg xmlns="http://www.w3.org/2000/svg" enable-background="new 0 0 512 512" viewBox="0 0 512 512" id="wheat">
  <path d="M495.511,253.481c20.301-20.301,16.217-56.106,16.035-57.616c-0.297-2.438-2.219-4.359-4.651-4.651
			c-22.052-2.794-50.188,3.175-63.454,23.249v-23.468c18.312,0.659,39.054-3.425,52.07-16.445
			c20.301-20.301,16.217-56.111,16.035-57.621c-0.297-2.438-2.219-4.359-4.651-4.656c-22.816-2.647-50.246,3.272-63.454,23.259
			v-12.64c6.656-5.784,27.373-25.753,27.373-50.407c0-28.706-28.207-51.138-29.405-52.08c-1.937-1.511-4.651-1.511-6.578,0
			c-1.203,0.937-29.43,23.373-29.43,52.08c0,24.628,20.687,44.582,27.373,50.388v12.659c-13.371-20.231-41.474-25.826-63.454-23.259
			c-2.432,0.297-4.353,2.219-4.651,4.656c-0.182,1.511-4.266,37.321,16.035,57.621c13.013,13.013,33.741,17.105,52.07,16.445v23.468
			c-13.127-19.863-41.316-26.072-63.454-23.249c-2.432,0.291-4.353,2.213-4.651,4.651c-0.182,1.511-4.266,37.316,16.035,57.616
			c13.013,13.013,33.741,17.105,52.07,16.445v23.473c-13.154-19.904-40.692-25.839-63.454-23.259
			c-2.432,0.297-4.353,2.219-4.651,4.656c-0.182,1.511-4.266,37.321,16.035,57.621c12.986,12.986,33.705,17.108,52.07,16.446v23.468
			c-13.233-20.023-41.39-25.959-63.454-23.249c-2.432,0.291-4.353,2.213-4.651,4.651c-0.182,1.511-4.266,37.316,16.035,57.616
			c13.013,13.013,33.741,17.105,52.07,16.445v54.269H261.333v-54.269c18.311,0.659,39.049-3.425,52.065-16.445
			c20.301-20.301,16.223-56.101,16.04-57.616c-0.297-2.438-2.219-4.359-4.651-4.651c-22.052-2.794-50.188,3.175-63.454,23.249
			v-23.468c18.344,0.662,39.075-3.457,52.065-16.446c20.301-20.301,16.223-56.106,16.04-57.621
			c-0.297-2.438-2.219-4.359-4.651-4.656c-22.717-2.568-50.158,3.14-63.454,23.259v-23.473c18.311,0.659,39.049-3.425,52.065-16.445
			c20.301-20.301,16.223-56.101,16.04-57.616c-0.297-2.438-2.219-4.359-4.651-4.651c-22.295-2.816-50.247,3.263-63.454,23.249
			v-23.468c18.311,0.659,39.049-3.425,52.065-16.445c20.301-20.301,16.223-56.106,16.04-57.621
			c-0.297-2.438-2.219-4.359-4.651-4.656c-22.861-2.662-50.272,3.312-63.454,23.259v-12.64c6.654-5.784,27.368-25.753,27.368-50.407
			c0-28.706-28.202-51.138-29.399-52.08c-1.938-1.511-4.651-1.511-6.577,0c-1.203,0.937-29.43,23.373-29.43,52.08
			c0,24.628,20.687,44.582,27.373,50.388v12.659c-13.153-19.903-40.743-25.904-63.454-23.259c-2.432,0.297-4.353,2.219-4.651,4.656
			c-0.182,1.511-4.266,37.321,16.035,57.621c12.996,12.996,33.72,17.111,52.07,16.445v23.468
			c-13.153-19.902-41.358-26.048-63.454-23.249c-2.432,0.291-4.353,2.213-4.651,4.651c-0.182,1.511-4.266,37.316,16.035,57.616
			c12.996,12.996,33.72,17.111,52.07,16.445V293.4c-13.18-19.943-40.737-25.826-63.454-23.259c-2.432,0.297-4.353,2.219-4.651,4.656
			c-0.182,1.511-4.266,37.321,16.035,57.621c12.995,12.995,33.718,17.108,52.07,16.446v23.468
			c-13.206-19.982-41.347-25.974-63.454-23.249c-2.432,0.291-4.353,2.213-4.651,4.651c-0.182,1.511-4.266,37.316,16.035,57.616
			c12.996,12.996,33.72,17.111,52.07,16.445v54.269H79.22v-54.269c18.353,0.666,39.08-3.451,52.07-16.445
			c20.301-20.301,16.218-56.106,16.035-57.616c-0.297-2.438-2.219-4.359-4.651-4.651c-22.052-2.794-50.102,3.044-63.454,23.249
			v-23.468c18.349,0.662,39.075-3.457,52.07-16.446c20.301-20.301,16.218-56.111,16.035-57.621
			c-0.297-2.438-2.219-4.359-4.651-4.656c-22.717-2.568-50.158,3.141-63.454,23.259v-23.474c18.353,0.666,39.08-3.452,52.07-16.445
			c20.301-20.301,16.218-56.106,16.035-57.616c-0.297-2.438-2.219-4.359-4.651-4.651c-22.052-2.794-50.188,3.175-63.454,23.249
			v-23.468c18.353,0.666,39.08-3.451,52.07-16.445c20.301-20.301,16.218-56.111,16.035-57.621c-0.297-2.438-2.219-4.359-4.651-4.656
			c-22.861-2.661-50.272,3.312-63.454,23.259v-12.641c6.656-5.784,27.373-25.753,27.373-50.407c0-28.706-28.207-51.138-29.405-52.08
			c-1.937-1.511-4.651-1.511-6.578,0c-1.203,0.937-29.425,23.373-29.425,52.08c0,24.628,20.683,44.582,27.368,50.388v12.654
			c-13.169-19.927-40.8-25.89-63.449-23.254c-2.432,0.297-4.353,2.219-4.651,4.656c-0.182,1.511-4.266,37.321,16.035,57.621
			c12.998,12.998,33.714,17.107,52.065,16.446v23.462c-13.169-19.926-41.415-26.044-63.449-23.242
			c-2.432,0.291-4.353,2.213-4.651,4.651c-0.182,1.511-4.266,37.316,16.035,57.616c12.998,12.998,33.714,17.107,52.065,16.446
			v23.467c-13.119-19.85-40.566-25.839-63.449-23.253c-2.432,0.297-4.353,2.219-4.651,4.656
			c-0.182,1.511-4.266,37.321,16.035,57.621c12.969,12.969,33.666,17.11,52.065,16.446v23.462
			c-13.228-20.016-41.392-25.952-63.449-23.242c-2.432,0.291-4.353,2.213-4.651,4.651c-0.182,1.511-4.266,37.316,16.035,57.616
			c12.998,12.998,33.714,17.107,52.065,16.446v54.269H5.349c-2.948,0-5.333,2.385-5.333,5.333s2.385,5.333,5.333,5.333h501.301
			c2.948,0,5.333-2.385,5.333-5.333s-2.385-5.333-5.333-5.333h-63.209v-54.269c18.312,0.659,39.054-3.425,52.07-16.445
			c20.301-20.301,16.217-56.106,16.035-57.616c-0.297-2.438-2.219-4.359-4.651-4.651c-22.096-2.81-50.128,3.084-63.454,23.249
			v-23.468c18.344,0.662,39.075-3.457,52.07-16.446c20.301-20.301,16.217-56.111,16.035-57.621
			c-0.297-2.438-2.219-4.359-4.651-4.656c-22.872-2.576-50.219,3.232-63.454,23.259v-23.473
			C461.752,270.585,482.495,266.501,495.511,253.481z M319.142,359.38c0.36,9.338-0.317,31.462-13.286,44.429
			c-12.926,12.931-35.096,13.64-44.45,13.296C260.007,379.015,277.478,357.847,319.142,359.38z M319.137,280.443
			c0.339,9.354-0.365,31.519-13.28,44.434c-12.921,12.926-35.108,13.608-44.45,13.296
			C259.945,298.395,279.137,279.017,319.137,280.443z M319.142,201.51c0.36,9.338-0.317,31.462-13.286,44.429
			c-12.926,12.931-35.096,13.656-44.45,13.296C259.947,219.51,279.062,200.081,319.142,201.51z M319.137,122.572
			c0.339,9.354-0.365,31.519-13.28,44.434c-12.926,12.931-35.096,13.65-44.45,13.296C260.01,142.282,277.39,121.061,319.137,122.572
			z M233.96,72.482c0-18.269,15.197-34.44,22.056-40.81c6.854,6.349,22.019,22.473,22.019,40.81
			c0,18.295-15.182,34.472-22.035,40.842C249.141,106.97,233.96,90.845,233.96,72.482z M250.588,180.308
			c-9.349,0.385-31.477-0.329-44.45-13.301c-12.916-12.916-13.619-35.081-13.275-44.434
			C232.693,121.087,252.076,140.471,250.588,180.308z M250.588,259.241c-9.349,0.401-31.477-0.322-44.45-13.301
			c-12.916-12.921-13.619-35.091-13.275-44.44C232.589,199.952,252.078,219.344,250.588,259.241z M250.588,338.178
			c-9.349,0.391-31.467-0.328-44.45-13.301c-12.916-12.916-13.619-35.081-13.275-44.434
			C232.161,279,252.096,297.784,250.588,338.178z M250.588,417.111c-9.349,0.385-31.477-0.329-44.45-13.301
			c-12.916-12.921-13.619-35.091-13.275-44.44C232.486,357.782,252.081,377.132,250.588,417.111z M137.034,359.38
			c0.354,9.338-0.317,31.462-13.286,44.429c-12.931,12.931-35.081,13.64-44.45,13.296C77.815,377.325,97.066,357.917,137.034,359.38
			z M137.034,280.443c0.354,9.338-0.317,31.467-13.286,44.434c-12.931,12.926-35.102,13.592-44.45,13.296
			C77.803,298.075,97.411,278.988,137.034,280.443z M137.034,201.51c0.354,9.338-0.317,31.462-13.286,44.429
			c-12.931,12.931-35.081,13.656-44.45,13.296C77.787,218.709,97.775,200.117,137.034,201.51z M137.034,122.572
			c0.354,9.338-0.317,31.467-13.286,44.434c-12.931,12.931-35.081,13.65-44.45,13.296
			C77.814,140.507,97.174,121.065,137.034,122.572z M51.851,72.482c0-18.264,15.182-34.43,22.045-40.804
			c6.859,6.375,22.03,22.54,22.03,40.804c0,18.285-15.17,34.462-22.03,40.836C67.033,106.943,51.851,90.772,51.851,72.482z
			 M68.481,180.308c-9.328,0.385-31.472-0.329-44.45-13.301c-12.916-12.916-13.619-35.081-13.275-44.434
			C50.549,121.088,69.947,140.41,68.481,180.308z M68.481,259.241c-9.328,0.401-31.472-0.322-44.45-13.301
			c-12.916-12.921-13.619-35.091-13.275-44.44C50.967,199.931,69.929,219.82,68.481,259.241z M68.481,338.178
			c-9.328,0.391-31.467-0.328-44.45-13.301c-12.916-12.916-13.619-35.081-13.275-44.434
			C50.57,278.979,69.947,298.282,68.481,338.178z M68.481,417.111c-9.328,0.385-31.472-0.329-44.45-13.301
			c-12.916-12.921-13.619-35.091-13.275-44.44C50.566,357.772,69.944,377.295,68.481,417.111z M501.255,201.51
			c0.354,9.338-0.317,31.462-13.286,44.429c-12.931,12.931-35.091,13.656-44.455,13.296
			C442.043,219.168,461.502,200.1,501.255,201.51z M501.255,122.572c0.354,9.338-0.317,31.467-13.286,44.434
			c-12.931,12.931-35.091,13.65-44.455,13.296C442.053,140.506,461.373,121.065,501.255,122.572z M416.068,72.482
			c0-18.264,15.187-34.43,22.05-40.804c6.854,6.375,22.03,22.54,22.03,40.804c0,18.295-15.182,34.472-22.04,40.842
			C431.249,106.975,416.068,90.845,416.068,72.482z M432.702,180.303c-9.343,0.349-31.524-0.365-44.455-13.296
			c-12.916-12.916-13.619-35.081-13.275-44.434C414.889,121.084,434.162,140.544,432.702,180.303z M432.702,259.236
			c-9.343,0.36-31.524-0.365-44.455-13.296c-12.916-12.921-13.619-35.091-13.275-44.44
			C414.618,199.951,434.171,219.239,432.702,259.236z M432.702,338.178c-9.318,0.391-31.472-0.317-44.455-13.301
			c-12.916-12.916-13.619-35.081-13.275-44.434C414.213,279.002,434.189,297.702,432.702,338.178z M432.702,417.105
			c-9.343,0.339-31.524-0.365-44.455-13.296c-12.916-12.921-13.619-35.091-13.275-44.44
			C414.518,357.781,434.174,377.03,432.702,417.105z M501.255,359.38c0.354,9.338-0.317,31.462-13.286,44.429
			c-12.931,12.931-35.091,13.64-44.455,13.296C442.054,377.335,461.264,357.917,501.255,359.38z M501.255,280.443
			c0.354,9.338-0.317,31.467-13.286,44.434c-12.926,12.926-35.113,13.608-44.455,13.296
			C442.053,298.389,461.293,278.976,501.255,280.443z"></path>
</svg>
