<svg width="37" height="37" viewBox="0 0 37 37" fill="none" xmlns="http://www.w3.org/2000/svg">
<path d="M8.12273 15.0312C8.12081 13.6605 8.3901 12.3029 8.91509 11.0366C9.44009 9.77037 10.2104 8.6205 11.1817 7.65324C12.153 6.68598 13.3061 5.92044 14.5745 5.40072C15.8429 4.88099 17.2016 4.61735 18.5723 4.62498C24.2958 4.66834 28.8774 9.42342 28.8774 15.1613V16.1875C28.8774 21.3617 29.9614 24.3679 30.9153 26.0156C31.0166 26.1911 31.07 26.3901 31.0702 26.5927C31.0704 26.7953 31.0173 26.9944 30.9163 27.1701C30.8153 27.3457 30.67 27.4918 30.4947 27.5935C30.3195 27.6953 30.1207 27.7493 29.918 27.75H7.08211C6.87949 27.7493 6.68062 27.6953 6.50541 27.5935C6.33021 27.4918 6.18482 27.3457 6.08382 27.1701C5.98282 26.9944 5.92975 26.7953 5.92993 26.5927C5.93011 26.3901 5.98353 26.1911 6.08484 26.0156C7.03875 24.3679 8.12273 21.3617 8.12273 16.1875V15.0312Z" stroke="#191C1F" stroke-width="1.5" stroke-linecap="round" stroke-linejoin="round"/>
<path d="M13.875 27.75V28.9062C13.875 30.1329 14.3623 31.3093 15.2296 32.1766C16.097 33.044 17.2734 33.5312 18.5 33.5312C19.7266 33.5312 20.903 33.044 21.7704 32.1766C22.6377 31.3093 23.125 30.1329 23.125 28.9062V27.75" stroke="#191C1F" stroke-width="1.5" stroke-linecap="round" stroke-linejoin="round"/>
</svg>
