<svg width="46" height="43" viewBox="0 0 46 43" fill="none" xmlns="http://www.w3.org/2000/svg">
<path d="M23 42.9999C35.7026 42.9999 46 33.374 46 21.4999C46 9.62585 35.7026 0 23 0C10.2975 0 0 9.62585 0 21.4999C0 33.374 10.2975 42.9999 23 42.9999Z" fill="#58B0E0"/>
<path fill-rule="evenodd" clip-rule="evenodd" d="M17.3096 26.9132L29.1497 26.9974V35.9856L17.3096 35.9014V26.9132Z" fill="#F9DCA4"/>
<path fill-rule="evenodd" clip-rule="evenodd" d="M32.7293 40.9856C29.7197 42.2958 26.4427 42.9829 23.1227 42.9997C19.8028 43.0165 16.5181 42.3627 13.4934 41.083V33.6881H32.7286L32.7293 40.9856Z" fill="#E6E6E6"/>
<path fill-rule="evenodd" clip-rule="evenodd" d="M24.8629 42.9303C24.2486 42.9762 23.6276 42.9994 22.9999 42.9998C22.526 42.9998 22.0558 42.9866 21.5894 42.9602L22.356 36.7064H24.1499L24.8629 42.9303Z" fill="#E9573E"/>
<path fill-rule="evenodd" clip-rule="evenodd" d="M19.0976 42.6742C16.5617 42.2327 14.1127 41.4322 11.8351 40.3002C9.64744 39.1622 7.67226 37.6994 5.98682 35.9689L6.94254 33.8119L17.3074 29.4897C17.3074 33.1161 18.581 38.8696 19.0976 42.6742Z" fill="#677079"/>
<path opacity="0.11" fill-rule="evenodd" clip-rule="evenodd" d="M29.1519 26.9682V29.2163C25.6297 33.0619 18.9001 32.5178 17.3914 26.8422L29.1519 26.9682Z" fill="black"/>
<path fill-rule="evenodd" clip-rule="evenodd" d="M23.1703 5.86694C39.0105 5.86694 32.837 30.4047 23.1703 30.4047C14.0395 30.4047 7.33008 5.86694 23.1703 5.86694Z" fill="#FFE8BE"/>
<path fill-rule="evenodd" clip-rule="evenodd" d="M13.6698 16.731C11.3847 17.6626 13.3274 22.0788 14.7654 22.0593C14.1689 20.3314 13.801 18.5425 13.6698 16.731ZM32.8551 16.7303C35.1402 17.6619 33.1975 22.0788 31.7601 22.0587C32.3562 20.3309 32.7239 18.5415 32.8551 16.7303Z" fill="#F9DCA4"/>
<path fill-rule="evenodd" clip-rule="evenodd" d="M16.324 9.96929C13.8424 12.3753 14.7155 19.0354 14.7155 19.0354L13.9339 18.691C9.05555 1.02212 37.4803 1.02142 32.5744 18.691L31.7928 19.0354C31.7928 19.0354 32.6667 12.3753 30.185 9.96929C27.1191 12.749 19.3728 12.7344 16.324 9.96929Z" fill="#464449"/>
<path fill-rule="evenodd" clip-rule="evenodd" d="M27.3669 42.6123C32.3967 41.7043 36.9574 39.2509 40.3244 35.6419L39.513 33.8113L29.1489 29.489C29.1489 33.1155 27.8835 38.8077 27.3669 42.6123Z" fill="#677079"/>
<path fill-rule="evenodd" clip-rule="evenodd" d="M29.1496 29.2093L23.25 33.7076L28.1425 37.8218C28.1425 37.8218 29.4466 31.0698 29.1496 29.2093Z" fill="white"/>
<path fill-rule="evenodd" clip-rule="evenodd" d="M17.3082 29.2093L23.2547 33.7076L18.3086 37.8218C18.3086 37.8218 17.0089 31.0698 17.3082 29.2093Z" fill="white"/>
<path fill-rule="evenodd" clip-rule="evenodd" d="M20.9226 35.6432L23.2576 33.6825L25.5926 35.6432L23.2576 37.6033L20.9226 35.6432Z" fill="#E9573E"/>
<path fill-rule="evenodd" clip-rule="evenodd" d="M19.1794 42.7028C18.229 42.5541 17.2895 42.3496 16.3665 42.0905C16.3376 42.0696 16.3093 42.048 16.2817 42.0258L13.6505 37.5796L17.0305 35.3114H13.4934L14.2504 30.5445L17.3096 28.7361C17.4421 33.8641 18.6189 39.6294 19.1794 42.7028ZM27.2763 42.6283C27.714 42.5601 28.1472 42.4655 28.5766 42.3611C29.0839 42.2356 29.5887 42.1013 30.0906 41.9583L30.1904 41.9283L32.8037 37.5344L29.4237 35.2787H32.9608L32.2038 30.5355L29.1446 28.7361C29.0121 33.8377 27.836 39.5703 27.2763 42.6283Z" fill="#434955"/>
</svg>
