<svg width="34" height="29" viewBox="0 0 34 29" fill="none" xmlns="http://www.w3.org/2000/svg">
<path d="M16.4124 28.7583L2.79796 15.6278C2.21862 15.1042 1.76342 14.5 1.34961 13.8556C-0.884983 10.2708 -0.305644 5.67917 2.79796 2.69861C4.57735 0.966667 6.97747 0 9.50173 0C13.4743 0 15.9572 2.25556 16.9918 3.54444C18.0263 2.25556 20.5092 0 24.4818 0C27.006 0 29.4062 0.966667 31.1856 2.69861C34.2478 5.67917 34.8685 10.2708 32.6339 13.8556C32.2201 14.5 31.7649 15.1042 31.1856 15.6278L17.5711 28.7583C17.24 29.0806 16.7435 29.0806 16.4124 28.7583ZM9.50173 1.61111C7.39129 1.61111 5.44636 2.41667 3.95663 3.82639C1.43237 6.28333 0.935796 10.0694 2.75658 13.0097C3.08763 13.5333 3.50144 14.0569 3.95663 14.5L16.9918 27.0667L30.0269 14.5C30.4821 14.0569 30.8959 13.5736 31.2269 13.0097C33.0477 10.0292 32.5925 6.24306 30.0269 3.82639C28.5372 2.41667 26.5508 1.61111 24.4818 1.61111C21.5023 1.61111 19.0194 3.18194 17.6952 5.35694C17.3642 5.88056 16.5779 5.88056 16.2469 5.35694C14.9641 3.18194 12.4812 1.61111 9.50173 1.61111Z" fill="black"/>
</svg>
