<svg width="45" height="47" viewBox="0 0 45 47" fill="none" xmlns="http://www.w3.org/2000/svg">
<path d="M43.9729 9.36783C42.4729 8.56783 39.7729 7.46783 36.7729 7.76783C32.8729 8.06783 30.4729 11.9678 31.8729 14.8678C31.2729 15.3678 30.7729 15.9678 30.1729 16.6678C26.2729 21.5678 25.9729 27.3678 25.9729 27.3678L27.8729 31.0678C27.8729 31.0678 28.2729 23.9678 31.1729 18.9678C31.7729 17.9678 32.3729 17.0678 32.9729 16.2678C35.6729 18.8678 39.1729 16.3678 40.9729 14.2678C42.4729 12.5678 43.4729 11.5678 44.1729 10.8678C44.6729 10.4678 44.5729 9.66783 43.9729 9.36783Z" fill="#6DD627"/>
<path d="M36.773 9.86786C39.573 9.66786 42.173 10.5679 43.773 11.3679C43.973 11.1679 44.073 11.0679 44.273 10.9679C44.773 10.5679 44.673 9.76786 44.073 9.46786C42.573 8.66786 39.873 7.56786 36.873 7.86786C33.273 8.16786 30.973 11.3679 31.673 14.1679C32.073 11.9679 34.073 10.0679 36.773 9.86786Z" fill="#9CEB60"/>
<path d="M30.273 18.6678C30.773 17.9678 31.373 17.3678 31.973 16.8678C31.673 16.3678 31.573 15.7678 31.573 15.1678C31.173 15.5678 30.773 15.9678 30.373 16.5678C26.473 21.4678 26.173 27.2678 26.173 27.2678L26.373 27.6678C26.673 25.7678 27.673 21.9678 30.273 18.6678Z" fill="#9CEB60"/>
<path d="M43.9729 9.36783C42.4729 8.56783 39.7729 7.46783 36.7729 7.76783C32.8729 8.06783 30.4729 11.9678 31.8729 14.8678C31.2729 15.3678 30.7729 15.9678 30.1729 16.6678C26.2729 21.5678 25.9729 27.3678 25.9729 27.3678L27.8729 31.0678C27.8729 31.0678 28.2729 23.9678 31.1729 18.9678C31.7729 17.9678 32.3729 17.0678 32.9729 16.2678C35.6729 18.8678 39.1729 16.3678 40.9729 14.2678C42.4729 12.5678 43.4729 11.5678 44.1729 10.8678C44.6729 10.4678 44.5729 9.66783 43.9729 9.36783Z" stroke="#45413C" stroke-miterlimit="10" stroke-linecap="round" stroke-linejoin="round"/>
<path opacity="0.15" d="M27.0729 46.1678C32.9824 46.1678 37.7729 45.4963 37.7729 44.6678C37.7729 43.8394 32.9824 43.1678 27.0729 43.1678C21.1635 43.1678 16.3729 43.8394 16.3729 44.6678C16.3729 45.4963 21.1635 46.1678 27.0729 46.1678Z" fill="#45413C"/>
<path d="M26.073 22.2678C24.373 17.9678 21.473 14.5678 18.773 12.1678C19.073 10.1678 19.373 4.76784 13.773 2.46784C8.57296 0.267844 3.47296 1.96784 1.27296 3.06784C0.672961 3.36784 0.472961 4.06784 0.972961 4.56784C1.97296 5.66784 3.77296 7.76784 5.37296 10.5678C8.27296 15.6678 14.373 18.6678 18.273 13.4678C20.273 15.7678 22.173 18.8678 23.373 23.1678C26.673 35.2678 24.973 40.3678 24.173 42.3678C23.973 42.9678 24.173 43.6678 24.673 43.9678C25.173 44.2678 25.973 44.5678 26.973 44.6678C29.173 44.7678 29.273 43.2678 29.273 43.2678C29.273 43.2678 30.373 33.0678 26.073 22.2678Z" fill="#6DD627"/>
<path d="M18.7729 14.1678C19.2729 14.8678 19.8729 15.5678 20.3729 16.3678C22.5729 18.5678 24.6729 21.4678 26.0729 24.8678C28.6729 31.2678 29.3729 37.4678 29.4729 41.4678C29.5729 38.1678 29.3729 30.3678 26.0729 22.1678C24.3729 17.8678 21.5729 14.5678 18.8729 12.1678C18.8729 12.9678 18.8729 13.6678 18.7729 14.1678Z" fill="#9CEB60"/>
<path d="M1.77296 5.46784C4.27296 4.46784 8.97296 3.16784 13.673 5.06784C17.273 6.56784 18.473 9.26784 18.673 11.6678C18.973 9.36784 18.873 4.46784 13.673 2.36784C8.57296 0.26784 3.47296 1.96784 1.27296 3.06784C0.672961 3.36784 0.472961 4.06784 0.972961 4.56784C1.17296 4.76784 1.47296 5.06784 1.77296 5.46784Z" fill="#9CEB60"/>
<path d="M26.073 22.2678C24.373 17.9678 21.473 14.5678 18.773 12.1678C19.073 10.1678 19.373 4.76784 13.773 2.46784C8.57296 0.267844 3.47296 1.96784 1.27296 3.06784C0.672961 3.36784 0.472961 4.06784 0.972961 4.56784C1.97296 5.66784 3.77296 7.76784 5.37296 10.5678C8.27296 15.6678 14.373 18.6678 18.273 13.4678C20.273 15.7678 22.173 18.8678 23.373 23.1678C26.673 35.2678 24.973 40.3678 24.173 42.3678C23.973 42.9678 24.173 43.6678 24.673 43.9678C25.173 44.2678 25.973 44.5678 26.973 44.6678C29.173 44.7678 29.273 43.2678 29.273 43.2678C29.273 43.2678 30.373 33.0678 26.073 22.2678Z" stroke="#45413C" stroke-miterlimit="10" stroke-linecap="round" stroke-linejoin="round"/>
<path d="M32.7729 14.4678C32.7729 14.4678 33.6729 10.1678 39.2729 10.2678L32.7729 14.4678Z" fill="#6DD627"/>
<path d="M32.7729 14.4678C32.7729 14.4678 33.6729 10.1678 39.2729 10.2678" stroke="#45413C" stroke-miterlimit="10" stroke-linecap="round" stroke-linejoin="round"/>
<path d="M16.9729 11.1679C16.6729 6.16787 9.9729 5.06787 9.9729 5.06787L16.9729 11.1679Z" fill="#6DD627"/>
<path d="M16.9729 11.1679C16.6729 6.16787 9.9729 5.06787 9.9729 5.06787" stroke="#45413C" stroke-miterlimit="10" stroke-linecap="round" stroke-linejoin="round"/>
</svg>
