<svg width="42" height="38" viewBox="0 0 42 38" fill="none" xmlns="http://www.w3.org/2000/svg">
<path d="M30.1875 27.3125H11.4516L6.87422 4.54219C6.82066 4.2695 6.66344 4.02232 6.42976 3.84342C6.19608 3.66452 5.90063 3.56515 5.59453 3.5625H2.625" stroke="#191C1F" stroke-width="1.5" stroke-linecap="round" stroke-linejoin="round"/>
<path d="M13.125 33.25C14.9372 33.25 16.4062 31.9208 16.4062 30.2812C16.4062 28.6417 14.9372 27.3125 13.125 27.3125C11.3128 27.3125 9.84375 28.6417 9.84375 30.2812C9.84375 31.9208 11.3128 33.25 13.125 33.25Z" stroke="#191C1F" stroke-width="1.5" stroke-linecap="round" stroke-linejoin="round"/>
<path d="M30.1875 33.25C31.9997 33.25 33.4688 31.9208 33.4688 30.2812C33.4688 28.6417 31.9997 27.3125 30.1875 27.3125C28.3753 27.3125 26.9062 28.6417 26.9062 30.2812C26.9062 31.9208 28.3753 33.25 30.1875 33.25Z" stroke="#191C1F" stroke-width="1.5" stroke-linecap="round" stroke-linejoin="round"/>
<path d="M10.2539 21.375H30.8602C31.4737 21.3767 32.0683 21.1827 32.5393 20.827C33.0104 20.4714 33.3279 19.9769 33.4359 19.4305L35.4375 9.5H7.875" stroke="#191C1F" stroke-width="1.5" stroke-linecap="round" stroke-linejoin="round"/>
</svg>
