<svg width="115" height="93" viewBox="0 0 115 93" fill="none" xmlns="http://www.w3.org/2000/svg">
<g clip-path="url(#clip0_79_2185)">
<path d="M101.374 92.487H12.3243C11.5538 92.487 10.9292 91.9131 10.9292 91.2051V44.0293H13.7193V89.9231H99.9789V44.0293H102.769V91.2051C102.769 91.9131 102.144 92.487 101.374 92.487Z" fill="#0D0D0D"/>
<path d="M31.6549 45.9413H27.1248C22.515 45.9352 18.7795 42.1998 18.7734 37.59V34.0622C18.7734 33.2976 19.3933 32.6777 20.1579 32.6777H38.6217C39.3864 32.6777 40.0062 33.2976 40.0062 34.0622V37.6121C39.9879 42.2133 36.2561 45.9352 31.6549 45.9413ZM21.5425 35.4191V37.5844C21.5485 40.6649 24.0443 43.1607 27.1248 43.1668H31.6549C34.7354 43.1607 37.2311 40.6649 37.2372 37.5844V35.4191H21.5425Z" fill="#0D0D0D"/>
<path d="M38.6219 35.4256H20.1581C19.7358 35.4249 19.3369 35.2315 19.0748 34.9004C18.8127 34.5693 18.7161 34.1366 18.8124 33.7254L26.1945 2.15868C26.3433 1.53256 26.9023 1.09037 27.5458 1.08984H42.3102C42.7054 1.09053 43.0817 1.25943 43.3449 1.55432C43.6081 1.8492 43.7333 2.24218 43.6892 2.63495L39.9953 34.2017C39.9115 34.8976 39.3228 35.4223 38.6219 35.4256ZM21.9081 32.6566H37.4146L40.7817 3.85886H28.6424L21.9081 32.6566Z" fill="#0D0D0D"/>
<path d="M13.1913 45.9413H8.66677C4.05698 45.9352 0.321531 42.1998 0.31543 37.59V34.0622C0.31543 33.2976 0.935294 32.6777 1.69994 32.6777H20.1582C20.9228 32.6777 21.5427 33.2976 21.5427 34.0622V37.6121C21.5244 42.2133 17.7925 45.9352 13.1913 45.9413ZM3.08444 35.4191V37.5844C3.09054 40.6649 5.58627 43.1607 8.66677 43.1668H13.1913C16.2718 43.1607 18.7676 40.6649 18.7737 37.5844V35.4191H3.08444Z" fill="#0D0D0D"/>
<path d="M20.1579 35.423H1.69967C1.25134 35.4208 0.831588 35.2025 0.572351 34.8367C0.313114 34.471 0.246219 34.0026 0.392692 33.5789L11.4687 2.0121C11.6713 1.46636 12.1936 1.10562 12.7757 1.1094H27.5456C27.9679 1.11011 28.3668 1.30351 28.6289 1.63463C28.891 1.96576 28.9877 2.3984 28.8914 2.80958L21.5092 34.3763C21.3518 34.9936 20.795 35.425 20.1579 35.423ZM3.65459 32.654H19.0614L25.7956 3.85627H13.7559L3.65459 32.654ZM50.1131 45.9397H45.5885C40.9787 45.9336 37.2433 42.1982 37.2372 37.5884V34.0607C37.2372 33.296 37.857 32.6762 38.6217 32.6762H57.0799C57.8446 32.6762 58.4644 33.296 58.4644 34.0607V37.6105C58.4462 42.2117 54.7143 45.9337 50.1131 45.9397ZM40.0062 35.4175V37.5828C40.0123 40.6634 42.508 43.1591 45.5885 43.1652H50.1131C53.1936 43.1591 55.6893 40.6634 55.6954 37.5828V35.4175H40.0062Z" fill="#0D0D0D"/>
<path d="M57.0803 35.4256H38.622C38.2268 35.4249 37.8505 35.256 37.5873 34.9611C37.3242 34.6662 37.199 34.2733 37.2431 33.8805L40.9369 2.31375C41.0207 1.61786 41.6094 1.0932 42.3104 1.08984H57.0803C57.8449 1.08984 58.4648 1.70971 58.4648 2.47435V34.0411C58.4648 34.8057 57.8449 35.4256 57.0803 35.4256ZM40.1782 32.6566H55.6847V3.85886H43.5453L40.1782 32.6566Z" fill="#0D0D0D"/>
<path d="M68.5717 45.9413H64.0471C59.4374 45.9352 55.7019 42.1998 55.6958 37.59V34.0622C55.6958 33.2976 56.3157 32.6777 57.0803 32.6777H75.5385C76.3032 32.6777 76.9231 33.2976 76.9231 34.0622V37.6121C76.9048 42.2133 73.1729 45.9352 68.5717 45.9413ZM58.4648 35.4191V37.5844C58.4709 40.6649 60.9666 43.1607 64.0471 43.1668H68.5717C71.6522 43.1607 74.1479 40.6649 74.154 37.5844V35.4191H58.4648Z" fill="#0D0D0D"/>
<path d="M75.5385 35.423H57.0803C56.3157 35.423 55.6958 34.8031 55.6958 34.0385V2.49388C55.6958 1.72924 56.3157 1.10938 57.0803 1.10938H71.8502C72.5511 1.11273 73.1399 1.63739 73.2236 2.33328L76.9175 33.9C76.9616 34.2928 76.8364 34.6858 76.5732 34.9807C76.3101 35.2756 75.9338 35.4445 75.5385 35.4451V35.423ZM58.4648 32.654H73.9713L70.6042 3.85624H58.4648V32.654Z" fill="#0D0D0D"/>
<path d="M87.0353 45.9413H82.5052C77.8954 45.9352 74.1599 42.1998 74.1538 37.59V34.0622C74.1538 33.2976 74.7737 32.6777 75.5383 32.6777H94.0021C94.7667 32.6777 95.3866 33.2976 95.3866 34.0622V37.6121C95.3683 42.2133 91.6364 45.9352 87.0353 45.9413ZM76.9228 35.4191V37.5844C76.9289 40.6649 79.4246 43.1607 82.5052 43.1668H87.0353C90.1158 43.1607 92.6115 40.6649 92.6176 37.5844V35.4191H76.9228Z" fill="#0D0D0D"/>
<path d="M94.0022 35.4256H75.5384C74.8375 35.4223 74.2487 34.8976 74.165 34.2017L70.4711 2.63495C70.427 2.24218 70.5522 1.8492 70.8154 1.55432C71.0785 1.25943 71.4548 1.09053 71.8501 1.08984H86.6144C87.258 1.09037 87.817 1.53256 87.9657 2.15868L95.3479 33.7254C95.4442 34.1366 95.3475 34.5693 95.0854 34.9004C94.8234 35.2315 94.4245 35.4249 94.0022 35.4256ZM76.7734 32.6566H92.2521L85.5179 3.85886H73.4062L76.7734 32.6566Z" fill="#0D0D0D"/>
<path d="M105.494 45.9413H100.969C96.3592 45.9352 92.6238 42.1998 92.6177 37.59V34.0622C92.6177 33.2976 93.2375 32.6777 94.0022 32.6777H112.46C113.225 32.6777 113.845 33.2976 113.845 34.0622V37.6121C113.827 42.2133 110.095 45.9352 105.494 45.9413ZM95.3867 35.4191V37.5844C95.3928 40.6649 97.8885 43.1607 100.969 43.1668H105.494C108.574 43.1607 111.07 40.6649 111.076 37.5844V35.4191H95.3867Z" fill="#0D0D0D"/>
<path d="M112.461 35.4256H94.0024C93.3589 35.4251 92.7999 34.9829 92.6512 34.3568L85.269 2.79002C85.1727 2.37884 85.2693 1.9462 85.5314 1.61507C85.7935 1.28395 86.1924 1.09055 86.6147 1.08984H101.385C101.972 1.08942 102.496 1.46022 102.692 2.01469L113.768 33.5814C113.914 34.0052 113.847 34.4735 113.588 34.8393C113.329 35.2051 112.909 35.4234 112.461 35.4256ZM95.099 32.6566H110.506L100.404 3.85886H88.3647L95.099 32.6566ZM50.9886 92.4894H35.748C35.3822 92.488 35.0321 92.3413 34.7745 92.0816C34.5169 91.822 34.3731 91.4706 34.3745 91.1049V54.277C34.373 53.9094 34.5184 53.5564 34.7784 53.2964C35.0384 53.0365 35.3914 52.8911 35.759 52.8925H50.9886C51.7532 52.8925 52.3731 53.5124 52.3731 54.277V91.1049C52.3731 91.4721 52.2272 91.8243 51.9676 92.0839C51.708 92.3436 51.3558 92.4894 50.9886 92.4894ZM37.1435 89.7204H49.6041V55.6616H37.1435V89.7204Z" fill="#0D0D0D"/>
<path d="M35.7475 92.4875H20.529C19.7644 92.4875 19.1445 91.8676 19.1445 91.103V54.2751C19.1445 53.5105 19.7644 52.8906 20.529 52.8906H35.7475C36.5122 52.8906 37.132 53.5105 37.132 54.2751V91.103C37.132 91.8676 36.5122 92.4875 35.7475 92.4875ZM21.9025 89.7185H34.3741V55.6596H21.8859L21.9025 89.7185ZM95.0266 78.2769H57.1963C56.4317 78.2769 55.8118 77.6571 55.8118 76.8924V54.2751C55.8118 53.5105 56.4317 52.8906 57.1963 52.8906H95.0266C95.7912 52.8906 96.4111 53.5105 96.4111 54.2751V76.8924C96.4111 77.6571 95.7912 78.2769 95.0266 78.2769ZM58.5808 75.5079H93.631V55.6596H58.5808V75.5079Z" fill="#0D0D0D"/>
<path d="M95.0268 83.6285H57.1965C56.4319 83.6285 55.812 83.0086 55.812 82.244V76.8943C55.812 76.1296 56.4319 75.5098 57.1965 75.5098H95.0268C95.7914 75.5098 96.4113 76.1296 96.4113 76.8943V82.244C96.4113 83.0086 95.7914 83.6285 95.0268 83.6285ZM58.581 80.8595H93.6312V78.2788H58.581V80.8595Z" fill="#0D0D0D"/>
<path d="M110.245 89.7188H3.91504V92.4878H110.245V89.7188Z" fill="#0D0D0D"/>
</g>
<defs>
<clipPath id="clip0_79_2185">
<rect width="114.083" height="91.9312" fill="white" transform="translate(0.0385742 0.833984)"/>
</clipPath>
</defs>
</svg>
