<svg width="101" height="100" viewBox="0 0 101 100" fill="none" xmlns="http://www.w3.org/2000/svg">
<path d="M83.2477 42.1534H80.1379V25.0493C80.1379 24.6369 79.9741 24.2414 79.6825 23.9498C79.3909 23.6582 78.9954 23.4944 78.583 23.4944H77.0281V14.165C77.0281 13.909 76.965 13.6571 76.8443 13.4314C76.7236 13.2057 76.549 13.0133 76.3361 12.8713L71.6714 9.76145L69.9454 12.3488L73.9182 14.9968V23.4944H72.3633C71.9509 23.4944 71.5555 23.6582 71.2638 23.9498C70.9722 24.2414 70.8084 24.6369 70.8084 25.0493V42.1534H61.0436L52.7512 17.2748H58.3691C58.7815 17.2748 59.177 17.111 59.4686 16.8194C59.7602 16.5278 59.924 16.1323 59.924 15.7199V9.50022C59.924 9.08784 59.7602 8.69234 59.4686 8.40074C59.177 8.10913 58.7815 7.94531 58.3691 7.94531H11.7218C11.3094 7.94531 10.9139 8.10913 10.6223 8.40074C10.3307 8.69234 10.1669 9.08784 10.1669 9.50022V15.7199C10.1669 16.1323 10.3307 16.5278 10.6223 16.8194C10.9139 17.111 11.3094 17.2748 11.7218 17.2748H14.8316V32.7741H17.9415V17.2748H49.4735L57.7658 42.1534H17.9415V36.0332H14.8316V43.7083C14.8332 43.9229 14.8798 44.1348 14.9685 44.3302C11.0051 45.9691 7.47151 48.4972 4.64076 51.7192C4.3692 52.0297 4.23212 52.4354 4.25968 52.847C4.28723 53.2586 4.47717 53.6424 4.78769 53.9139C5.09822 54.1855 5.50391 54.3226 5.91551 54.295C6.3271 54.2674 6.71089 54.0775 6.98245 53.767C7.49868 53.1777 8.04912 52.6272 8.612 52.0939V56.4585L7.02443 58.0476C6.73293 58.3392 6.56918 58.7347 6.56918 59.147C6.56918 59.5593 6.73293 59.9547 7.02443 60.2463L7.73192 60.9522C7.24191 61.9071 6.83057 62.9004 6.50198 63.9221H5.50218C5.08979 63.9221 4.69429 64.0859 4.40269 64.3775C4.11109 64.6691 3.94727 65.0646 3.94727 65.477V74.8065C3.94727 75.2189 4.11109 75.6144 4.40269 75.906C4.69429 76.1976 5.08979 76.3614 5.50218 76.3614H6.50198C6.83098 77.3827 7.24177 78.3759 7.73036 79.3313L7.02443 80.0372C6.73293 80.3288 6.56918 80.7242 6.56918 81.1365C6.56918 81.5488 6.73293 81.9443 7.02443 82.2358L13.6219 88.8333C13.9135 89.1248 14.3089 89.2886 14.7212 89.2886C15.1335 89.2886 15.529 89.1248 15.8206 88.8333L16.5265 88.1274C17.482 88.6156 18.4752 89.0264 19.4964 89.3558V90.3556C19.4964 90.768 19.6602 91.1635 19.9518 91.4551C20.2434 91.7467 20.6389 91.9105 21.0513 91.9105H30.3807C30.7931 91.9105 31.1886 91.7467 31.4802 91.4551C31.7718 91.1635 31.9357 90.768 31.9357 90.3556V89.3558C32.9569 89.0264 33.95 88.6156 34.9055 88.1274L35.6115 88.8333C35.9031 89.1248 36.2985 89.2886 36.7108 89.2886C37.1231 89.2886 37.5185 89.1248 37.8101 88.8333L44.4076 82.2358C44.6991 81.9443 44.8629 81.5488 44.8629 81.1365C44.8629 80.7242 44.6991 80.3288 44.4076 80.0372L43.7017 79.3313C44.1903 78.3759 44.601 77.3827 44.93 76.3614H56.8142V79.4712C56.8142 79.8178 56.9301 80.1545 57.1433 80.4278C57.3566 80.7011 57.6551 80.8952 57.9913 80.9795L59.2694 81.2998C59.3736 81.5781 59.4902 81.8549 59.6146 82.127L58.9351 83.2574C58.7567 83.5549 58.6829 83.9036 58.7254 84.2479C58.7679 84.5922 58.9244 84.9124 59.1699 85.1575L63.5672 89.5548C63.8122 89.7999 64.1321 89.9562 64.4761 89.9987C64.8201 90.0413 65.1684 89.9677 65.4657 89.7896L66.5977 89.1117C66.8714 89.2345 67.1482 89.3496 67.4249 89.4553L67.7452 90.7319C67.8292 91.0684 68.0232 91.3672 68.2965 91.5808C68.5698 91.7943 68.9067 91.9104 69.2535 91.9105H75.4732C75.82 91.9104 76.1569 91.7943 76.4301 91.5808C76.7034 91.3672 76.8975 91.0684 76.9814 90.7319L77.3017 89.4553C77.5785 89.3496 77.8553 89.2345 78.1289 89.1117L79.2609 89.7896C79.5583 89.9677 79.9066 90.0413 80.2506 89.9987C80.5945 89.9562 80.9144 89.7999 81.1595 89.5548L85.5568 85.1575C85.8023 84.9124 85.9587 84.5922 86.0013 84.2479C86.0438 83.9036 85.97 83.5549 85.7915 83.2574L85.1121 82.127C85.2364 81.8549 85.3531 81.5781 85.4572 81.2998L86.7354 80.9795C87.0716 80.8952 87.3701 80.7011 87.5833 80.4278C87.7966 80.1545 87.9124 79.8178 87.9124 79.4712V76.3614H92.5772C93.8143 76.3614 95.0008 75.8699 95.8756 74.9951C96.7504 74.1203 97.2419 72.9338 97.2419 71.6967V65.4133H94.1321V71.6967C94.1321 72.109 93.9683 72.5045 93.6767 72.7961C93.3851 73.0877 92.9896 73.2516 92.5772 73.2516H87.9124C87.9124 72.9049 87.7966 72.5682 87.5833 72.295C87.3701 72.0217 87.0716 71.8275 86.7354 71.7433L85.4572 71.423C85.3531 71.1447 85.2364 70.8679 85.1121 70.5958L85.7915 69.4654C85.97 69.1678 86.0438 68.8192 86.0013 68.4749C85.9587 68.1306 85.8023 67.8104 85.5568 67.5653L81.1595 63.168C80.9144 62.9228 80.5945 62.7666 80.2506 62.7241C79.9066 62.6815 79.5583 62.7551 79.2609 62.9332L78.1289 63.6111C77.8553 63.4883 77.5785 63.3732 77.3017 63.2675L76.9814 61.9909C76.8975 61.6544 76.7034 61.3556 76.4301 61.142C76.1569 60.9284 75.82 60.8124 75.4732 60.8123H70.8084V45.2632H83.2477C86.1334 45.2665 88.9 46.4143 90.9405 48.4548C92.981 50.4953 94.1288 53.2618 94.1321 56.1475V62.3672H97.2419V56.1475C97.2378 52.4373 95.7621 48.8802 93.1386 46.2567C90.515 43.6332 86.9579 42.1575 83.2477 42.1534ZM16.3866 14.165H13.2767V11.0551H56.8142V14.165H16.3866ZM44.3749 73.2516H43.7623C43.4177 73.2516 43.0828 73.3662 42.8104 73.5773C42.5379 73.7884 42.3433 74.084 42.2572 74.4177C41.8598 75.9615 41.2474 77.4418 40.4379 78.815C40.2628 79.1119 40.1912 79.4586 40.2346 79.8006C40.2779 80.1426 40.4337 80.4604 40.6774 80.7043L41.1081 81.1365L36.7108 85.5354L36.2785 85.1047C36.0346 84.8606 35.7164 84.7046 35.3741 84.6613C35.0318 84.6179 34.6848 84.6897 34.3878 84.8652C33.015 85.6749 31.5353 86.2878 29.992 86.686C29.6583 86.7722 29.3627 86.9668 29.1516 87.2392C28.9405 87.5116 28.8259 87.8465 28.8258 88.1911V88.8007H22.6062V88.1896C22.6061 87.8449 22.4915 87.5101 22.2804 87.2376C22.0693 86.9652 21.7737 86.7706 21.44 86.6844C19.8968 86.2863 18.4171 85.6733 17.0443 84.8636C16.7472 84.6881 16.4002 84.6164 16.0579 84.6597C15.7156 84.7031 15.3974 84.8591 15.1535 85.1031L14.7212 85.5338L10.3224 81.1365L10.7531 80.7043C10.9968 80.4604 11.1525 80.1426 11.1959 79.8006C11.2392 79.4586 11.1677 79.1119 10.9926 78.815C10.1831 77.4418 9.57068 75.9615 9.17332 74.4177C9.08722 74.0843 8.89286 73.7889 8.62073 73.5778C8.34861 73.3667 8.01411 73.252 7.66972 73.2516H7.05709V67.0319H7.66972C8.01437 67.0318 8.34923 66.9172 8.62168 66.7062C8.89412 66.4951 9.08871 66.1994 9.17488 65.8657C9.57224 64.322 10.1846 62.8417 10.9941 61.4685C11.1693 61.1716 11.2408 60.8249 11.1974 60.4829C11.1541 60.1409 10.9983 59.8231 10.7547 59.5792L10.3224 59.147L14.7212 54.7481L15.1535 55.1788C15.3974 55.4229 15.7156 55.5789 16.0579 55.6222C16.4002 55.6656 16.7472 55.5938 17.0443 55.4183C18.4171 54.6086 19.8968 53.9957 21.44 53.5975C21.7737 53.5113 22.0693 53.3167 22.2804 53.0443C22.4915 52.7718 22.6061 52.437 22.6062 52.0923V51.4828H28.8258V52.0939C28.8259 52.4385 28.9405 52.7734 29.1516 53.0458C29.3627 53.3183 29.6583 53.5129 29.992 53.599C31.5353 53.9972 33.015 54.6102 34.3878 55.4198C34.6848 55.5954 35.0318 55.6671 35.3741 55.6238C35.7164 55.5804 36.0346 55.4244 36.2785 55.1804L36.7108 54.7497L41.1096 59.147L40.6789 59.5792C40.4352 59.8231 40.2795 60.1409 40.2361 60.4829C40.1928 60.8249 40.2643 61.1716 40.4395 61.4685C41.2489 62.8417 41.8613 64.322 42.2587 65.8657C42.3449 66.1994 42.5395 66.4951 42.8119 66.7062C43.0844 66.9172 43.4192 67.0318 43.7639 67.0319H44.3749V73.2516ZM74.2588 63.9221L74.4889 64.8411C74.5537 65.1016 74.6848 65.341 74.8696 65.5358C75.0543 65.7306 75.2864 65.8743 75.5431 65.9528C76.2109 66.1562 76.8572 66.4244 77.4728 66.7536C77.7098 66.8797 77.9755 66.9422 78.2439 66.9351C78.5123 66.928 78.7743 66.8516 79.0044 66.7132L79.8191 66.2249L82.4998 68.9056L82.01 69.7204C81.8715 69.9511 81.7953 70.2138 81.7887 70.4828C81.7822 70.7518 81.8456 71.0179 81.9727 71.2551C82.3015 71.8697 82.5697 72.515 82.7735 73.1816C82.8517 73.438 82.9949 73.6698 83.1892 73.8545C83.3834 74.0392 83.6221 74.1706 83.8821 74.2358L84.8026 74.466V78.2568L83.8821 78.487C83.6221 78.5522 83.3834 78.6836 83.1892 78.8683C82.9949 79.053 82.8517 79.2848 82.7735 79.5412C82.5697 80.2078 82.3015 80.853 81.9727 81.4677C81.8456 81.7049 81.7822 81.971 81.7887 82.24C81.7953 82.509 81.8715 82.7717 82.01 83.0024L82.4998 83.8172L79.8269 86.4978L79.0121 86.0096C78.7821 85.8712 78.5201 85.7947 78.2517 85.7877C77.9833 85.7806 77.7176 85.8431 77.4805 85.9692C76.865 86.2983 76.2187 86.5665 75.5509 86.77C75.2941 86.8485 75.0621 86.9921 74.8773 87.187C74.6926 87.3818 74.5615 87.6212 74.4967 87.8817L74.2588 88.8007H70.4679L70.2378 87.8817C70.173 87.6212 70.0418 87.3818 69.8571 87.187C69.6723 86.9921 69.4403 86.8485 69.1835 86.77C68.5158 86.5665 67.8695 86.2983 67.2539 85.9692C67.0168 85.8431 66.7512 85.7806 66.4828 85.7877C66.2144 85.7947 65.9524 85.8712 65.7223 86.0096L64.9075 86.4978L62.2269 83.825L62.7167 83.0102C62.8552 82.7795 62.9314 82.5168 62.9379 82.2478C62.9445 81.9788 62.8811 81.7127 62.754 81.4755C62.4252 80.8608 62.157 80.2156 61.9532 79.549C61.875 79.2926 61.7318 79.0608 61.5375 78.8761C61.3433 78.6913 61.1045 78.56 60.8446 78.4947L59.924 78.2568V74.466L60.8446 74.2358C61.1045 74.1706 61.3433 74.0392 61.5375 73.8545C61.7318 73.6698 61.875 73.438 61.9532 73.1816C62.1573 72.5146 62.4254 71.8688 62.754 71.2535C62.8808 71.0165 62.944 70.7507 62.9375 70.482C62.931 70.2133 62.8549 69.9509 62.7167 69.7204L62.2269 68.9056L64.9075 66.2249L65.7223 66.7132C65.9524 66.8516 66.2144 66.928 66.4828 66.9351C66.7512 66.9422 67.0168 66.8797 67.2539 66.7536C67.8695 66.4244 68.5158 66.1562 69.1835 65.9528C69.4403 65.8743 69.6723 65.7306 69.8571 65.5358C70.0418 65.341 70.173 65.1016 70.2378 64.8411L70.4679 63.9221H74.2588ZM67.6986 62.1775L67.4249 63.2659C67.1482 63.3717 66.8714 63.4867 66.5977 63.6096L65.4657 62.9316C65.1684 62.7536 64.8201 62.68 64.4761 62.7225C64.1321 62.765 63.8122 62.9213 63.5672 63.1664L59.1699 67.5637C58.9244 67.8088 58.7679 68.129 58.7254 68.4733C58.6829 68.8176 58.7567 69.1663 58.9351 69.4638L59.6146 70.5927C59.4902 70.8663 59.3736 71.1431 59.2694 71.4214L57.9913 71.7417C57.6548 71.826 57.3561 72.0204 57.1429 72.294C56.9296 72.5676 56.8139 72.9047 56.8142 73.2516H47.4848V65.477C47.4848 65.0646 47.3209 64.6691 47.0293 64.3775C46.7377 64.0859 46.3422 63.9221 45.9299 63.9221H44.93C44.6015 62.9004 44.1901 61.9071 43.7001 60.9522L44.4076 60.2463C44.6991 59.9547 44.8629 59.5593 44.8629 59.147C44.8629 58.7347 44.6991 58.3392 44.4076 58.0476L37.8101 51.4502C37.5185 51.1587 37.1231 50.9949 36.7108 50.9949C36.2985 50.9949 35.9031 51.1587 35.6115 51.4502L34.9055 52.1561C33.95 51.6679 32.9569 51.2571 31.9357 50.9277V49.9279C31.9357 49.5155 31.7718 49.12 31.4802 48.8284C31.1886 48.5368 30.7931 48.373 30.3807 48.373H21.0513C20.6389 48.373 20.2434 48.5368 19.9518 48.8284C19.6602 49.12 19.4964 49.5155 19.4964 49.9279V50.9277C18.4752 51.2571 17.482 51.6679 16.5265 52.1561L15.8206 51.4502C15.529 51.1587 15.1335 50.9949 14.7212 50.9949C14.3089 50.9949 13.9135 51.1587 13.6219 51.4502L11.7218 53.3487V49.6169C16.7378 46.1755 22.8436 44.6976 28.8781 45.4642C34.9127 46.2308 40.455 49.1885 44.4511 53.7747C44.7232 54.0828 45.1061 54.2707 45.5162 54.2972C45.9264 54.3237 46.3303 54.1868 46.6398 53.9164C46.9493 53.646 47.1391 53.264 47.1678 52.854C47.1965 52.444 47.0617 52.0394 46.7928 51.7285C44.4484 49.0633 41.6178 46.8691 38.4523 45.2632H67.6986V62.1775ZM73.9182 42.1534V26.6042H77.0281V42.1534H73.9182Z" fill="black"/>
<path d="M86.3573 49.9277C84.7078 49.9277 83.1258 50.583 81.9594 51.7494C80.793 52.9158 80.1377 54.4978 80.1377 56.1474C80.1377 57.7969 80.793 59.3789 81.9594 60.5453C83.1258 61.7117 84.7078 62.367 86.3573 62.367H87.9122C88.3246 62.367 88.7201 62.2032 89.0117 61.9116C89.3033 61.62 89.4672 61.2245 89.4672 60.8121V51.4826C89.4672 51.0703 89.3033 50.6748 89.0117 50.3832C88.7201 50.0916 88.3246 49.9277 87.9122 49.9277H86.3573ZM86.3573 59.2572C85.5326 59.2572 84.7416 58.9296 84.1584 58.3464C83.5752 57.7632 83.2475 56.9722 83.2475 56.1474C83.2475 55.3226 83.5752 54.5316 84.1584 53.9484C84.7416 53.3652 85.5326 53.0376 86.3573 53.0376V59.2572Z" fill="black"/>
<path d="M63.0338 49.9277H55.2593V53.0376H63.0338V49.9277Z" fill="black"/>
<path d="M63.0338 56.1484H55.2593V59.2583H63.0338V56.1484Z" fill="black"/>
<path d="M50.5942 39.0437C50.8366 39.0437 51.0756 38.9871 51.2922 38.8783C51.5088 38.7695 51.6969 38.6116 51.8416 38.4172C51.9863 38.2228 52.0836 37.9973 52.1257 37.7586C52.1677 37.5199 52.1534 37.2747 52.0838 37.0425L47.4191 21.4934C47.3231 21.173 47.1263 20.892 46.858 20.6923C46.5896 20.4926 46.264 20.3847 45.9295 20.3848H22.6058C22.1934 20.3848 21.7979 20.5486 21.5063 20.8402C21.2147 21.1318 21.0509 21.5273 21.0509 21.9397V37.4888C21.0509 37.9012 21.2147 38.2967 21.5063 38.5883C21.7979 38.8799 22.1934 39.0437 22.6058 39.0437H50.5942ZM24.1607 23.4946H44.7726L48.5044 35.9339H24.1607V23.4946ZM25.7157 57.7026C23.2554 57.7026 20.8504 58.4322 18.8048 59.799C16.7591 61.1659 15.1648 63.1086 14.2233 65.3816C13.2818 67.6546 13.0354 70.1557 13.5154 72.5687C13.9954 74.9817 15.1801 77.1981 16.9198 78.9378C18.6594 80.6775 20.8759 81.8622 23.2889 82.3422C25.7019 82.8221 28.203 82.5758 30.476 81.6343C32.7489 80.6928 34.6917 79.0984 36.0585 77.0528C37.4254 75.0072 38.1549 72.6022 38.1549 70.1419C38.1512 66.8439 36.8395 63.6821 34.5075 61.3501C32.1755 59.0181 29.0136 57.7063 25.7157 57.7026ZM25.7157 79.4714C23.8705 79.4714 22.0667 78.9242 20.5325 77.8991C18.9983 76.8739 17.8025 75.4169 17.0964 73.7121C16.3902 72.0074 16.2055 70.1316 16.5655 68.3218C16.9254 66.5121 17.814 64.8497 19.1187 63.545C20.4235 62.2402 22.0858 61.3517 23.8956 60.9917C25.7053 60.6317 27.5812 60.8165 29.2859 61.5226C30.9906 62.2287 32.4477 63.4245 33.4728 64.9587C34.498 66.493 35.0451 68.2967 35.0451 70.1419C35.0426 72.6155 34.0589 74.987 32.3099 76.7361C30.5608 78.4852 28.1892 79.4689 25.7157 79.4714Z" fill="black"/>
<path d="M30.3807 68.5879H21.0513V71.6977H30.3807V68.5879Z" fill="black"/>
<path d="M64.5884 76.3624C64.5884 77.9001 65.0443 79.4032 65.8986 80.6818C66.7529 81.9603 67.9671 82.9568 69.3877 83.5452C70.8084 84.1336 72.3716 84.2876 73.8797 83.9876C75.3878 83.6876 76.7731 82.9472 77.8604 81.8599C78.9477 80.7726 79.6881 79.3873 79.9881 77.8792C80.2881 76.3711 80.1341 74.8079 79.5457 73.3873C78.9572 71.9666 77.9608 70.7524 76.6822 69.8981C75.4037 69.0439 73.9006 68.5879 72.3629 68.5879C70.3018 68.5904 68.3257 69.4103 66.8682 70.8677C65.4107 72.3252 64.5908 74.3013 64.5884 76.3624ZM72.3629 71.6977C73.2855 71.6977 74.1874 71.9713 74.9545 72.4839C75.7216 72.9964 76.3195 73.725 76.6726 74.5773C77.0256 75.4297 77.118 76.3676 76.938 77.2725C76.758 78.1774 76.3138 79.0085 75.6614 79.6609C75.009 80.3133 74.1778 80.7576 73.273 80.9375C72.3681 81.1175 71.4302 81.0252 70.5778 80.6721C69.7255 80.319 68.9969 79.7211 68.4844 78.954C67.9718 78.1869 67.6982 77.285 67.6982 76.3624C67.6982 75.1253 68.1897 73.9388 69.0645 73.064C69.9393 72.1892 71.1258 71.6977 72.3629 71.6977Z" fill="black"/>
<path d="M73.9179 74.8066H70.8081V77.9165H73.9179V74.8066Z" fill="black"/>
</svg>
