<svg width="93" height="56" viewBox="0 0 93 56" fill="none" xmlns="http://www.w3.org/2000/svg">
<g clip-path="url(#clip0_56_2575)">
<rect x="2.3116" y="1.70808" width="88.3368" height="52.5066" rx="6.28935" fill="white" stroke="#D9D9D9" stroke-width="3.14468"/>
<path d="M35.9782 32.9633C36.1038 32.9633 36.2128 33.0128 36.3053 33.1119L37.227 34.1129C36.6455 34.8132 35.932 35.355 35.0863 35.7382C34.2406 36.1148 33.2297 36.3031 32.0537 36.3031C31.0098 36.3031 30.065 36.1247 29.2193 35.7679C28.3802 35.4045 27.6633 34.9024 27.0687 34.2615C26.4741 33.6141 26.0149 32.8443 25.6911 31.9524C25.374 31.0604 25.2154 30.0793 25.2154 29.009C25.2154 27.9386 25.3839 26.9575 25.7209 26.0656C26.0644 25.167 26.5434 24.3973 27.1579 23.7564C27.779 23.1089 28.5189 22.6068 29.3778 22.25C30.2434 21.8932 31.1948 21.7149 32.2321 21.7149C33.2628 21.7149 34.1712 21.8833 34.9575 22.2203C35.7503 22.5506 36.4374 22.9933 37.0188 23.5483L36.2557 24.6285C36.2029 24.7012 36.1401 24.764 36.0674 24.8168C35.9948 24.8697 35.8956 24.8961 35.7701 24.8961C35.638 24.8961 35.486 24.8367 35.3142 24.7177C35.1491 24.5922 34.9343 24.4568 34.6701 24.3114C34.4124 24.1594 34.0853 24.024 33.6889 23.9051C33.2991 23.7795 32.8102 23.7168 32.2222 23.7168C31.5416 23.7168 30.9173 23.8357 30.3491 24.0735C29.7809 24.3114 29.292 24.6583 28.8823 25.1142C28.4727 25.57 28.1522 26.125 27.921 26.7791C27.6964 27.4332 27.584 28.1765 27.584 29.009C27.584 29.8481 27.703 30.598 27.9408 31.2587C28.1787 31.9128 28.5057 32.4677 28.922 32.9236C29.3382 33.3729 29.8271 33.7165 30.3887 33.9543C30.9503 34.1922 31.5549 34.3111 32.2023 34.3111C32.5988 34.3111 32.9522 34.2913 33.2628 34.2516C33.5799 34.2054 33.8706 34.136 34.1349 34.0435C34.3992 33.9444 34.6469 33.8222 34.8782 33.6768C35.116 33.5315 35.3506 33.3531 35.5818 33.1417C35.714 33.0227 35.8461 32.9633 35.9782 32.9633ZM52.3487 29.009C52.3487 30.0661 52.1769 31.0406 51.8333 31.9326C51.4898 32.8245 51.0041 33.5942 50.3765 34.2417C49.7554 34.8826 49.0055 35.3847 48.1268 35.7481C47.2547 36.1115 46.2834 36.2932 45.2131 36.2932C44.1494 36.2932 43.1782 36.1115 42.2994 35.7481C41.4273 35.3847 40.6774 34.8826 40.0497 34.2417C39.4221 33.5942 38.9365 32.8245 38.5929 31.9326C38.2493 31.0406 38.0776 30.0661 38.0776 29.009C38.0776 27.9519 38.2493 26.9773 38.5929 26.0854C38.9365 25.1934 39.4221 24.4237 40.0497 23.7762C40.6774 23.1287 41.4273 22.6233 42.2994 22.2599C43.1782 21.8965 44.1494 21.7149 45.2131 21.7149C46.2834 21.7149 47.2547 21.8965 48.1268 22.2599C49.0055 22.6233 49.7554 23.1287 50.3765 23.7762C51.0041 24.4237 51.4898 25.1934 51.8333 26.0854C52.1769 26.9773 52.3487 27.9519 52.3487 29.009ZM49.9801 29.009C49.9801 28.1897 49.8677 27.453 49.6431 26.7989C49.4251 26.1448 49.1079 25.5899 48.6917 25.134C48.2821 24.6781 47.7832 24.3279 47.1952 24.0835C46.6072 23.839 45.9465 23.7168 45.2131 23.7168C44.4863 23.7168 43.8289 23.839 43.2409 24.0835C42.6529 24.3279 42.1508 24.6781 41.7345 25.134C41.3183 25.5899 40.9978 26.1448 40.7732 26.7989C40.5486 27.453 40.4363 28.1897 40.4363 29.009C40.4363 29.8348 40.5486 30.5748 40.7732 31.2289C40.9978 31.883 41.3183 32.438 41.7345 32.8939C42.1508 33.3432 42.6529 33.69 43.2409 33.9345C43.8289 34.1723 44.4863 34.2913 45.2131 34.2913C45.9465 34.2913 46.6072 34.1723 47.1952 33.9345C47.7832 33.69 48.2821 33.3432 48.6917 32.8939C49.1079 32.438 49.4251 31.883 49.6431 31.2289C49.8677 30.5748 49.9801 29.8348 49.9801 29.009ZM67.4163 29.009C67.4163 30.0661 67.2446 31.034 66.901 31.9128C66.5574 32.7849 66.0718 33.5348 65.4441 34.1624C64.8231 34.7901 64.0732 35.279 63.1945 35.6292C62.3223 35.9727 61.3511 36.1445 60.2808 36.1445H54.8895V21.8734H60.2808C61.3511 21.8734 62.3223 22.0485 63.1945 22.3987C64.0732 22.7422 64.8231 23.2279 65.4441 23.8555C66.0718 24.4832 66.5574 25.2364 66.901 26.1151C67.2446 26.9872 67.4163 27.9519 67.4163 29.009ZM65.0477 29.009C65.0477 28.1897 64.9354 27.453 64.7108 26.7989C64.4927 26.1448 64.1756 25.5932 63.7594 25.1439C63.3497 24.6946 62.8509 24.351 62.2629 24.1132C61.6749 23.8687 61.0142 23.7465 60.2808 23.7465H57.2184V34.2714H60.2808C61.0142 34.2714 61.6749 34.1525 62.2629 33.9147C62.8509 33.6768 63.3497 33.3333 63.7594 32.884C64.1756 32.4281 64.4927 31.8764 64.7108 31.2289C64.9354 30.5748 65.0477 29.8348 65.0477 29.009Z" fill="black" fill-opacity="0.5"/>
</g>
<defs>
<clipPath id="clip0_56_2575">
<rect width="91.4815" height="55.6512" fill="white" transform="translate(0.740234 0.135742)"/>
</clipPath>
</defs>
</svg>
