<svg width="92" height="57" viewBox="0 0 92 57" fill="none" xmlns="http://www.w3.org/2000/svg">
<path d="M57.3838 13.8584C65.6437 13.8585 72.3398 20.6325 72.3398 28.9883C72.3397 37.3439 65.6436 44.1171 57.3838 44.1172C53.6814 44.1172 50.2934 42.7563 47.6816 40.502C45.07 42.7556 41.6832 44.1172 37.9814 44.1172C29.7216 44.1171 23.0254 37.3431 23.0254 28.9873C23.0256 20.6317 29.7217 13.8585 37.9814 13.8584C41.6833 13.8584 45.071 15.2189 47.6826 17.4727C50.2942 15.219 53.682 13.8584 57.3838 13.8584Z" fill="#ED0006"/>
<path d="M57.3828 13.8584C65.6428 13.8584 72.3389 20.6324 72.3389 28.9883C72.3387 37.344 65.6427 44.1172 57.3828 44.1172C53.6805 44.1172 50.2934 42.7553 47.6816 40.501C50.8966 37.726 52.9364 33.5986 52.9365 28.9883C52.9365 24.3775 50.897 20.2487 47.6816 17.4736C50.2933 15.2196 53.6808 13.8584 57.3828 13.8584Z" fill="#F9A000"/>
<path d="M47.6768 17.4746C50.8922 20.2496 52.9326 24.3775 52.9326 28.9883C52.9325 33.5988 50.892 37.726 47.6768 40.501C44.4621 37.726 42.4229 33.5984 42.4229 28.9883C42.4229 24.378 44.4619 20.2496 47.6768 17.4746Z" fill="#FF5E00"/>
</svg>
