<svg width="101" height="69" viewBox="0 0 101 69" fill="none" xmlns="http://www.w3.org/2000/svg">
<rect x="0.71875" y="0.71875" width="99.1875" height="67.5625" rx="7.90625" fill="white" stroke="#D9D9D9" stroke-width="1.4375"/>
<path d="M63.7568 14.375C74.5916 14.3751 83.3748 23.2602 83.375 34.2207C83.375 45.1814 74.5917 54.0673 63.7568 54.0674C58.9005 54.0674 54.4572 52.281 51.0312 49.3242C47.6053 52.281 43.162 54.0674 38.3057 54.0674C27.4708 54.0673 18.6875 45.1813 18.6875 34.2207C18.6877 23.2602 27.471 14.3751 38.3057 14.375C43.1618 14.375 47.6054 16.1606 51.0312 19.1172C54.4571 16.1606 58.9007 14.375 63.7568 14.375Z" fill="#ED0006"/>
<path d="M63.7568 14.375C74.5916 14.3751 83.3748 23.2602 83.375 34.2207C83.375 45.1814 74.5917 54.0673 63.7568 54.0674C58.9005 54.0674 54.4572 52.281 51.0312 49.3242C55.2489 45.6841 57.9238 40.2687 57.9238 34.2207C57.9237 28.1727 55.249 22.7572 51.0312 19.1172C54.4571 16.1606 58.9007 14.375 63.7568 14.375Z" fill="#F9A000"/>
<path d="M51.0312 19.1172C55.2492 22.7573 57.9238 28.1734 57.9238 34.2217C57.9237 40.2695 55.2488 45.6842 51.0312 49.3242C46.8139 45.6842 44.1388 40.2694 44.1387 34.2217C44.1387 28.1735 46.8134 22.7573 51.0312 19.1172Z" fill="#FF5E00"/>
</svg>
