<svg width="97" height="66" viewBox="0 0 97 66" fill="none" xmlns="http://www.w3.org/2000/svg">
<rect x="0.6875" y="0.6875" width="94.875" height="64.625" rx="7.5625" fill="white" stroke="#D9D9D9" stroke-width="1.375"/>
<path d="M61.8828 24.5864C65.2916 24.5865 68.5058 27.6566 68.5254 33.2915C68.5254 39.4513 65.35 42.2495 61.8633 42.2495C60.1491 42.2495 59.1163 41.5311 58.415 41.0259L58.3955 46.5249L53.5264 47.5542V24.897H57.8115L58.0645 26.1021C58.7462 25.4802 59.9738 24.5864 61.8828 24.5864ZM20.334 24.5864C21.9508 24.5864 23.5483 24.8387 25.165 25.48V30.0464C23.6846 29.2497 21.8144 28.8032 20.334 28.8032C19.3016 28.8032 18.6788 29.0943 18.6787 29.8521C18.6787 32.0284 26.0997 30.9989 26.1191 36.7896C26.119 40.2676 23.3337 42.269 19.2822 42.269C17.607 42.269 15.7754 41.9389 13.9639 41.1616V36.5366C15.6001 37.4305 17.6654 38.0913 19.2822 38.0913C20.373 38.0913 21.1523 37.7996 21.1523 36.9058C21.1522 34.5935 13.7501 35.4484 13.75 30.0854C13.75 26.6461 16.3797 24.5864 20.334 24.5864ZM31.8262 24.9165H35.5273V29.0552H31.8262V35.9536C31.8264 38.8289 34.9037 37.9358 35.5273 37.6831V41.6274C34.8845 41.9772 33.7154 42.269 32.1182 42.269C29.2355 42.2689 27.0734 40.1506 27.0732 37.2749L27.0928 21.7104L31.8457 20.6997L31.8262 24.9165ZM76.8428 24.5864C81.4593 24.5864 83.8749 28.5115 83.875 33.4858C83.875 33.9521 83.836 34.9624 83.8359 35.2153H74.3105C74.5248 37.5083 76.2004 38.1694 78.0898 38.1694C80.0182 38.1694 81.5378 37.7608 82.8623 37.1001V40.9868C81.5378 41.7252 79.7846 42.2494 77.4668 42.2495C72.7139 42.2495 69.4023 39.2957 69.4023 33.4468C69.4025 28.5115 72.207 24.5866 76.8428 24.5864ZM41.5859 26.355C42.7352 24.2564 45.0144 24.6833 45.6377 24.9165V29.3862C45.0339 29.1725 43.0858 28.9001 41.9365 30.396V41.9194H37.0664V24.9165H41.2744L41.5859 26.355ZM51.7148 41.9194H46.8252V24.9165H51.7148V41.9194ZM60.7139 28.8999C59.6036 28.8999 58.9019 29.2886 58.3955 29.8521L58.415 37.061C58.8825 37.5662 59.5647 37.9751 60.7139 37.9751C62.506 37.9751 63.7139 36.0311 63.7139 33.4272C63.7137 30.8819 62.4864 28.8999 60.7139 28.8999ZM76.8232 28.5308C75.5961 28.5308 74.252 29.4444 74.252 31.6401H79.2773C79.2773 29.4444 78.0115 28.5308 76.8232 28.5308ZM51.7148 22.3901L46.8252 23.4399V19.4751L51.7148 18.4458V22.3901Z" fill="#6461FC"/>
</svg>
