<svg width="93" height="56" viewBox="0 0 93 56" fill="none" xmlns="http://www.w3.org/2000/svg">
<path fill-rule="evenodd" clip-rule="evenodd" d="M28.5871 37.8344H23.0451L18.8893 23.7688C18.692 23.1218 18.2732 22.5498 17.6571 22.2802C16.1196 21.6027 14.4254 21.0636 12.5771 20.7916V20.2501H21.5049C22.737 20.2501 23.6612 21.0636 23.8152 22.0083L25.9715 32.1542L31.5108 20.2501H36.8987L28.5871 37.8344ZM39.9805 37.8344H34.7465L39.0564 20.2501H44.2903L39.9805 37.8344ZM51.0592 25.1217C51.2132 24.1746 52.1374 23.633 53.2155 23.633C54.9097 23.4971 56.7553 23.769 58.2954 24.4442L59.2196 20.6582C57.6794 20.1167 55.9852 19.8447 54.4477 19.8447C49.3677 19.8447 45.6712 22.2804 45.6712 25.6608C45.6712 28.2325 48.2896 29.5828 50.1378 30.3962C52.1374 31.2074 52.9075 31.7489 52.7534 32.56C52.7534 33.7767 51.2132 34.3182 49.6758 34.3182C47.8275 34.3182 45.9793 33.9126 44.2878 33.2351L43.3636 37.0235C45.2119 37.6986 47.2114 37.9705 49.0597 37.9705C54.7557 38.1042 58.2954 35.6708 58.2954 32.0185C58.2954 27.419 51.0592 27.1494 51.0592 25.1217V25.1217ZM76.6127 37.8344L72.4569 20.2501H67.993C67.0689 20.2501 66.1448 20.7916 65.8368 21.6027L58.1412 37.8344H63.5292L64.6046 35.2651H71.2247L71.8408 37.8344H76.6127ZM68.766 24.9855L70.3035 31.6128H65.9936L68.766 24.9855Z" fill="#172B85"/>
</svg>
