<svg width="118" height="76" viewBox="0 0 118 76" fill="none" xmlns="http://www.w3.org/2000/svg">
<rect x="2.0625" y="2.0625" width="113.875" height="71.875" rx="8.25" fill="white" stroke="#D9D9D9" stroke-width="4.125"/>
<path fill-rule="evenodd" clip-rule="evenodd" d="M36.042 51.4839H28.8935L23.533 32.2753C23.2785 31.3917 22.7383 30.6105 21.9436 30.2424C19.9604 29.3171 17.7751 28.5808 15.3911 28.2094V27.4699H26.9068C28.4961 27.4699 29.6881 28.5808 29.8868 29.871L32.6681 43.7268L39.8132 27.4699H46.763L36.042 51.4839ZM50.7363 51.4839H43.9851L49.5443 27.4699H56.2955L50.7363 51.4839ZM65.0297 34.1224C65.2283 32.8291 66.4203 32.0895 67.811 32.0895C69.9963 31.9038 72.3768 32.2752 74.3635 33.1972L75.5555 28.0269C73.5688 27.2874 71.3835 26.916 69.4003 26.916C62.8478 26.916 58.0798 30.2423 58.0798 34.8588C58.0798 38.3707 61.4571 40.2148 63.8411 41.3257C66.4203 42.4334 67.4137 43.1729 67.215 44.2806C67.215 45.9421 65.2283 46.6817 63.2451 46.6817C60.8611 46.6817 58.4771 46.1278 56.2953 45.2026L55.1033 50.3761C57.4873 51.2981 60.0665 51.6695 62.4505 51.6695C69.7977 51.852 74.3635 48.5289 74.3635 43.5411C74.3635 37.2598 65.0297 36.8917 65.0297 34.1224ZM97.9914 51.4839L92.6309 27.4699H86.873C85.681 27.4699 84.489 28.2094 84.0917 29.3171L74.1653 51.4839H81.1152L82.5023 47.9751H91.0415L91.8362 51.4839H97.9914ZM87.866 33.9364L89.8492 42.9868H84.29L87.866 33.9364Z" fill="#172B85"/>
</svg>
